STARTFONT 2.1
COMMENT 
COMMENT Shinonome 16dot font for ISO 10464-1
COMMENT 
COMMENT The original is designed by
COMMENT   Yasuyuki Furukawa <Furukawa.Yasuyuki@fujixerox.co.jp>, 2000.
COMMENT   (Public Domain)
COMMENT 
COMMENT Modified and Maintained by /efont/.
COMMENT 
COMMENT (c) /efont/ -- Efont Open Laboratory 2001
COMMENT http://openlab.ring.gr.jp/efont/
COMMENT 
FONT -ML-Fixed-Medium-R-Normal--16-150-75-75-C-80-ISO10646-1
SIZE 16 75 75
FONTBOUNDINGBOX 8 16 0 -2
STARTPROPERTIES 20
FONTNAME_REGISTRY ""
FOUNDRY "ML"
FAMILY_NAME "Fixed"
WEIGHT_NAME "Medium"
SLANT "R"
SETWIDTH_NAME "Normal"
ADD_STYLE_NAME ""
PIXEL_SIZE 16
POINT_SIZE 150
RESOLUTION_X 75
RESOLUTION_Y 75
SPACING "C"
AVERAGE_WIDTH 80
CHARSET_REGISTRY "ISO10646"
CHARSET_ENCODING "1"
DEFAULT_CHAR 32
FONT_DESCENT 2
FONT_ASCENT 14
COPYRIGHT "Public Domain"
_XMBDFED_INFO "Edited with xmbdfed 4.4."
ENDPROPERTIES
CHARS 6833
STARTCHAR 01
ENCODING 1
SWIDTH 480 0
DWIDTH 8 0
BBX 8 16 0 -2
BITMAP
10
10
38
38
7c
7c
fe
fe
7c
7c
38
38
10
10
00
00
ENDCHAR
STARTCHAR 02
ENCODING 2
SWIDTH 480 0
DWIDTH 8 0
BBX 8 16 0 -2
BITMAP
55
aa
55
aa
55
aa
55
aa
55
aa
55
aa
55
aa
00
00
ENDCHAR
STARTCHAR 03
ENCODING 3
SWIDTH 480 0
DWIDTH 8 0
BBX 8 16 0 -2
BITMAP
00
88
88
88
f8
88
88
88
00
3e
08
08
08
08
08
08
ENDCHAR
STARTCHAR 04
ENCODING 4
SWIDTH 480 0
DWIDTH 8 0
BBX 8 16 0 -2
BITMAP
00
f8
80
80
f0
80
80
80
3e
20
20
3c
20
20
20
00
ENDCHAR
STARTCHAR 05
ENCODING 5
SWIDTH 480 0
DWIDTH 8 0
BBX 8 16 0 -2
BITMAP
00
70
88
80
80
80
88
70
00
3c
22
22
3c
28
24
22
ENDCHAR
STARTCHAR 06
ENCODING 6
SWIDTH 480 0
DWIDTH 8 0
BBX 8 16 0 -2
BITMAP
00
80
80
80
80
80
80
f8
00
3e
20
20
3c
20
20
20
ENDCHAR
STARTCHAR 07
ENCODING 7
SWIDTH 480 0
DWIDTH 8 0
BBX 8 16 0 -2
BITMAP
00
00
38
44
44
44
38
00
00
00
00
00
00
00
00
00
ENDCHAR
STARTCHAR 8
ENCODING 8
SWIDTH 480 0
DWIDTH 8 0
BBX 8 16 0 -2
BITMAP
00
00
10
10
10
10
fe
10
10
10
10
00
fe
00
00
00
ENDCHAR
STARTCHAR 9
ENCODING 9
SWIDTH 480 0
DWIDTH 8 0
BBX 8 16 0 -2
BITMAP
00
84
c4
a4
a4
94
94
8c
84
20
20
20
20
20
20
3e
ENDCHAR
STARTCHAR a
ENCODING 10
SWIDTH 480 0
DWIDTH 8 0
BBX 8 16 0 -2
BITMAP
00
00
88
88
88
50
50
20
00
3e
08
08
08
08
08
00
ENDCHAR
STARTCHAR b
ENCODING 11
SWIDTH 480 0
DWIDTH 8 0
BBX 8 16 0 -2
BITMAP
10
10
10
10
10
10
10
10
f0
00
00
00
00
00
00
00
ENDCHAR
STARTCHAR c
ENCODING 12
SWIDTH 480 0
DWIDTH 8 0
BBX 8 16 0 -2
BITMAP
00
00
00
00
00
00
00
00
f0
10
10
10
10
10
10
10
ENDCHAR
STARTCHAR d
ENCODING 13
SWIDTH 480 0
DWIDTH 8 0
BBX 8 16 0 -2
BITMAP
00
00
00
00
00
00
00
00
1f
10
10
10
10
10
10
10
ENDCHAR
STARTCHAR e
ENCODING 14
SWIDTH 480 0
DWIDTH 8 0
BBX 8 16 0 -2
BITMAP
10
10
10
10
10
10
10
10
1f
00
00
00
00
00
00
00
ENDCHAR
STARTCHAR f
ENCODING 15
SWIDTH 480 0
DWIDTH 8 0
BBX 8 16 0 -2
BITMAP
10
10
10
10
10
10
10
10
ff
10
10
10
10
10
10
10
ENDCHAR
STARTCHAR 10
ENCODING 16
SWIDTH 480 0
DWIDTH 8 0
BBX 8 16 0 -2
BITMAP
00
00
ff
00
00
00
00
00
00
00
00
00
00
00
00
00
ENDCHAR
STARTCHAR 11
ENCODING 17
SWIDTH 480 0
DWIDTH 8 0
BBX 8 16 0 -2
BITMAP
00
00
00
00
00
ff
00
00
00
00
00
00
00
00
00
00
ENDCHAR
STARTCHAR 12
ENCODING 18
SWIDTH 480 0
DWIDTH 8 0
BBX 8 16 0 -2
BITMAP
00
00
00
00
00
00
00
00
ff
00
00
00
00
00
00
00
ENDCHAR
STARTCHAR 13
ENCODING 19
SWIDTH 480 0
DWIDTH 8 0
BBX 8 16 0 -2
BITMAP
00
00
00
00
00
00
00
00
00
00
00
ff
00
00
00
00
ENDCHAR
STARTCHAR 14
ENCODING 20
SWIDTH 480 0
DWIDTH 8 0
BBX 8 16 0 -2
BITMAP
00
00
00
00
00
00
00
00
00
00
00
00
00
00
ff
00
ENDCHAR
STARTCHAR 15
ENCODING 21
SWIDTH 480 0
DWIDTH 8 0
BBX 8 16 0 -2
BITMAP
10
10
10
10
10
10
10
10
1f
10
10
10
10
10
10
10
ENDCHAR
STARTCHAR 16
ENCODING 22
SWIDTH 480 0
DWIDTH 8 0
BBX 8 16 0 -2
BITMAP
10
10
10
10
10
10
10
10
f0
10
10
10
10
10
10
10
ENDCHAR
STARTCHAR 17
ENCODING 23
SWIDTH 480 0
DWIDTH 8 0
BBX 8 16 0 -2
BITMAP
10
10
10
10
10
10
10
10
ff
00
00
00
00
00
00
00
ENDCHAR
STARTCHAR 18
ENCODING 24
SWIDTH 480 0
DWIDTH 8 0
BBX 8 16 0 -2
BITMAP
00
00
00
00
00
00
00
00
ff
10
10
10
10
10
10
10
ENDCHAR
STARTCHAR 19
ENCODING 25
SWIDTH 480 0
DWIDTH 8 0
BBX 8 16 0 -2
BITMAP
10
10
10
10
10
10
10
10
10
10
10
10
10
10
10
10
ENDCHAR
STARTCHAR 1a
ENCODING 26
SWIDTH 480 0
DWIDTH 8 0
BBX 8 16 0 -2
BITMAP
00
00
02
0c
30
c0
30
0c
02
00
fe
00
fe
00
00
00
ENDCHAR
STARTCHAR 1b
ENCODING 27
SWIDTH 480 0
DWIDTH 8 0
BBX 8 16 0 -2
BITMAP
00
00
00
80
60
18
06
18
60
80
fe
00
fe
00
00
00
ENDCHAR
STARTCHAR 1c
ENCODING 28
SWIDTH 480 0
DWIDTH 8 0
BBX 8 16 0 -2
BITMAP
00
00
00
00
00
00
00
fe
24
24
24
24
44
84
00
00
ENDCHAR
STARTCHAR 1d
ENCODING 29
SWIDTH 480 0
DWIDTH 8 0
BBX 8 16 0 -2
BITMAP
00
00
00
00
02
04
08
fe
10
fe
20
40
80
00
00
00
ENDCHAR
STARTCHAR 1e
ENCODING 30
SWIDTH 480 0
DWIDTH 8 0
BBX 8 16 0 -2
BITMAP
00
00
00
00
0c
12
10
10
10
7c
10
10
3c
52
20
00
ENDCHAR
STARTCHAR 1f
ENCODING 31
SWIDTH 480 0
DWIDTH 8 0
BBX 8 16 0 -2
BITMAP
00
00
00
00
00
00
00
00
10
00
00
00
00
00
00
00
ENDCHAR
STARTCHAR 20
ENCODING 32
SWIDTH 480 0
DWIDTH 8 0
BBX 8 16 0 -2
BITMAP
00
00
00
00
00
00
00
00
00
00
00
00
00
00
00
00
ENDCHAR
STARTCHAR 21
ENCODING 33
SWIDTH 480 0
DWIDTH 8 0
BBX 8 16 0 -2
BITMAP
00
18
18
18
18
10
10
10
10
10
10
00
00
10
10
00
ENDCHAR
STARTCHAR 22
ENCODING 34
SWIDTH 480 0
DWIDTH 8 0
BBX 8 16 0 -2
BITMAP
6c
24
24
48
00
00
00
00
00
00
00
00
00
00
00
00
ENDCHAR
STARTCHAR 23
ENCODING 35
SWIDTH 480 0
DWIDTH 8 0
BBX 8 16 0 -2
BITMAP
00
12
12
12
7f
24
24
24
24
24
fe
48
48
48
48
00
ENDCHAR
STARTCHAR 24
ENCODING 36
SWIDTH 480 0
DWIDTH 8 0
BBX 8 16 0 -2
BITMAP
10
38
54
92
92
90
50
38
14
12
92
92
54
38
10
10
ENDCHAR
STARTCHAR 25
ENCODING 37
SWIDTH 480 0
DWIDTH 8 0
BBX 8 16 0 -2
BITMAP
01
61
92
92
94
94
68
08
10
16
29
29
49
49
86
80
ENDCHAR
STARTCHAR 26
ENCODING 38
SWIDTH 480 0
DWIDTH 8 0
BBX 8 16 0 -2
BITMAP
00
38
44
44
44
28
10
30
4a
8a
84
84
4a
31
00
00
ENDCHAR
STARTCHAR 27
ENCODING 39
SWIDTH 480 0
DWIDTH 8 0
BBX 8 16 0 -2
BITMAP
60
20
20
40
00
00
00
00
00
00
00
00
00
00
00
00
ENDCHAR
STARTCHAR 28
ENCODING 40
SWIDTH 480 0
DWIDTH 8 0
BBX 8 16 0 -2
BITMAP
00
02
04
08
08
10
10
10
10
10
10
10
08
08
04
02
ENDCHAR
STARTCHAR 29
ENCODING 41
SWIDTH 480 0
DWIDTH 8 0
BBX 8 16 0 -2
BITMAP
00
40
20
10
10
08
08
08
08
08
08
08
10
10
20
40
ENDCHAR
STARTCHAR 2a
ENCODING 42
SWIDTH 480 0
DWIDTH 8 0
BBX 8 16 0 -2
BITMAP
00
00
00
00
10
92
54
38
54
92
10
00
00
00
00
00
ENDCHAR
STARTCHAR 2b
ENCODING 43
SWIDTH 480 0
DWIDTH 8 0
BBX 8 16 0 -2
BITMAP
00
00
00
10
10
10
10
fe
10
10
10
10
00
00
00
00
ENDCHAR
STARTCHAR 2c
ENCODING 44
SWIDTH 480 0
DWIDTH 8 0
BBX 8 16 0 -2
BITMAP
00
00
00
00
00
00
00
00
00
00
00
00
60
20
20
40
ENDCHAR
STARTCHAR 2d
ENCODING 45
SWIDTH 480 0
DWIDTH 8 0
BBX 8 16 0 -2
BITMAP
00
00
00
00
00
00
00
fe
00
00
00
00
00
00
00
00
ENDCHAR
STARTCHAR 2e
ENCODING 46
SWIDTH 480 0
DWIDTH 8 0
BBX 8 16 0 -2
BITMAP
00
00
00
00
00
00
00
00
00
00
00
00
60
60
00
00
ENDCHAR
STARTCHAR 2f
ENCODING 47
SWIDTH 480 0
DWIDTH 8 0
BBX 8 16 0 -2
BITMAP
00
02
02
04
04
08
08
10
10
20
20
40
40
80
80
00
ENDCHAR
STARTCHAR 30
ENCODING 48
SWIDTH 480 0
DWIDTH 8 0
BBX 8 16 0 -2
BITMAP
00
18
24
24
42
42
42
42
42
42
42
24
24
18
00
00
ENDCHAR
STARTCHAR 31
ENCODING 49
SWIDTH 480 0
DWIDTH 8 0
BBX 8 16 0 -2
BITMAP
00
10
10
30
50
10
10
10
10
10
10
10
10
10
00
00
ENDCHAR
STARTCHAR 32
ENCODING 50
SWIDTH 480 0
DWIDTH 8 0
BBX 8 16 0 -2
BITMAP
00
18
24
42
42
02
04
08
10
20
20
40
40
7e
00
00
ENDCHAR
STARTCHAR 33
ENCODING 51
SWIDTH 480 0
DWIDTH 8 0
BBX 8 16 0 -2
BITMAP
00
38
44
82
82
02
04
38
04
02
82
82
44
38
00
00
ENDCHAR
STARTCHAR 34
ENCODING 52
SWIDTH 480 0
DWIDTH 8 0
BBX 8 16 0 -2
BITMAP
00
08
18
18
28
28
48
48
88
fe
08
08
08
08
00
00
ENDCHAR
STARTCHAR 35
ENCODING 53
SWIDTH 480 0
DWIDTH 8 0
BBX 8 16 0 -2
BITMAP
00
7c
40
40
40
b8
c4
82
02
02
82
82
44
38
00
00
ENDCHAR
STARTCHAR 36
ENCODING 54
SWIDTH 480 0
DWIDTH 8 0
BBX 8 16 0 -2
BITMAP
00
38
44
40
80
80
b8
c4
82
82
82
82
44
38
00
00
ENDCHAR
STARTCHAR 37
ENCODING 55
SWIDTH 480 0
DWIDTH 8 0
BBX 8 16 0 -2
BITMAP
00
fe
02
04
04
08
08
08
08
10
10
10
10
10
10
00
ENDCHAR
STARTCHAR 38
ENCODING 56
SWIDTH 480 0
DWIDTH 8 0
BBX 8 16 0 -2
BITMAP
00
38
44
82
82
82
44
38
44
82
82
82
44
38
00
00
ENDCHAR
STARTCHAR 39
ENCODING 57
SWIDTH 480 0
DWIDTH 8 0
BBX 8 16 0 -2
BITMAP
00
38
44
82
82
82
82
46
3a
02
02
82
44
38
00
00
ENDCHAR
STARTCHAR 3a
ENCODING 58
SWIDTH 480 0
DWIDTH 8 0
BBX 8 16 0 -2
BITMAP
00
00
00
00
18
18
00
00
00
00
00
18
18
00
00
00
ENDCHAR
STARTCHAR 3b
ENCODING 59
SWIDTH 480 0
DWIDTH 8 0
BBX 8 16 0 -2
BITMAP
00
00
00
00
18
18
00
00
00
00
18
08
08
10
00
00
ENDCHAR
STARTCHAR 3c
ENCODING 60
SWIDTH 480 0
DWIDTH 8 0
BBX 8 16 0 -2
BITMAP
00
00
00
02
04
08
10
20
20
10
08
04
02
00
00
00
ENDCHAR
STARTCHAR 3d
ENCODING 61
SWIDTH 480 0
DWIDTH 8 0
BBX 8 16 0 -2
BITMAP
00
00
00
00
00
fe
00
00
00
fe
00
00
00
00
00
00
ENDCHAR
STARTCHAR 3e
ENCODING 62
SWIDTH 480 0
DWIDTH 8 0
BBX 8 16 0 -2
BITMAP
00
00
00
40
20
10
08
04
04
08
10
20
40
00
00
00
ENDCHAR
STARTCHAR 3f
ENCODING 63
SWIDTH 480 0
DWIDTH 8 0
BBX 8 16 0 -2
BITMAP
00
38
44
82
82
82
04
08
08
10
10
00
00
10
10
00
ENDCHAR
STARTCHAR 40
ENCODING 64
SWIDTH 480 0
DWIDTH 8 0
BBX 8 16 0 -2
BITMAP
00
18
24
42
5a
b5
a5
a5
a5
9a
40
40
22
1c
00
00
ENDCHAR
STARTCHAR 41
ENCODING 65
SWIDTH 480 0
DWIDTH 8 0
BBX 8 16 0 -2
BITMAP
00
10
10
28
28
28
44
44
44
7c
82
82
82
82
00
00
ENDCHAR
STARTCHAR 42
ENCODING 66
SWIDTH 480 0
DWIDTH 8 0
BBX 8 16 0 -2
BITMAP
00
f0
88
84
84
84
88
f8
84
82
82
82
84
f8
00
00
ENDCHAR
STARTCHAR 43
ENCODING 67
SWIDTH 480 0
DWIDTH 8 0
BBX 8 16 0 -2
BITMAP
00
38
44
42
80
80
80
80
80
80
80
42
44
38
00
00
ENDCHAR
STARTCHAR 44
ENCODING 68
SWIDTH 480 0
DWIDTH 8 0
BBX 8 16 0 -2
BITMAP
00
f0
88
84
84
82
82
82
82
82
84
84
88
f0
00
00
ENDCHAR
STARTCHAR 45
ENCODING 69
SWIDTH 480 0
DWIDTH 8 0
BBX 8 16 0 -2
BITMAP
00
fe
80
80
80
80
80
fc
80
80
80
80
80
fe
00
00
ENDCHAR
STARTCHAR 46
ENCODING 70
SWIDTH 480 0
DWIDTH 8 0
BBX 8 16 0 -2
BITMAP
00
fe
80
80
80
80
80
fc
80
80
80
80
80
80
00
00
ENDCHAR
STARTCHAR 47
ENCODING 71
SWIDTH 480 0
DWIDTH 8 0
BBX 8 16 0 -2
BITMAP
00
18
24
42
40
80
80
8e
82
82
82
42
66
1a
00
00
ENDCHAR
STARTCHAR 48
ENCODING 72
SWIDTH 480 0
DWIDTH 8 0
BBX 8 16 0 -2
BITMAP
00
82
82
82
82
82
82
fe
82
82
82
82
82
82
00
00
ENDCHAR
STARTCHAR 49
ENCODING 73
SWIDTH 480 0
DWIDTH 8 0
BBX 8 16 0 -2
BITMAP
00
38
10
10
10
10
10
10
10
10
10
10
10
38
00
00
ENDCHAR
STARTCHAR 4a
ENCODING 74
SWIDTH 480 0
DWIDTH 8 0
BBX 8 16 0 -2
BITMAP
00
02
02
02
02
02
02
02
02
02
02
42
24
18
00
00
ENDCHAR
STARTCHAR 4b
ENCODING 75
SWIDTH 480 0
DWIDTH 8 0
BBX 8 16 0 -2
BITMAP
00
42
42
44
44
48
58
68
64
44
42
42
41
41
00
00
ENDCHAR
STARTCHAR 4c
ENCODING 76
SWIDTH 480 0
DWIDTH 8 0
BBX 8 16 0 -2
BITMAP
00
40
40
40
40
40
40
40
40
40
40
40
40
7e
00
00
ENDCHAR
STARTCHAR 4d
ENCODING 77
SWIDTH 480 0
DWIDTH 8 0
BBX 8 16 0 -2
BITMAP
00
82
82
c6
c6
c6
aa
aa
aa
92
92
92
92
82
00
00
ENDCHAR
STARTCHAR 4e
ENCODING 78
SWIDTH 480 0
DWIDTH 8 0
BBX 8 16 0 -2
BITMAP
00
82
c2
c2
a2
a2
92
92
92
8a
8a
86
86
82
00
00
ENDCHAR
STARTCHAR 4f
ENCODING 79
SWIDTH 480 0
DWIDTH 8 0
BBX 8 16 0 -2
BITMAP
00
38
44
44
82
82
82
82
82
82
82
44
44
38
00
00
ENDCHAR
STARTCHAR 50
ENCODING 80
SWIDTH 480 0
DWIDTH 8 0
BBX 8 16 0 -2
BITMAP
00
f8
84
82
82
82
84
f8
80
80
80
80
80
80
00
00
ENDCHAR
STARTCHAR 51
ENCODING 81
SWIDTH 480 0
DWIDTH 8 0
BBX 8 16 0 -2
BITMAP
00
38
44
44
82
82
82
82
82
82
ba
44
44
38
08
06
ENDCHAR
STARTCHAR 52
ENCODING 82
SWIDTH 480 0
DWIDTH 8 0
BBX 8 16 0 -2
BITMAP
00
f8
84
82
82
82
84
f8
88
84
84
84
82
82
00
00
ENDCHAR
STARTCHAR 53
ENCODING 83
SWIDTH 480 0
DWIDTH 8 0
BBX 8 16 0 -2
BITMAP
00
38
44
82
82
80
60
18
04
02
82
82
44
38
00
00
ENDCHAR
STARTCHAR 54
ENCODING 84
SWIDTH 480 0
DWIDTH 8 0
BBX 8 16 0 -2
BITMAP
00
fe
10
10
10
10
10
10
10
10
10
10
10
10
00
00
ENDCHAR
STARTCHAR 55
ENCODING 85
SWIDTH 480 0
DWIDTH 8 0
BBX 8 16 0 -2
BITMAP
00
82
82
82
82
82
82
82
82
82
82
82
44
38
00
00
ENDCHAR
STARTCHAR 56
ENCODING 86
SWIDTH 480 0
DWIDTH 8 0
BBX 8 16 0 -2
BITMAP
00
82
82
82
82
44
44
44
28
28
28
10
10
10
00
00
ENDCHAR
STARTCHAR 57
ENCODING 87
SWIDTH 480 0
DWIDTH 8 0
BBX 8 16 0 -2
BITMAP
00
92
92
92
92
92
92
aa
aa
6c
44
44
44
44
00
00
ENDCHAR
STARTCHAR 58
ENCODING 88
SWIDTH 480 0
DWIDTH 8 0
BBX 8 16 0 -2
BITMAP
00
82
44
44
28
28
10
28
28
28
44
44
82
82
00
00
ENDCHAR
STARTCHAR 59
ENCODING 89
SWIDTH 480 0
DWIDTH 8 0
BBX 8 16 0 -2
BITMAP
00
82
82
44
44
44
28
28
10
10
10
10
10
10
00
00
ENDCHAR
STARTCHAR 5a
ENCODING 90
SWIDTH 480 0
DWIDTH 8 0
BBX 8 16 0 -2
BITMAP
00
fe
04
04
08
08
10
10
20
20
40
40
80
fe
00
00
ENDCHAR
STARTCHAR 5b
ENCODING 91
SWIDTH 480 0
DWIDTH 8 0
BBX 8 16 0 -2
BITMAP
1e
10
10
10
10
10
10
10
10
10
10
10
10
10
10
1e
ENDCHAR
STARTCHAR 5c
ENCODING 92
SWIDTH 480 0
DWIDTH 8 0
BBX 8 16 0 -2
BITMAP
00
80
80
40
40
20
20
10
10
08
08
04
04
02
02
00
ENDCHAR
STARTCHAR 5d
ENCODING 93
SWIDTH 480 0
DWIDTH 8 0
BBX 8 16 0 -2
BITMAP
f0
10
10
10
10
10
10
10
10
10
10
10
10
10
10
f0
ENDCHAR
STARTCHAR 5e
ENCODING 94
SWIDTH 480 0
DWIDTH 8 0
BBX 8 16 0 -2
BITMAP
10
28
44
82
00
00
00
00
00
00
00
00
00
00
00
00
ENDCHAR
STARTCHAR 5f
ENCODING 95
SWIDTH 480 0
DWIDTH 8 0
BBX 8 16 0 -2
BITMAP
00
00
00
00
00
00
00
00
00
00
00
00
00
00
fe
00
ENDCHAR
STARTCHAR 60
ENCODING 96
SWIDTH 480 0
DWIDTH 8 0
BBX 8 16 0 -2
BITMAP
30
20
20
10
00
00
00
00
00
00
00
00
00
00
00
00
ENDCHAR
STARTCHAR 61
ENCODING 97
SWIDTH 480 0
DWIDTH 8 0
BBX 8 16 0 -2
BITMAP
00
00
00
00
00
3c
42
02
3e
42
82
82
86
7a
00
00
ENDCHAR
STARTCHAR 62
ENCODING 98
SWIDTH 480 0
DWIDTH 8 0
BBX 8 16 0 -2
BITMAP
00
80
80
80
80
b8
c4
82
82
82
82
82
c4
b8
00
00
ENDCHAR
STARTCHAR 63
ENCODING 99
SWIDTH 480 0
DWIDTH 8 0
BBX 8 16 0 -2
BITMAP
00
00
00
00
00
38
44
82
80
80
80
82
44
38
00
00
ENDCHAR
STARTCHAR 64
ENCODING 100
SWIDTH 480 0
DWIDTH 8 0
BBX 8 16 0 -2
BITMAP
00
02
02
02
02
3a
46
82
82
82
82
82
46
3a
00
00
ENDCHAR
STARTCHAR 65
ENCODING 101
SWIDTH 480 0
DWIDTH 8 0
BBX 8 16 0 -2
BITMAP
00
00
00
00
00
38
44
82
82
fe
80
82
44
38
00
00
ENDCHAR
STARTCHAR 66
ENCODING 102
SWIDTH 480 0
DWIDTH 8 0
BBX 8 16 0 -2
BITMAP
00
0c
10
10
10
7c
10
10
10
10
10
10
10
10
00
00
ENDCHAR
STARTCHAR 67
ENCODING 103
SWIDTH 480 0
DWIDTH 8 0
BBX 8 16 0 -2
BITMAP
00
00
00
00
00
3b
44
44
44
38
40
78
84
82
82
7c
ENDCHAR
STARTCHAR 68
ENCODING 104
SWIDTH 480 0
DWIDTH 8 0
BBX 8 16 0 -2
BITMAP
00
40
40
40
40
5c
62
42
42
42
42
42
42
42
00
00
ENDCHAR
STARTCHAR 69
ENCODING 105
SWIDTH 480 0
DWIDTH 8 0
BBX 8 16 0 -2
BITMAP
00
10
10
00
00
30
10
10
10
10
10
10
10
10
00
00
ENDCHAR
STARTCHAR 6a
ENCODING 106
SWIDTH 480 0
DWIDTH 8 0
BBX 8 16 0 -2
BITMAP
00
08
08
00
00
18
08
08
08
08
08
08
08
08
10
60
ENDCHAR
STARTCHAR 6b
ENCODING 107
SWIDTH 480 0
DWIDTH 8 0
BBX 8 16 0 -2
BITMAP
00
40
40
40
40
42
44
48
50
68
44
44
42
42
00
00
ENDCHAR
STARTCHAR 6c
ENCODING 108
SWIDTH 480 0
DWIDTH 8 0
BBX 8 16 0 -2
BITMAP
00
30
10
10
10
10
10
10
10
10
10
10
10
10
00
00
ENDCHAR
STARTCHAR 6d
ENCODING 109
SWIDTH 480 0
DWIDTH 8 0
BBX 8 16 0 -2
BITMAP
00
00
00
00
00
ec
92
92
92
92
92
92
92
92
00
00
ENDCHAR
STARTCHAR 6e
ENCODING 110
SWIDTH 480 0
DWIDTH 8 0
BBX 8 16 0 -2
BITMAP
00
00
00
00
00
5c
62
42
42
42
42
42
42
42
00
00
ENDCHAR
STARTCHAR 6f
ENCODING 111
SWIDTH 480 0
DWIDTH 8 0
BBX 8 16 0 -2
BITMAP
00
00
00
00
00
38
44
82
82
82
82
82
44
38
00
00
ENDCHAR
STARTCHAR 70
ENCODING 112
SWIDTH 480 0
DWIDTH 8 0
BBX 8 16 0 -2
BITMAP
00
00
00
00
00
b8
c4
82
82
82
82
c4
b8
80
80
80
ENDCHAR
STARTCHAR 71
ENCODING 113
SWIDTH 480 0
DWIDTH 8 0
BBX 8 16 0 -2
BITMAP
00
00
00
00
00
3a
46
82
82
82
82
46
3a
02
02
02
ENDCHAR
STARTCHAR 72
ENCODING 114
SWIDTH 480 0
DWIDTH 8 0
BBX 8 16 0 -2
BITMAP
00
00
00
00
00
2c
30
20
20
20
20
20
20
20
00
00
ENDCHAR
STARTCHAR 73
ENCODING 115
SWIDTH 480 0
DWIDTH 8 0
BBX 8 16 0 -2
BITMAP
00
00
00
00
00
3c
42
40
60
18
06
02
42
3c
00
00
ENDCHAR
STARTCHAR 74
ENCODING 116
SWIDTH 480 0
DWIDTH 8 0
BBX 8 16 0 -2
BITMAP
00
00
10
10
10
7c
10
10
10
10
10
10
10
0c
00
00
ENDCHAR
STARTCHAR 75
ENCODING 117
SWIDTH 480 0
DWIDTH 8 0
BBX 8 16 0 -2
BITMAP
00
00
00
00
00
42
42
42
42
42
42
42
46
3a
00
00
ENDCHAR
STARTCHAR 76
ENCODING 118
SWIDTH 480 0
DWIDTH 8 0
BBX 8 16 0 -2
BITMAP
00
00
00
00
00
82
82
82
44
44
28
28
10
10
00
00
ENDCHAR
STARTCHAR 77
ENCODING 119
SWIDTH 480 0
DWIDTH 8 0
BBX 8 16 0 -2
BITMAP
00
00
00
00
00
92
92
92
92
aa
aa
44
44
44
00
00
ENDCHAR
STARTCHAR 78
ENCODING 120
SWIDTH 480 0
DWIDTH 8 0
BBX 8 16 0 -2
BITMAP
00
00
00
00
00
82
44
28
28
10
28
28
44
82
00
00
ENDCHAR
STARTCHAR 79
ENCODING 121
SWIDTH 480 0
DWIDTH 8 0
BBX 8 16 0 -2
BITMAP
00
00
00
00
00
82
82
44
44
28
28
18
10
10
20
c0
ENDCHAR
STARTCHAR 7a
ENCODING 122
SWIDTH 480 0
DWIDTH 8 0
BBX 8 16 0 -2
BITMAP
00
00
00
00
00
7e
04
08
08
10
10
20
40
fe
00
00
ENDCHAR
STARTCHAR 7b
ENCODING 123
SWIDTH 480 0
DWIDTH 8 0
BBX 8 16 0 -2
BITMAP
04
08
08
08
08
08
08
10
08
08
08
08
08
08
08
04
ENDCHAR
STARTCHAR 7c
ENCODING 124
SWIDTH 480 0
DWIDTH 8 0
BBX 8 16 0 -2
BITMAP
10
10
10
10
10
10
10
10
10
10
10
10
10
10
10
10
ENDCHAR
STARTCHAR 7d
ENCODING 125
SWIDTH 480 0
DWIDTH 8 0
BBX 8 16 0 -2
BITMAP
40
20
20
20
20
20
20
10
20
20
20
20
20
20
20
40
ENDCHAR
STARTCHAR 7e
ENCODING 126
SWIDTH 480 0
DWIDTH 8 0
BBX 8 16 0 -2
BITMAP
00
00
00
60
92
0c
00
00
00
00
00
00
00
00
00
00
ENDCHAR
STARTCHAR a1
ENCODING 161
SWIDTH 480 0
DWIDTH 8 0
BBX 8 16 0 -2
BITMAP
00
10
10
00
00
10
10
10
10
10
10
10
30
30
30
30
ENDCHAR
STARTCHAR a2
ENCODING 162
SWIDTH 480 0
DWIDTH 8 0
BBX 8 16 0 -2
BITMAP
00
00
10
3c
52
92
90
90
90
90
90
92
52
3c
10
00
ENDCHAR
STARTCHAR a3
ENCODING 163
SWIDTH 480 0
DWIDTH 8 0
BBX 8 16 0 -2
BITMAP
00
00
00
00
0c
12
10
10
10
7c
10
10
3c
52
20
00
ENDCHAR
STARTCHAR a4
ENCODING 164
SWIDTH 480 0
DWIDTH 8 0
BBX 8 16 0 -2
BITMAP
00
00
00
00
00
42
3c
24
24
3c
42
00
00
00
00
00
ENDCHAR
STARTCHAR a5
ENCODING 165
SWIDTH 480 0
DWIDTH 8 0
BBX 8 16 0 -2
BITMAP
82
82
44
44
44
28
28
fe
10
fe
10
10
10
10
00
00
ENDCHAR
STARTCHAR a6
ENCODING 166
SWIDTH 480 0
DWIDTH 8 0
BBX 8 16 0 -2
BITMAP
00
10
10
10
10
10
00
00
00
10
10
10
10
10
00
00
ENDCHAR
STARTCHAR a7
ENCODING 167
SWIDTH 480 0
DWIDTH 8 0
BBX 8 16 0 -2
BITMAP
00
3c
42
40
20
3c
42
42
42
3c
04
02
42
3c
00
00
ENDCHAR
STARTCHAR a8
ENCODING 168
SWIDTH 480 0
DWIDTH 8 0
BBX 8 16 0 -2
BITMAP
00
24
24
24
00
00
00
00
00
00
00
00
00
00
00
00
ENDCHAR
STARTCHAR a9
ENCODING 169
SWIDTH 480 0
DWIDTH 8 0
BBX 8 16 0 -2
BITMAP
00
00
3c
42
99
a5
a1
a1
a1
a5
a5
9b
42
3c
00
00
ENDCHAR
STARTCHAR aa
ENCODING 170
SWIDTH 480 0
DWIDTH 8 0
BBX 8 16 0 -2
BITMAP
00
1c
22
1e
22
26
1a
00
3e
00
00
00
00
00
00
00
ENDCHAR
STARTCHAR ab
ENCODING 171
SWIDTH 480 0
DWIDTH 8 0
BBX 8 16 0 -2
BITMAP
00
00
00
09
12
24
48
90
90
48
24
12
09
00
00
00
ENDCHAR
STARTCHAR ac
ENCODING 172
SWIDTH 480 0
DWIDTH 8 0
BBX 8 16 0 -2
BITMAP
00
00
00
00
00
00
00
fe
fe
06
06
00
00
00
00
00
ENDCHAR
STARTCHAR ad
ENCODING 173
SWIDTH 480 0
DWIDTH 8 0
BBX 8 16 0 -2
BITMAP
00
00
00
00
00
00
00
fe
fe
00
00
00
00
00
00
00
ENDCHAR
STARTCHAR ae
ENCODING 174
SWIDTH 480 0
DWIDTH 8 0
BBX 8 16 0 -2
BITMAP
00
00
3c
42
b9
a5
a5
b9
a9
a5
a5
a3
42
3c
00
00
ENDCHAR
STARTCHAR af
ENCODING 175
SWIDTH 480 0
DWIDTH 8 0
BBX 8 16 0 -2
BITMAP
00
00
fe
00
00
00
00
00
00
00
00
00
00
00
00
00
ENDCHAR
STARTCHAR b0
ENCODING 176
SWIDTH 480 0
DWIDTH 8 0
BBX 8 16 0 -2
BITMAP
00
38
44
44
44
38
00
00
00
00
00
00
00
00
00
00
ENDCHAR
STARTCHAR b1
ENCODING 177
SWIDTH 480 0
DWIDTH 8 0
BBX 8 16 0 -2
BITMAP
00
00
00
00
10
10
10
fe
10
10
10
00
fe
00
00
00
ENDCHAR
STARTCHAR b2
ENCODING 178
SWIDTH 480 0
DWIDTH 8 0
BBX 8 16 0 -2
BITMAP
00
18
24
04
08
10
20
3c
00
00
00
00
00
00
00
00
ENDCHAR
STARTCHAR b3
ENCODING 179
SWIDTH 480 0
DWIDTH 8 0
BBX 8 16 0 -2
BITMAP
00
18
24
04
18
04
24
18
00
00
00
00
00
00
00
00
ENDCHAR
STARTCHAR b4
ENCODING 180
SWIDTH 480 0
DWIDTH 8 0
BBX 8 16 0 -2
BITMAP
00
0c
18
30
00
00
00
00
00
00
00
00
00
00
00
00
ENDCHAR
STARTCHAR b5
ENCODING 181
SWIDTH 480 0
DWIDTH 8 0
BBX 8 16 0 -2
BITMAP
00
00
00
00
00
00
00
22
22
22
44
44
6c
54
82
80
ENDCHAR
STARTCHAR b6
ENCODING 182
SWIDTH 480 0
DWIDTH 8 0
BBX 8 16 0 -2
BITMAP
00
3c
74
74
74
74
34
14
14
14
14
14
14
14
00
00
ENDCHAR
STARTCHAR b7
ENCODING 183
SWIDTH 480 0
DWIDTH 8 0
BBX 8 16 0 -2
BITMAP
00
00
00
00
00
00
18
18
00
00
00
00
00
00
00
00
ENDCHAR
STARTCHAR b8
ENCODING 184
SWIDTH 480 0
DWIDTH 8 0
BBX 8 16 0 -2
BITMAP
00
00
00
00
00
00
00
00
00
00
00
00
00
0c
08
10
ENDCHAR
STARTCHAR b9
ENCODING 185
SWIDTH 480 0
DWIDTH 8 0
BBX 8 16 0 -2
BITMAP
00
08
18
28
08
08
08
08
00
00
00
00
00
00
00
00
ENDCHAR
STARTCHAR ba
ENCODING 186
SWIDTH 480 0
DWIDTH 8 0
BBX 8 16 0 -2
BITMAP
00
18
24
24
24
24
18
00
3c
00
00
00
00
00
00
00
ENDCHAR
STARTCHAR bb
ENCODING 187
SWIDTH 480 0
DWIDTH 8 0
BBX 8 16 0 -2
BITMAP
00
00
00
00
90
48
24
12
09
09
12
24
48
90
00
00
ENDCHAR
STARTCHAR bc
ENCODING 188
SWIDTH 480 0
DWIDTH 8 0
BBX 8 16 0 -2
BITMAP
00
40
c4
44
48
48
50
12
22
26
4a
5f
82
82
00
00
ENDCHAR
STARTCHAR bd
ENCODING 189
SWIDTH 480 0
DWIDTH 8 0
BBX 8 16 0 -2
BITMAP
00
40
c4
44
48
48
50
1c
32
22
44
48
88
9e
00
00
ENDCHAR
STARTCHAR be
ENCODING 190
SWIDTH 480 0
DWIDTH 8 0
BBX 8 16 0 -2
BITMAP
00
60
92
12
64
14
98
6a
12
16
2a
3f
42
42
00
00
ENDCHAR
STARTCHAR bf
ENCODING 191
SWIDTH 480 0
DWIDTH 8 0
BBX 8 16 0 -2
BITMAP
08
08
00
00
08
08
08
10
20
20
41
41
41
22
1c
00
ENDCHAR
STARTCHAR c0
ENCODING 192
SWIDTH 480 0
DWIDTH 8 0
BBX 8 16 0 -2
BITMAP
30
10
08
10
10
28
28
44
44
7c
82
82
82
82
00
00
ENDCHAR
STARTCHAR c1
ENCODING 193
SWIDTH 480 0
DWIDTH 8 0
BBX 8 16 0 -2
BITMAP
18
10
20
10
10
28
28
44
44
7c
82
82
82
82
00
00
ENDCHAR
STARTCHAR c2
ENCODING 194
SWIDTH 480 0
DWIDTH 8 0
BBX 8 16 0 -2
BITMAP
10
38
44
10
10
28
28
44
44
7c
82
82
82
82
00
00
ENDCHAR
STARTCHAR c3
ENCODING 195
SWIDTH 480 0
DWIDTH 8 0
BBX 8 16 0 -2
BITMAP
34
58
00
10
10
28
28
44
44
7c
82
82
82
82
00
00
ENDCHAR
STARTCHAR c4
ENCODING 196
SWIDTH 480 0
DWIDTH 8 0
BBX 8 16 0 -2
BITMAP
44
44
00
10
10
28
28
44
44
7c
82
82
82
82
00
00
ENDCHAR
STARTCHAR c5
ENCODING 197
SWIDTH 480 0
DWIDTH 8 0
BBX 8 16 0 -2
BITMAP
10
28
10
10
10
28
28
44
44
7c
82
82
82
82
00
00
ENDCHAR
STARTCHAR c6
ENCODING 198
SWIDTH 480 0
DWIDTH 8 0
BBX 8 16 0 -2
BITMAP
00
00
1f
28
28
28
2e
48
48
78
88
88
88
8f
00
00
ENDCHAR
STARTCHAR c7
ENCODING 199
SWIDTH 480 0
DWIDTH 8 0
BBX 8 16 0 -2
BITMAP
00
38
44
42
80
80
80
80
80
80
42
44
38
08
08
10
ENDCHAR
STARTCHAR c8
ENCODING 200
SWIDTH 480 0
DWIDTH 8 0
BBX 8 16 0 -2
BITMAP
30
10
08
fe
80
80
80
fc
80
80
80
80
80
fe
00
00
ENDCHAR
STARTCHAR c9
ENCODING 201
SWIDTH 480 0
DWIDTH 8 0
BBX 8 16 0 -2
BITMAP
18
10
20
fe
80
80
80
fc
80
80
80
80
80
fe
00
00
ENDCHAR
STARTCHAR ca
ENCODING 202
SWIDTH 480 0
DWIDTH 8 0
BBX 8 16 0 -2
BITMAP
10
38
44
fe
80
80
80
fc
80
80
80
80
80
fe
00
00
ENDCHAR
STARTCHAR cb
ENCODING 203
SWIDTH 480 0
DWIDTH 8 0
BBX 8 16 0 -2
BITMAP
44
44
00
fe
80
80
80
fc
80
80
80
80
80
fe
00
00
ENDCHAR
STARTCHAR cc
ENCODING 204
SWIDTH 480 0
DWIDTH 8 0
BBX 8 16 0 -2
BITMAP
30
10
08
38
10
10
10
10
10
10
10
10
10
38
00
00
ENDCHAR
STARTCHAR cd
ENCODING 205
SWIDTH 480 0
DWIDTH 8 0
BBX 8 16 0 -2
BITMAP
18
10
20
38
10
10
10
10
10
10
10
10
10
38
00
00
ENDCHAR
STARTCHAR ce
ENCODING 206
SWIDTH 480 0
DWIDTH 8 0
BBX 8 16 0 -2
BITMAP
10
38
44
38
10
10
10
10
10
10
10
10
10
38
00
00
ENDCHAR
STARTCHAR cf
ENCODING 207
SWIDTH 480 0
DWIDTH 8 0
BBX 8 16 0 -2
BITMAP
44
44
00
38
10
10
10
10
10
10
10
10
10
38
00
00
ENDCHAR
STARTCHAR d0
ENCODING 208
SWIDTH 480 0
DWIDTH 8 0
BBX 8 16 0 -2
BITMAP
00
70
48
44
44
42
42
f2
42
42
44
44
48
70
00
00
ENDCHAR
STARTCHAR d1
ENCODING 209
SWIDTH 480 0
DWIDTH 8 0
BBX 8 16 0 -2
BITMAP
34
58
82
82
c2
c2
a2
a2
92
8a
8a
86
86
82
00
00
ENDCHAR
STARTCHAR d2
ENCODING 210
SWIDTH 480 0
DWIDTH 8 0
BBX 8 16 0 -2
BITMAP
30
10
08
38
44
82
82
82
82
82
82
82
44
38
00
00
ENDCHAR
STARTCHAR d3
ENCODING 211
SWIDTH 480 0
DWIDTH 8 0
BBX 8 16 0 -2
BITMAP
18
10
20
38
44
82
82
82
82
82
82
82
44
38
00
00
ENDCHAR
STARTCHAR d4
ENCODING 212
SWIDTH 480 0
DWIDTH 8 0
BBX 8 16 0 -2
BITMAP
10
38
44
38
44
82
82
82
82
82
82
82
44
38
00
00
ENDCHAR
STARTCHAR d5
ENCODING 213
SWIDTH 480 0
DWIDTH 8 0
BBX 8 16 0 -2
BITMAP
34
58
00
38
44
82
82
82
82
82
82
82
44
38
00
00
ENDCHAR
STARTCHAR d6
ENCODING 214
SWIDTH 480 0
DWIDTH 8 0
BBX 8 16 0 -2
BITMAP
44
44
00
38
44
82
82
82
82
82
82
82
44
38
00
00
ENDCHAR
STARTCHAR d7
ENCODING 215
SWIDTH 480 0
DWIDTH 8 0
BBX 8 16 0 -2
BITMAP
00
00
00
00
81
42
24
18
18
24
42
81
00
00
00
00
ENDCHAR
STARTCHAR d8
ENCODING 216
SWIDTH 480 0
DWIDTH 8 0
BBX 8 16 0 -2
BITMAP
02
02
3c
44
86
8a
8a
92
92
a2
a2
c2
44
78
80
80
ENDCHAR
STARTCHAR d9
ENCODING 217
SWIDTH 480 0
DWIDTH 8 0
BBX 8 16 0 -2
BITMAP
30
10
08
82
82
82
82
82
82
82
82
82
44
38
00
00
ENDCHAR
STARTCHAR da
ENCODING 218
SWIDTH 480 0
DWIDTH 8 0
BBX 8 16 0 -2
BITMAP
18
10
20
82
82
82
82
82
82
82
82
82
44
38
00
00
ENDCHAR
STARTCHAR db
ENCODING 219
SWIDTH 480 0
DWIDTH 8 0
BBX 8 16 0 -2
BITMAP
10
38
44
00
82
82
82
82
82
82
82
82
44
38
00
00
ENDCHAR
STARTCHAR dc
ENCODING 220
SWIDTH 480 0
DWIDTH 8 0
BBX 8 16 0 -2
BITMAP
44
44
00
82
82
82
82
82
82
82
82
82
44
38
00
00
ENDCHAR
STARTCHAR dd
ENCODING 221
SWIDTH 480 0
DWIDTH 8 0
BBX 8 16 0 -2
BITMAP
18
10
a2
82
44
44
28
28
10
10
10
10
10
10
00
00
ENDCHAR
STARTCHAR de
ENCODING 222
SWIDTH 480 0
DWIDTH 8 0
BBX 8 16 0 -2
BITMAP
80
80
f8
84
82
82
84
f8
80
80
80
80
80
80
00
00
ENDCHAR
STARTCHAR df
ENCODING 223
SWIDTH 480 0
DWIDTH 8 0
BBX 8 16 0 -2
BITMAP
00
78
84
82
82
84
b8
84
82
82
82
82
84
b8
00
00
ENDCHAR
STARTCHAR e0
ENCODING 224
SWIDTH 480 0
DWIDTH 8 0
BBX 8 16 0 -2
BITMAP
00
30
10
08
00
3c
42
02
3e
42
82
82
86
7a
00
00
ENDCHAR
STARTCHAR e1
ENCODING 225
SWIDTH 480 0
DWIDTH 8 0
BBX 8 16 0 -2
BITMAP
00
18
10
20
00
3c
42
02
3e
42
82
82
86
7a
00
00
ENDCHAR
STARTCHAR e2
ENCODING 226
SWIDTH 480 0
DWIDTH 8 0
BBX 8 16 0 -2
BITMAP
00
10
38
44
00
3c
42
02
3e
42
82
82
86
7a
00
00
ENDCHAR
STARTCHAR e3
ENCODING 227
SWIDTH 480 0
DWIDTH 8 0
BBX 8 16 0 -2
BITMAP
00
34
58
00
00
3c
42
02
3e
42
82
82
86
7a
00
00
ENDCHAR
STARTCHAR e4
ENCODING 228
SWIDTH 480 0
DWIDTH 8 0
BBX 8 16 0 -2
BITMAP
00
00
24
24
00
3c
42
02
3e
42
82
82
86
7a
00
00
ENDCHAR
STARTCHAR e5
ENCODING 229
SWIDTH 480 0
DWIDTH 8 0
BBX 8 16 0 -2
BITMAP
00
10
28
10
00
3c
42
02
3e
42
82
82
86
7a
00
00
ENDCHAR
STARTCHAR e6
ENCODING 230
SWIDTH 480 0
DWIDTH 8 0
BBX 8 16 0 -2
BITMAP
00
00
00
00
00
6c
92
12
3e
50
90
92
92
6c
00
00
ENDCHAR
STARTCHAR e7
ENCODING 231
SWIDTH 480 0
DWIDTH 8 0
BBX 8 16 0 -2
BITMAP
00
00
00
00
38
44
82
80
80
80
82
44
38
10
10
20
ENDCHAR
STARTCHAR e8
ENCODING 232
SWIDTH 480 0
DWIDTH 8 0
BBX 8 16 0 -2
BITMAP
00
30
10
08
00
38
44
82
82
fe
80
82
44
38
00
00
ENDCHAR
STARTCHAR e9
ENCODING 233
SWIDTH 480 0
DWIDTH 8 0
BBX 8 16 0 -2
BITMAP
00
18
10
20
00
38
44
82
82
fe
80
82
44
38
00
00
ENDCHAR
STARTCHAR ea
ENCODING 234
SWIDTH 480 0
DWIDTH 8 0
BBX 8 16 0 -2
BITMAP
00
10
38
44
00
38
44
82
82
fe
80
82
44
38
00
00
ENDCHAR
STARTCHAR eb
ENCODING 235
SWIDTH 480 0
DWIDTH 8 0
BBX 8 16 0 -2
BITMAP
00
44
44
00
00
38
44
82
82
fe
80
82
44
38
00
00
ENDCHAR
STARTCHAR ec
ENCODING 236
SWIDTH 480 0
DWIDTH 8 0
BBX 8 16 0 -2
BITMAP
00
30
10
08
00
30
10
10
10
10
10
10
10
10
00
00
ENDCHAR
STARTCHAR ed
ENCODING 237
SWIDTH 480 0
DWIDTH 8 0
BBX 8 16 0 -2
BITMAP
00
18
10
20
00
30
10
10
10
10
10
10
10
10
00
00
ENDCHAR
STARTCHAR ee
ENCODING 238
SWIDTH 480 0
DWIDTH 8 0
BBX 8 16 0 -2
BITMAP
00
10
38
44
00
30
10
10
10
10
10
10
10
10
00
00
ENDCHAR
STARTCHAR ef
ENCODING 239
SWIDTH 480 0
DWIDTH 8 0
BBX 8 16 0 -2
BITMAP
00
44
44
00
00
30
10
10
10
10
10
10
10
10
00
00
ENDCHAR
STARTCHAR f0
ENCODING 240
SWIDTH 480 0
DWIDTH 8 0
BBX 8 16 0 -2
BITMAP
00
64
18
30
48
38
44
82
82
82
82
82
44
38
00
00
ENDCHAR
STARTCHAR f1
ENCODING 241
SWIDTH 480 0
DWIDTH 8 0
BBX 8 16 0 -2
BITMAP
00
34
58
00
00
5c
62
42
42
42
42
42
42
42
00
00
ENDCHAR
STARTCHAR f2
ENCODING 242
SWIDTH 480 0
DWIDTH 8 0
BBX 8 16 0 -2
BITMAP
00
30
10
08
00
38
44
82
82
82
82
82
44
38
00
00
ENDCHAR
STARTCHAR f3
ENCODING 243
SWIDTH 480 0
DWIDTH 8 0
BBX 8 16 0 -2
BITMAP
00
18
10
20
00
38
44
82
82
82
82
82
44
38
00
00
ENDCHAR
STARTCHAR f4
ENCODING 244
SWIDTH 480 0
DWIDTH 8 0
BBX 8 16 0 -2
BITMAP
00
10
38
44
00
38
44
82
82
82
82
82
44
38
00
00
ENDCHAR
STARTCHAR f5
ENCODING 245
SWIDTH 480 0
DWIDTH 8 0
BBX 8 16 0 -2
BITMAP
00
34
58
00
00
38
44
82
82
82
82
82
44
38
00
00
ENDCHAR
STARTCHAR f6
ENCODING 246
SWIDTH 480 0
DWIDTH 8 0
BBX 8 16 0 -2
BITMAP
00
44
44
00
00
38
44
82
82
82
82
82
44
38
00
00
ENDCHAR
STARTCHAR f7
ENCODING 247
SWIDTH 480 0
DWIDTH 8 0
BBX 8 16 0 -2
BITMAP
00
00
00
00
00
10
10
00
fe
00
10
10
00
00
00
00
ENDCHAR
STARTCHAR f8
ENCODING 248
SWIDTH 480 0
DWIDTH 8 0
BBX 8 16 0 -2
BITMAP
00
00
00
00
00
3a
44
8a
8a
92
a2
a2
44
b8
00
00
ENDCHAR
STARTCHAR f9
ENCODING 249
SWIDTH 480 0
DWIDTH 8 0
BBX 8 16 0 -2
BITMAP
00
30
10
08
00
42
42
42
42
42
42
42
46
3a
00
00
ENDCHAR
STARTCHAR fa
ENCODING 250
SWIDTH 480 0
DWIDTH 8 0
BBX 8 16 0 -2
BITMAP
00
18
10
20
00
42
42
42
42
42
42
42
46
3a
00
00
ENDCHAR
STARTCHAR fb
ENCODING 251
SWIDTH 480 0
DWIDTH 8 0
BBX 8 16 0 -2
BITMAP
00
10
38
44
00
42
42
42
42
42
42
42
46
3a
00
00
ENDCHAR
STARTCHAR fc
ENCODING 252
SWIDTH 480 0
DWIDTH 8 0
BBX 8 16 0 -2
BITMAP
00
24
24
00
00
42
42
42
42
42
42
42
46
3a
00
00
ENDCHAR
STARTCHAR fd
ENCODING 253
SWIDTH 480 0
DWIDTH 8 0
BBX 8 16 0 -2
BITMAP
00
0c
08
10
00
42
42
22
24
14
08
08
10
10
20
40
ENDCHAR
STARTCHAR fe
ENCODING 254
SWIDTH 480 0
DWIDTH 8 0
BBX 8 16 0 -2
BITMAP
00
00
40
40
40
78
44
42
42
42
44
78
40
40
40
40
ENDCHAR
STARTCHAR ff
ENCODING 255
SWIDTH 480 0
DWIDTH 8 0
BBX 8 16 0 -2
BITMAP
00
24
24
00
00
42
42
22
24
14
08
08
10
10
20
40
ENDCHAR
STARTCHAR 203e
ENCODING 8254
SWIDTH 480 0
DWIDTH 8 0
BBX 8 16 0 -2
BITMAP
ff
00
00
00
00
00
00
00
00
00
00
00
00
00
00
00
ENDCHAR
STARTCHAR ff61
ENCODING 65377
SWIDTH 480 0
DWIDTH 8 0
BBX 8 16 0 -2
BITMAP
00
00
00
00
00
00
00
00
00
00
00
20
50
50
20
00
ENDCHAR
STARTCHAR ff62
ENCODING 65378
SWIDTH 480 0
DWIDTH 8 0
BBX 8 16 0 -2
BITMAP
00
3e
20
20
20
20
20
20
20
20
00
00
00
00
00
00
ENDCHAR
STARTCHAR ff63
ENCODING 65379
SWIDTH 480 0
DWIDTH 8 0
BBX 8 16 0 -2
BITMAP
00
00
00
00
00
00
10
10
10
10
10
10
10
10
f0
00
ENDCHAR
STARTCHAR ff64
ENCODING 65380
SWIDTH 480 0
DWIDTH 8 0
BBX 8 16 0 -2
BITMAP
00
00
00
00
00
00
00
00
00
00
00
00
20
10
10
00
ENDCHAR
STARTCHAR ff65
ENCODING 65381
SWIDTH 480 0
DWIDTH 8 0
BBX 8 16 0 -2
BITMAP
00
00
00
00
00
00
00
18
18
00
00
00
00
00
00
00
ENDCHAR
STARTCHAR ff66
ENCODING 65382
SWIDTH 480 0
DWIDTH 8 0
BBX 8 16 0 -2
BITMAP
00
00
7e
02
02
02
7e
04
04
08
08
10
20
40
00
00
ENDCHAR
STARTCHAR ff67
ENCODING 65383
SWIDTH 480 0
DWIDTH 8 0
BBX 8 16 0 -2
BITMAP
00
00
00
00
00
00
00
fc
24
28
30
20
40
40
80
00
ENDCHAR
STARTCHAR ff68
ENCODING 65384
SWIDTH 480 0
DWIDTH 8 0
BBX 8 16 0 -2
BITMAP
00
00
00
00
00
00
08
08
10
30
50
90
10
10
10
00
ENDCHAR
STARTCHAR ff69
ENCODING 65385
SWIDTH 480 0
DWIDTH 8 0
BBX 8 16 0 -2
BITMAP
00
00
00
00
00
00
20
20
fc
84
84
88
08
10
20
00
ENDCHAR
STARTCHAR ff6a
ENCODING 65386
SWIDTH 480 0
DWIDTH 8 0
BBX 8 16 0 -2
BITMAP
00
00
00
00
00
00
00
00
7c
10
10
10
10
fe
00
00
ENDCHAR
STARTCHAR ff6b
ENCODING 65387
SWIDTH 480 0
DWIDTH 8 0
BBX 8 16 0 -2
BITMAP
00
00
00
00
00
00
08
08
fe
08
18
28
48
88
18
00
ENDCHAR
STARTCHAR ff6c
ENCODING 65388
SWIDTH 480 0
DWIDTH 8 0
BBX 8 16 0 -2
BITMAP
00
00
00
00
00
00
40
20
3e
e4
28
10
10
10
00
00
ENDCHAR
STARTCHAR ff6d
ENCODING 65389
SWIDTH 480 0
DWIDTH 8 0
BBX 8 16 0 -2
BITMAP
00
00
00
00
00
00
00
00
78
08
08
08
fe
00
00
00
ENDCHAR
STARTCHAR ff6e
ENCODING 65390
SWIDTH 480 0
DWIDTH 8 0
BBX 8 16 0 -2
BITMAP
00
00
00
00
00
00
00
7c
04
04
7c
04
04
7c
00
00
ENDCHAR
STARTCHAR ff6f
ENCODING 65391
SWIDTH 480 0
DWIDTH 8 0
BBX 8 16 0 -2
BITMAP
00
00
00
00
00
00
24
94
54
44
08
08
10
20
00
00
ENDCHAR
STARTCHAR ff70
ENCODING 65392
SWIDTH 480 0
DWIDTH 8 0
BBX 8 16 0 -2
BITMAP
00
00
00
00
00
00
3c
00
00
00
00
00
00
00
00
00
ENDCHAR
STARTCHAR ff71
ENCODING 65393
SWIDTH 480 0
DWIDTH 8 0
BBX 8 16 0 -2
BITMAP
00
00
fe
02
12
12
14
18
10
10
20
20
40
80
00
00
ENDCHAR
STARTCHAR ff72
ENCODING 65394
SWIDTH 480 0
DWIDTH 8 0
BBX 8 16 0 -2
BITMAP
00
02
02
04
04
08
18
28
48
88
08
08
08
08
00
00
ENDCHAR
STARTCHAR ff73
ENCODING 65395
SWIDTH 480 0
DWIDTH 8 0
BBX 8 16 0 -2
BITMAP
00
10
10
10
fe
82
82
82
82
04
04
08
10
20
00
00
ENDCHAR
STARTCHAR ff74
ENCODING 65396
SWIDTH 480 0
DWIDTH 8 0
BBX 8 16 0 -2
BITMAP
00
00
00
fe
10
10
10
10
10
10
10
10
ff
00
00
00
ENDCHAR
STARTCHAR ff75
ENCODING 65397
SWIDTH 480 0
DWIDTH 8 0
BBX 8 16 0 -2
BITMAP
00
08
08
08
fe
08
18
18
28
28
48
88
08
18
00
00
ENDCHAR
STARTCHAR ff76
ENCODING 65398
SWIDTH 480 0
DWIDTH 8 0
BBX 8 16 0 -2
BITMAP
00
10
10
10
fe
12
12
12
12
22
22
22
42
8c
00
00
ENDCHAR
STARTCHAR ff77
ENCODING 65399
SWIDTH 480 0
DWIDTH 8 0
BBX 8 16 0 -2
BITMAP
00
20
20
3c
e0
10
10
1e
f0
08
08
08
08
08
00
00
ENDCHAR
STARTCHAR ff78
ENCODING 65400
SWIDTH 480 0
DWIDTH 8 0
BBX 8 16 0 -2
BITMAP
00
20
20
3e
22
22
42
44
84
08
08
10
20
40
00
00
ENDCHAR
STARTCHAR ff79
ENCODING 65401
SWIDTH 480 0
DWIDTH 8 0
BBX 8 16 0 -2
BITMAP
00
40
40
40
7e
48
48
48
88
08
10
10
20
40
00
00
ENDCHAR
STARTCHAR ff7a
ENCODING 65402
SWIDTH 480 0
DWIDTH 8 0
BBX 8 16 0 -2
BITMAP
00
00
00
fe
02
02
02
02
02
02
02
fe
02
00
00
00
ENDCHAR
STARTCHAR ff7b
ENCODING 65403
SWIDTH 480 0
DWIDTH 8 0
BBX 8 16 0 -2
BITMAP
00
24
24
24
24
fe
24
24
24
24
04
08
10
20
00
00
ENDCHAR
STARTCHAR ff7c
ENCODING 65404
SWIDTH 480 0
DWIDTH 8 0
BBX 8 16 0 -2
BITMAP
00
00
60
10
00
00
c2
22
04
04
08
10
20
c0
00
00
ENDCHAR
STARTCHAR ff7d
ENCODING 65405
SWIDTH 480 0
DWIDTH 8 0
BBX 8 16 0 -2
BITMAP
00
00
00
fe
04
04
04
08
08
18
14
24
42
82
00
00
ENDCHAR
STARTCHAR ff7e
ENCODING 65406
SWIDTH 480 0
DWIDTH 8 0
BBX 8 16 0 -2
BITMAP
00
40
40
40
40
4e
72
c4
48
40
40
40
40
3e
00
00
ENDCHAR
STARTCHAR ff7f
ENCODING 65407
SWIDTH 480 0
DWIDTH 8 0
BBX 8 16 0 -2
BITMAP
00
00
02
82
42
42
42
04
04
08
08
10
20
40
00
00
ENDCHAR
STARTCHAR ff80
ENCODING 65408
SWIDTH 480 0
DWIDTH 8 0
BBX 8 16 0 -2
BITMAP
00
20
20
3e
22
42
62
54
8c
08
08
10
20
40
00
00
ENDCHAR
STARTCHAR ff81
ENCODING 65409
SWIDTH 480 0
DWIDTH 8 0
BBX 8 16 0 -2
BITMAP
00
02
0c
78
08
08
ff
08
08
08
08
10
20
40
00
00
ENDCHAR
STARTCHAR ff82
ENCODING 65410
SWIDTH 480 0
DWIDTH 8 0
BBX 8 16 0 -2
BITMAP
00
00
20
22
92
92
42
44
04
08
08
10
20
40
00
00
ENDCHAR
STARTCHAR ff83
ENCODING 65411
SWIDTH 480 0
DWIDTH 8 0
BBX 8 16 0 -2
BITMAP
00
00
7e
00
00
00
fe
08
08
08
08
10
20
40
00
00
ENDCHAR
STARTCHAR ff84
ENCODING 65412
SWIDTH 480 0
DWIDTH 8 0
BBX 8 16 0 -2
BITMAP
00
20
20
20
20
30
28
24
22
22
20
20
20
20
00
00
ENDCHAR
STARTCHAR ff85
ENCODING 65413
SWIDTH 480 0
DWIDTH 8 0
BBX 8 16 0 -2
BITMAP
00
08
08
08
fe
08
08
08
08
08
10
10
20
40
00
00
ENDCHAR
STARTCHAR ff86
ENCODING 65414
SWIDTH 480 0
DWIDTH 8 0
BBX 8 16 0 -2
BITMAP
00
00
00
7c
00
00
00
00
00
00
00
ff
00
00
00
00
ENDCHAR
STARTCHAR ff87
ENCODING 65415
SWIDTH 480 0
DWIDTH 8 0
BBX 8 16 0 -2
BITMAP
00
00
7e
02
02
24
14
08
0c
14
12
22
40
80
00
00
ENDCHAR
STARTCHAR ff88
ENCODING 65416
SWIDTH 480 0
DWIDTH 8 0
BBX 8 16 0 -2
BITMAP
10
10
10
fe
04
04
08
18
34
52
92
10
10
10
00
00
ENDCHAR
STARTCHAR ff89
ENCODING 65417
SWIDTH 480 0
DWIDTH 8 0
BBX 8 16 0 -2
BITMAP
00
02
02
02
04
04
04
08
08
10
20
40
80
00
00
00
ENDCHAR
STARTCHAR ff8a
ENCODING 65418
SWIDTH 480 0
DWIDTH 8 0
BBX 8 16 0 -2
BITMAP
00
00
08
08
24
24
24
22
22
22
22
42
42
82
00
00
ENDCHAR
STARTCHAR ff8b
ENCODING 65419
SWIDTH 480 0
DWIDTH 8 0
BBX 8 16 0 -2
BITMAP
00
40
40
40
42
4c
70
40
40
40
40
40
40
3e
00
00
ENDCHAR
STARTCHAR ff8c
ENCODING 65420
SWIDTH 480 0
DWIDTH 8 0
BBX 8 16 0 -2
BITMAP
00
00
fe
02
02
02
02
04
04
08
08
10
20
40
00
00
ENDCHAR
STARTCHAR ff8d
ENCODING 65421
SWIDTH 480 0
DWIDTH 8 0
BBX 8 16 0 -2
BITMAP
00
00
20
20
50
50
88
88
04
02
01
00
00
00
00
00
ENDCHAR
STARTCHAR ff8e
ENCODING 65422
SWIDTH 480 0
DWIDTH 8 0
BBX 8 16 0 -2
BITMAP
00
10
10
10
fe
10
18
54
54
52
52
92
10
30
00
00
ENDCHAR
STARTCHAR ff8f
ENCODING 65423
SWIDTH 480 0
DWIDTH 8 0
BBX 8 16 0 -2
BITMAP
00
00
00
fe
02
02
04
04
c8
30
10
08
04
04
00
00
ENDCHAR
STARTCHAR ff90
ENCODING 65424
SWIDTH 480 0
DWIDTH 8 0
BBX 8 16 0 -2
BITMAP
00
60
18
04
00
00
60
18
04
00
e0
18
04
02
00
00
ENDCHAR
STARTCHAR ff91
ENCODING 65425
SWIDTH 480 0
DWIDTH 8 0
BBX 8 16 0 -2
BITMAP
00
10
10
10
10
10
10
28
24
24
22
4e
f2
02
00
00
ENDCHAR
STARTCHAR ff92
ENCODING 65426
SWIDTH 480 0
DWIDTH 8 0
BBX 8 16 0 -2
BITMAP
00
04
04
04
04
64
18
08
0c
12
10
20
40
80
00
00
ENDCHAR
STARTCHAR ff93
ENCODING 65427
SWIDTH 480 0
DWIDTH 8 0
BBX 8 16 0 -2
BITMAP
00
00
fe
20
20
20
fe
20
20
20
20
20
1e
00
00
00
ENDCHAR
STARTCHAR ff94
ENCODING 65428
SWIDTH 480 0
DWIDTH 8 0
BBX 8 16 0 -2
BITMAP
00
20
20
20
17
39
d2
12
0c
08
08
04
04
04
00
00
ENDCHAR
STARTCHAR ff95
ENCODING 65429
SWIDTH 480 0
DWIDTH 8 0
BBX 8 16 0 -2
BITMAP
00
00
00
00
7c
04
04
04
04
04
04
04
ff
00
00
00
ENDCHAR
STARTCHAR ff96
ENCODING 65430
SWIDTH 480 0
DWIDTH 8 0
BBX 8 16 0 -2
BITMAP
00
00
fe
02
02
02
02
7e
02
02
02
02
02
fe
00
00
ENDCHAR
STARTCHAR ff97
ENCODING 65431
SWIDTH 480 0
DWIDTH 8 0
BBX 8 16 0 -2
BITMAP
00
00
7c
00
00
00
fe
02
02
04
04
08
10
60
00
00
ENDCHAR
STARTCHAR ff98
ENCODING 65432
SWIDTH 480 0
DWIDTH 8 0
BBX 8 16 0 -2
BITMAP
00
04
44
44
44
44
44
44
44
04
08
08
10
20
00
00
ENDCHAR
STARTCHAR ff99
ENCODING 65433
SWIDTH 480 0
DWIDTH 8 0
BBX 8 16 0 -2
BITMAP
00
08
08
28
28
28
28
29
29
2a
4a
4c
48
80
00
00
ENDCHAR
STARTCHAR ff9a
ENCODING 65434
SWIDTH 480 0
DWIDTH 8 0
BBX 8 16 0 -2
BITMAP
00
00
40
40
40
40
40
40
42
44
44
48
50
60
00
00
ENDCHAR
STARTCHAR ff9b
ENCODING 65435
SWIDTH 480 0
DWIDTH 8 0
BBX 8 16 0 -2
BITMAP
00
00
00
fe
82
82
82
82
82
82
82
fe
82
00
00
00
ENDCHAR
STARTCHAR ff9c
ENCODING 65436
SWIDTH 480 0
DWIDTH 8 0
BBX 8 16 0 -2
BITMAP
00
00
00
fe
82
82
82
82
02
04
04
08
10
20
00
00
ENDCHAR
STARTCHAR ff9d
ENCODING 65437
SWIDTH 480 0
DWIDTH 8 0
BBX 8 16 0 -2
BITMAP
00
00
00
c0
20
02
02
02
04
04
08
10
20
c0
00
00
ENDCHAR
STARTCHAR ff9e
ENCODING 65438
SWIDTH 480 0
DWIDTH 8 0
BBX 8 16 0 -2
BITMAP
00
90
48
48
00
00
00
00
00
00
00
00
00
00
00
00
ENDCHAR
STARTCHAR ff9f
ENCODING 65439
SWIDTH 480 0
DWIDTH 8 0
BBX 8 16 0 -2
BITMAP
00
60
90
90
60
00
00
00
00
00
00
00
00
00
00
00
ENDCHAR
STARTCHAR U+00a0
ENCODING 160
SWIDTH 480 0
DWIDTH 8 0
BBX 8 16 0 -2
BITMAP
00
00
00
00
00
00
00
00
00
00
00
00
00
00
00
00
ENDCHAR
STARTCHAR U+0100
ENCODING 256
SWIDTH 480 0
DWIDTH 8 0
BBX 8 16 0 -2
BITMAP
00
7c
00
10
10
28
28
44
44
7c
82
82
82
82
00
00
ENDCHAR
STARTCHAR U+0101
ENCODING 257
SWIDTH 480 0
DWIDTH 8 0
BBX 8 16 0 -2
BITMAP
00
00
00
7c
00
3c
42
02
3e
42
82
82
86
7a
00
00
ENDCHAR
STARTCHAR U+0102
ENCODING 258
SWIDTH 480 0
DWIDTH 8 0
BBX 8 16 0 -2
BITMAP
44
38
00
10
10
28
28
44
44
7c
82
82
82
82
00
00
ENDCHAR
STARTCHAR U+0103
ENCODING 259
SWIDTH 480 0
DWIDTH 8 0
BBX 8 16 0 -2
BITMAP
00
00
44
38
00
3c
40
00
3c
42
82
82
86
7a
00
00
ENDCHAR
STARTCHAR U+0104
ENCODING 260
SWIDTH 480 0
DWIDTH 8 0
BBX 8 16 0 -2
BITMAP
00
10
10
28
28
28
44
44
44
7c
82
82
84
84
04
02
ENDCHAR
STARTCHAR U+0105
ENCODING 261
SWIDTH 480 0
DWIDTH 8 0
BBX 8 16 0 -2
BITMAP
00
00
00
00
00
38
44
02
22
42
82
82
86
7a
08
06
ENDCHAR
STARTCHAR U+0106
ENCODING 262
SWIDTH 480 0
DWIDTH 8 0
BBX 8 16 0 -2
BITMAP
18
10
20
38
44
82
80
80
80
80
80
82
44
38
00
00
ENDCHAR
STARTCHAR U+0107
ENCODING 263
SWIDTH 480 0
DWIDTH 8 0
BBX 8 16 0 -2
BITMAP
00
18
10
00
00
38
44
82
80
80
80
82
44
38
00
00
ENDCHAR
STARTCHAR U+0108
ENCODING 264
SWIDTH 480 0
DWIDTH 8 0
BBX 8 16 0 -2
BITMAP
10
38
44
38
44
82
80
80
80
80
80
82
44
38
00
00
ENDCHAR
STARTCHAR U+0109
ENCODING 265
SWIDTH 480 0
DWIDTH 8 0
BBX 8 16 0 -2
BITMAP
00
10
38
44
00
38
46
80
80
80
80
82
44
38
00
00
ENDCHAR
STARTCHAR U+010a
ENCODING 266
SWIDTH 480 0
DWIDTH 8 0
BBX 8 16 0 -2
BITMAP
10
10
00
38
46
80
80
80
80
80
80
82
44
38
00
00
ENDCHAR
STARTCHAR U+010b
ENCODING 267
SWIDTH 480 0
DWIDTH 8 0
BBX 8 16 0 -2
BITMAP
00
00
00
00
00
38
44
82
80
80
80
82
44
38
00
00
ENDCHAR
STARTCHAR U+010c
ENCODING 268
SWIDTH 480 0
DWIDTH 8 0
BBX 8 16 0 -2
BITMAP
34
18
00
38
44
82
80
80
80
80
80
82
44
38
00
00
ENDCHAR
STARTCHAR U+010d
ENCODING 269
SWIDTH 480 0
DWIDTH 8 0
BBX 8 16 0 -2
BITMAP
00
24
18
08
00
38
44
82
80
80
80
82
44
38
00
00
ENDCHAR
STARTCHAR U+010e
ENCODING 270
SWIDTH 480 0
DWIDTH 8 0
BBX 8 16 0 -2
BITMAP
44
38
00
f8
84
82
82
82
82
82
84
84
88
f0
00
00
ENDCHAR
STARTCHAR U+010f
ENCODING 271
SWIDTH 480 0
DWIDTH 8 0
BBX 8 16 0 -2
BITMAP
00
24
18
02
02
3a
46
42
42
42
42
42
46
3a
00
00
ENDCHAR
STARTCHAR U+0110
ENCODING 272
SWIDTH 480 0
DWIDTH 8 0
BBX 8 16 0 -2
BITMAP
00
70
48
44
44
42
42
e2
42
42
44
44
48
f0
00
00
ENDCHAR
STARTCHAR U+0111
ENCODING 273
SWIDTH 480 0
DWIDTH 8 0
BBX 8 16 0 -2
BITMAP
00
00
02
0f
02
3a
46
82
82
82
82
82
46
3a
00
00
ENDCHAR
STARTCHAR U+0112
ENCODING 274
SWIDTH 480 0
DWIDTH 8 0
BBX 8 16 0 -2
BITMAP
00
7c
00
fe
80
80
80
fc
80
80
80
80
80
fe
00
00
ENDCHAR
STARTCHAR U+0113
ENCODING 275
SWIDTH 480 0
DWIDTH 8 0
BBX 8 16 0 -2
BITMAP
00
00
00
7c
00
38
44
82
82
fe
80
82
44
38
00
00
ENDCHAR
STARTCHAR U+0114
ENCODING 276
SWIDTH 480 0
DWIDTH 8 0
BBX 8 16 0 -2
BITMAP
44
38
00
fe
80
80
80
fc
80
80
80
80
80
fe
00
00
ENDCHAR
STARTCHAR U+0115
ENCODING 277
SWIDTH 480 0
DWIDTH 8 0
BBX 8 16 0 -2
BITMAP
00
00
44
38
00
38
44
82
82
fe
80
82
44
38
00
00
ENDCHAR
STARTCHAR U+0116
ENCODING 278
SWIDTH 480 0
DWIDTH 8 0
BBX 8 16 0 -2
BITMAP
10
10
00
fe
80
80
80
fc
80
80
80
80
80
fe
00
00
ENDCHAR
STARTCHAR U+0117
ENCODING 279
SWIDTH 480 0
DWIDTH 8 0
BBX 8 16 0 -2
BITMAP
00
00
00
20
00
38
44
82
82
fe
80
82
44
38
00
00
ENDCHAR
STARTCHAR U+0118
ENCODING 280
SWIDTH 480 0
DWIDTH 8 0
BBX 8 16 0 -2
BITMAP
00
fe
80
80
80
80
80
fc
80
80
80
80
80
fe
20
1e
ENDCHAR
STARTCHAR U+0119
ENCODING 281
SWIDTH 480 0
DWIDTH 8 0
BBX 8 16 0 -2
BITMAP
00
00
00
00
00
38
44
82
82
fe
80
82
44
38
00
1c
ENDCHAR
STARTCHAR U+011a
ENCODING 282
SWIDTH 480 0
DWIDTH 8 0
BBX 8 16 0 -2
BITMAP
38
10
00
fe
80
80
80
fc
80
80
80
80
80
fe
00
00
ENDCHAR
STARTCHAR U+011b
ENCODING 283
SWIDTH 480 0
DWIDTH 8 0
BBX 8 16 0 -2
BITMAP
00
20
14
08
00
38
44
82
82
fe
80
82
44
38
00
00
ENDCHAR
STARTCHAR U+011c
ENCODING 284
SWIDTH 480 0
DWIDTH 8 0
BBX 8 16 0 -2
BITMAP
10
38
44
38
44
82
80
80
86
82
82
82
44
38
00
00
ENDCHAR
STARTCHAR U+011d
ENCODING 285
SWIDTH 480 0
DWIDTH 8 0
BBX 8 16 0 -2
BITMAP
00
00
18
24
00
3a
44
44
44
38
40
78
84
82
82
7c
ENDCHAR
STARTCHAR U+011e
ENCODING 286
SWIDTH 480 0
DWIDTH 8 0
BBX 8 16 0 -2
BITMAP
44
38
00
38
44
82
80
80
86
82
82
82
44
38
00
00
ENDCHAR
STARTCHAR U+011f
ENCODING 287
SWIDTH 480 0
DWIDTH 8 0
BBX 8 16 0 -2
BITMAP
00
82
44
18
00
3a
44
44
44
38
40
78
84
82
82
7c
ENDCHAR
STARTCHAR U+0120
ENCODING 288
SWIDTH 480 0
DWIDTH 8 0
BBX 8 16 0 -2
BITMAP
10
10
00
38
44
82
80
80
86
82
82
82
44
38
00
00
ENDCHAR
STARTCHAR U+0121
ENCODING 289
SWIDTH 480 0
DWIDTH 8 0
BBX 8 16 0 -2
BITMAP
00
00
00
18
00
3b
44
44
44
38
40
78
84
82
82
7c
ENDCHAR
STARTCHAR U+0122
ENCODING 290
SWIDTH 480 0
DWIDTH 8 0
BBX 8 16 0 -2
BITMAP
00
38
44
42
40
40
40
40
46
42
42
42
38
08
08
10
ENDCHAR
STARTCHAR U+0123
ENCODING 291
SWIDTH 480 0
DWIDTH 8 0
BBX 8 16 0 -2
BITMAP
00
18
10
18
00
3a
44
44
44
38
40
78
84
82
82
7c
ENDCHAR
STARTCHAR U+0124
ENCODING 292
SWIDTH 480 0
DWIDTH 8 0
BBX 8 16 0 -2
BITMAP
10
38
44
82
82
82
82
fe
82
82
82
82
82
82
00
00
ENDCHAR
STARTCHAR U+0125
ENCODING 293
SWIDTH 480 0
DWIDTH 8 0
BBX 8 16 0 -2
BITMAP
10
38
44
80
80
80
80
fc
80
82
82
82
82
82
00
00
ENDCHAR
STARTCHAR U+0126
ENCODING 294
SWIDTH 480 0
DWIDTH 8 0
BBX 8 16 0 -2
BITMAP
00
00
00
42
42
ff
42
7e
42
42
42
42
42
42
00
00
ENDCHAR
STARTCHAR U+0127
ENCODING 295
SWIDTH 480 0
DWIDTH 8 0
BBX 8 16 0 -2
BITMAP
00
00
40
f8
40
5c
42
42
42
42
42
42
42
42
00
00
ENDCHAR
STARTCHAR U+0128
ENCODING 296
SWIDTH 480 0
DWIDTH 8 0
BBX 8 16 0 -2
BITMAP
34
58
00
38
10
10
10
10
10
10
10
10
10
38
00
00
ENDCHAR
STARTCHAR U+0129
ENCODING 297
SWIDTH 480 0
DWIDTH 8 0
BBX 8 16 0 -2
BITMAP
00
00
34
58
00
30
10
10
10
10
10
10
10
10
00
00
ENDCHAR
STARTCHAR U+012a
ENCODING 298
SWIDTH 480 0
DWIDTH 8 0
BBX 8 16 0 -2
BITMAP
00
7c
00
38
10
10
10
10
10
10
10
10
10
38
00
00
ENDCHAR
STARTCHAR U+012b
ENCODING 299
SWIDTH 480 0
DWIDTH 8 0
BBX 8 16 0 -2
BITMAP
00
00
00
7c
00
30
10
10
10
10
10
10
10
38
00
00
ENDCHAR
STARTCHAR U+012c
ENCODING 300
SWIDTH 480 0
DWIDTH 8 0
BBX 8 16 0 -2
BITMAP
44
38
00
38
10
10
10
10
10
10
10
10
10
38
00
00
ENDCHAR
STARTCHAR U+012d
ENCODING 301
SWIDTH 480 0
DWIDTH 8 0
BBX 8 16 0 -2
BITMAP
00
00
44
38
00
30
10
10
10
10
10
10
10
38
00
00
ENDCHAR
STARTCHAR U+012e
ENCODING 302
SWIDTH 480 0
DWIDTH 8 0
BBX 8 16 0 -2
BITMAP
00
00
7c
10
10
10
10
10
10
10
10
10
10
10
00
18
ENDCHAR
STARTCHAR U+012f
ENCODING 303
SWIDTH 480 0
DWIDTH 8 0
BBX 8 16 0 -2
BITMAP
00
00
00
00
00
30
10
10
10
10
10
10
10
10
00
18
ENDCHAR
STARTCHAR U+0130
ENCODING 304
SWIDTH 480 0
DWIDTH 8 0
BBX 8 16 0 -2
BITMAP
10
10
00
38
10
10
10
10
10
10
10
10
10
38
00
00
ENDCHAR
STARTCHAR U+0131
ENCODING 305
SWIDTH 480 0
DWIDTH 8 0
BBX 8 16 0 -2
BITMAP
00
00
00
00
00
30
10
10
10
10
10
10
10
38
00
00
ENDCHAR
STARTCHAR U+0132
ENCODING 306
SWIDTH 480 0
DWIDTH 8 0
BBX 8 16 0 -2
BITMAP
00
86
86
82
82
82
82
82
82
82
a4
a4
88
90
00
00
ENDCHAR
STARTCHAR U+0133
ENCODING 307
SWIDTH 480 0
DWIDTH 8 0
BBX 8 16 0 -2
BITMAP
00
00
00
42
00
46
42
42
42
42
42
42
42
42
02
0c
ENDCHAR
STARTCHAR U+0134
ENCODING 308
SWIDTH 480 0
DWIDTH 8 0
BBX 8 16 0 -2
BITMAP
10
18
24
3e
08
08
08
08
08
08
88
88
70
00
00
00
ENDCHAR
STARTCHAR U+0135
ENCODING 309
SWIDTH 480 0
DWIDTH 8 0
BBX 8 16 0 -2
BITMAP
00
18
24
02
00
18
08
08
08
08
08
08
08
08
10
60
ENDCHAR
STARTCHAR U+0136
ENCODING 310
SWIDTH 480 0
DWIDTH 8 0
BBX 8 16 0 -2
BITMAP
00
82
82
84
84
88
58
68
64
84
82
82
91
91
20
40
ENDCHAR
STARTCHAR U+0137
ENCODING 311
SWIDTH 480 0
DWIDTH 8 0
BBX 8 16 0 -2
BITMAP
00
40
40
40
40
42
44
48
50
68
44
44
42
42
20
40
ENDCHAR
STARTCHAR U+0138
ENCODING 312
SWIDTH 480 0
DWIDTH 8 0
BBX 8 16 0 -2
BITMAP
00
00
00
00
00
82
84
88
90
e8
84
84
82
82
00
00
ENDCHAR
STARTCHAR U+0139
ENCODING 313
SWIDTH 480 0
DWIDTH 8 0
BBX 8 16 0 -2
BITMAP
18
10
20
80
80
80
80
80
80
80
80
80
80
fe
00
00
ENDCHAR
STARTCHAR U+013a
ENCODING 314
SWIDTH 480 0
DWIDTH 8 0
BBX 8 16 0 -2
BITMAP
18
10
20
30
10
10
10
10
10
10
10
10
10
38
00
00
ENDCHAR
STARTCHAR U+013b
ENCODING 315
SWIDTH 480 0
DWIDTH 8 0
BBX 8 16 0 -2
BITMAP
00
00
80
80
80
80
80
80
80
80
80
80
fe
30
30
60
ENDCHAR
STARTCHAR U+013c
ENCODING 316
SWIDTH 480 0
DWIDTH 8 0
BBX 8 16 0 -2
BITMAP
00
30
10
10
10
10
10
10
10
10
10
10
30
10
20
60
ENDCHAR
STARTCHAR U+013d
ENCODING 317
SWIDTH 480 0
DWIDTH 8 0
BBX 8 16 0 -2
BITMAP
38
10
00
80
80
80
80
80
80
80
80
80
80
fe
00
00
ENDCHAR
STARTCHAR U+013e
ENCODING 318
SWIDTH 480 0
DWIDTH 8 0
BBX 8 16 0 -2
BITMAP
48
30
00
30
10
10
10
10
10
10
10
10
10
38
00
00
ENDCHAR
STARTCHAR U+013f
ENCODING 319
SWIDTH 480 0
DWIDTH 8 0
BBX 8 16 0 -2
BITMAP
00
00
80
80
80
80
88
88
80
80
80
80
80
fe
00
00
ENDCHAR
STARTCHAR U+0140
ENCODING 320
SWIDTH 480 0
DWIDTH 8 0
BBX 8 16 0 -2
BITMAP
00
30
10
10
10
10
12
12
10
10
10
10
10
38
00
00
ENDCHAR
STARTCHAR U+0141
ENCODING 321
SWIDTH 480 0
DWIDTH 8 0
BBX 8 16 0 -2
BITMAP
00
00
40
40
40
50
60
40
c0
40
40
40
40
7e
00
00
ENDCHAR
STARTCHAR U+0142
ENCODING 322
SWIDTH 480 0
DWIDTH 8 0
BBX 8 16 0 -2
BITMAP
00
30
10
10
10
10
18
30
10
10
10
10
10
38
00
00
ENDCHAR
STARTCHAR U+0143
ENCODING 323
SWIDTH 480 0
DWIDTH 8 0
BBX 8 16 0 -2
BITMAP
18
10
20
82
c2
c2
a2
a2
92
8a
8a
86
86
82
00
00
ENDCHAR
STARTCHAR U+0144
ENCODING 324
SWIDTH 480 0
DWIDTH 8 0
BBX 8 16 0 -2
BITMAP
00
00
10
20
00
bc
c2
82
82
82
82
82
82
82
00
00
ENDCHAR
STARTCHAR U+0145
ENCODING 325
SWIDTH 480 0
DWIDTH 8 0
BBX 8 16 0 -2
BITMAP
00
82
82
c2
a2
a2
92
92
92
8a
8a
86
86
82
20
40
ENDCHAR
STARTCHAR U+0146
ENCODING 326
SWIDTH 480 0
DWIDTH 8 0
BBX 8 16 0 -2
BITMAP
00
00
00
00
00
5c
62
42
42
42
42
42
42
42
20
40
ENDCHAR
STARTCHAR U+0147
ENCODING 327
SWIDTH 480 0
DWIDTH 8 0
BBX 8 16 0 -2
BITMAP
34
18
00
82
c2
c2
a2
a2
92
8a
8a
86
86
82
00
00
ENDCHAR
STARTCHAR U+0148
ENCODING 328
SWIDTH 480 0
DWIDTH 8 0
BBX 8 16 0 -2
BITMAP
00
44
28
10
00
b8
c6
82
82
82
82
82
82
82
00
00
ENDCHAR
STARTCHAR U+0149
ENCODING 329
SWIDTH 480 0
DWIDTH 8 0
BBX 8 16 0 -2
BITMAP
00
c0
40
80
00
5c
62
42
42
42
42
42
42
42
00
00
ENDCHAR
STARTCHAR U+014a
ENCODING 330
SWIDTH 480 0
DWIDTH 8 0
BBX 8 16 0 -2
BITMAP
00
82
82
c2
a2
a2
92
92
92
8a
8a
86
82
82
04
0c
ENDCHAR
STARTCHAR U+014b
ENCODING 331
SWIDTH 480 0
DWIDTH 8 0
BBX 8 16 0 -2
BITMAP
00
00
00
00
00
5c
62
42
42
42
42
42
42
42
1c
00
ENDCHAR
STARTCHAR U+014c
ENCODING 332
SWIDTH 480 0
DWIDTH 8 0
BBX 8 16 0 -2
BITMAP
00
7c
00
38
44
82
82
82
82
82
82
82
44
38
00
00
ENDCHAR
STARTCHAR U+014d
ENCODING 333
SWIDTH 480 0
DWIDTH 8 0
BBX 8 16 0 -2
BITMAP
00
00
00
7c
00
38
44
82
82
82
82
82
44
38
00
00
ENDCHAR
STARTCHAR U+014e
ENCODING 334
SWIDTH 480 0
DWIDTH 8 0
BBX 8 16 0 -2
BITMAP
44
38
00
38
44
82
82
82
82
82
82
82
44
38
00
00
ENDCHAR
STARTCHAR U+014f
ENCODING 335
SWIDTH 480 0
DWIDTH 8 0
BBX 8 16 0 -2
BITMAP
00
00
44
3c
00
38
44
82
82
82
82
82
44
38
00
00
ENDCHAR
STARTCHAR U+0150
ENCODING 336
SWIDTH 480 0
DWIDTH 8 0
BBX 8 16 0 -2
BITMAP
24
48
00
38
44
82
82
82
82
82
82
82
44
38
00
00
ENDCHAR
STARTCHAR U+0151
ENCODING 337
SWIDTH 480 0
DWIDTH 8 0
BBX 8 16 0 -2
BITMAP
00
00
24
44
00
38
44
82
82
82
82
82
44
38
00
00
ENDCHAR
STARTCHAR U+0152
ENCODING 338
SWIDTH 480 0
DWIDTH 8 0
BBX 8 16 0 -2
BITMAP
00
3e
50
90
90
90
90
9e
90
90
90
90
50
3f
00
00
ENDCHAR
STARTCHAR U+0153
ENCODING 339
SWIDTH 480 0
DWIDTH 8 0
BBX 8 16 0 -2
BITMAP
00
00
00
00
00
24
48
92
92
9c
90
52
50
2c
00
00
ENDCHAR
STARTCHAR U+0154
ENCODING 340
SWIDTH 480 0
DWIDTH 8 0
BBX 8 16 0 -2
BITMAP
18
10
20
f8
84
82
82
fe
84
84
84
84
82
82
00
00
ENDCHAR
STARTCHAR U+0155
ENCODING 341
SWIDTH 480 0
DWIDTH 8 0
BBX 8 16 0 -2
BITMAP
00
08
10
00
00
4c
32
22
20
20
20
20
20
20
00
00
ENDCHAR
STARTCHAR U+0156
ENCODING 342
SWIDTH 480 0
DWIDTH 8 0
BBX 8 16 0 -2
BITMAP
00
f8
84
82
82
82
84
f8
88
84
84
84
82
82
20
40
ENDCHAR
STARTCHAR U+0157
ENCODING 343
SWIDTH 480 0
DWIDTH 8 0
BBX 8 16 0 -2
BITMAP
00
00
00
00
00
4c
32
22
20
20
20
20
20
20
20
40
ENDCHAR
STARTCHAR U+0158
ENCODING 344
SWIDTH 480 0
DWIDTH 8 0
BBX 8 16 0 -2
BITMAP
44
38
00
f8
04
82
82
fe
84
84
84
84
82
82
00
00
ENDCHAR
STARTCHAR U+0159
ENCODING 345
SWIDTH 480 0
DWIDTH 8 0
BBX 8 16 0 -2
BITMAP
00
24
18
00
00
4c
32
22
20
20
20
20
20
20
00
00
ENDCHAR
STARTCHAR U+015a
ENCODING 346
SWIDTH 480 0
DWIDTH 8 0
BBX 8 16 0 -2
BITMAP
18
10
00
38
44
82
80
78
04
02
82
82
44
38
00
00
ENDCHAR
STARTCHAR U+015b
ENCODING 347
SWIDTH 480 0
DWIDTH 8 0
BBX 8 16 0 -2
BITMAP
00
08
10
00
00
3c
42
40
7c
04
02
02
44
38
00
00
ENDCHAR
STARTCHAR U+015c
ENCODING 348
SWIDTH 480 0
DWIDTH 8 0
BBX 8 16 0 -2
BITMAP
10
38
44
38
44
82
80
40
3c
02
82
82
44
38
00
00
ENDCHAR
STARTCHAR U+015d
ENCODING 349
SWIDTH 480 0
DWIDTH 8 0
BBX 8 16 0 -2
BITMAP
00
10
38
24
00
3c
42
40
7c
00
02
02
42
3c
00
00
ENDCHAR
STARTCHAR U+015e
ENCODING 350
SWIDTH 480 0
DWIDTH 8 0
BBX 8 16 0 -2
BITMAP
00
38
44
82
80
80
60
18
04
02
02
42
24
18
28
40
ENDCHAR
STARTCHAR U+015f
ENCODING 351
SWIDTH 480 0
DWIDTH 8 0
BBX 8 16 0 -2
BITMAP
00
00
00
00
00
3c
42
40
7c
02
18
86
78
10
20
40
ENDCHAR
STARTCHAR U+0160
ENCODING 352
SWIDTH 480 0
DWIDTH 8 0
BBX 8 16 0 -2
BITMAP
24
18
00
38
44
82
40
20
1c
02
82
82
44
38
00
00
ENDCHAR
STARTCHAR U+0161
ENCODING 353
SWIDTH 480 0
DWIDTH 8 0
BBX 8 16 0 -2
BITMAP
00
20
14
08
00
38
02
00
38
04
02
02
44
38
00
00
ENDCHAR
STARTCHAR U+0162
ENCODING 354
SWIDTH 480 0
DWIDTH 8 0
BBX 8 16 0 -2
BITMAP
00
fc
10
10
10
10
10
10
10
10
10
10
08
08
10
60
ENDCHAR
STARTCHAR U+0163
ENCODING 355
SWIDTH 480 0
DWIDTH 8 0
BBX 8 16 0 -2
BITMAP
00
00
10
10
10
7c
10
10
10
10
10
12
0c
08
10
10
ENDCHAR
STARTCHAR U+0164
ENCODING 356
SWIDTH 480 0
DWIDTH 8 0
BBX 8 16 0 -2
BITMAP
24
18
00
fe
10
10
10
10
10
10
10
10
10
10
00
00
ENDCHAR
STARTCHAR U+0165
ENCODING 357
SWIDTH 480 0
DWIDTH 8 0
BBX 8 16 0 -2
BITMAP
38
10
00
10
10
7c
10
10
10
10
10
12
10
0c
00
00
ENDCHAR
STARTCHAR U+0166
ENCODING 358
SWIDTH 480 0
DWIDTH 8 0
BBX 8 16 0 -2
BITMAP
00
00
fc
10
10
7c
10
10
10
10
10
10
10
10
00
00
ENDCHAR
STARTCHAR U+0167
ENCODING 359
SWIDTH 480 0
DWIDTH 8 0
BBX 8 16 0 -2
BITMAP
00
00
00
10
10
7c
10
10
1c
10
10
12
0c
00
00
00
ENDCHAR
STARTCHAR U+0168
ENCODING 360
SWIDTH 480 0
DWIDTH 8 0
BBX 8 16 0 -2
BITMAP
34
58
00
82
82
82
82
82
82
82
82
82
44
38
00
00
ENDCHAR
STARTCHAR U+0169
ENCODING 361
SWIDTH 480 0
DWIDTH 8 0
BBX 8 16 0 -2
BITMAP
00
00
32
4c
00
42
42
42
42
42
42
42
46
3a
00
00
ENDCHAR
STARTCHAR U+016a
ENCODING 362
SWIDTH 480 0
DWIDTH 8 0
BBX 8 16 0 -2
BITMAP
00
7c
00
82
82
82
82
82
82
82
82
82
44
38
00
00
ENDCHAR
STARTCHAR U+016b
ENCODING 363
SWIDTH 480 0
DWIDTH 8 0
BBX 8 16 0 -2
BITMAP
00
00
00
7e
00
42
42
42
42
42
42
42
46
3a
00
00
ENDCHAR
STARTCHAR U+016c
ENCODING 364
SWIDTH 480 0
DWIDTH 8 0
BBX 8 16 0 -2
BITMAP
44
38
00
82
82
82
82
82
82
82
82
82
44
38
00
00
ENDCHAR
STARTCHAR U+016d
ENCODING 365
SWIDTH 480 0
DWIDTH 8 0
BBX 8 16 0 -2
BITMAP
00
00
44
38
00
42
42
42
42
42
42
42
46
3a
00
00
ENDCHAR
STARTCHAR U+016e
ENCODING 366
SWIDTH 480 0
DWIDTH 8 0
BBX 8 16 0 -2
BITMAP
10
38
44
18
82
82
82
82
82
82
82
82
44
38
00
00
ENDCHAR
STARTCHAR U+016f
ENCODING 367
SWIDTH 480 0
DWIDTH 8 0
BBX 8 16 0 -2
BITMAP
00
18
24
18
00
42
42
42
42
42
42
42
46
3a
00
00
ENDCHAR
STARTCHAR U+0170
ENCODING 368
SWIDTH 480 0
DWIDTH 8 0
BBX 8 16 0 -2
BITMAP
24
48
00
82
82
82
82
82
82
82
82
82
44
38
00
00
ENDCHAR
STARTCHAR U+0171
ENCODING 369
SWIDTH 480 0
DWIDTH 8 0
BBX 8 16 0 -2
BITMAP
00
00
12
24
00
42
42
42
42
42
42
42
46
3a
00
00
ENDCHAR
STARTCHAR U+0172
ENCODING 370
SWIDTH 480 0
DWIDTH 8 0
BBX 8 16 0 -2
BITMAP
00
82
82
82
82
82
82
82
82
82
42
44
38
10
10
08
ENDCHAR
STARTCHAR U+0173
ENCODING 371
SWIDTH 480 0
DWIDTH 8 0
BBX 8 16 0 -2
BITMAP
00
00
00
00
00
82
82
82
82
82
46
46
3a
02
10
1e
ENDCHAR
STARTCHAR U+0174
ENCODING 372
SWIDTH 480 0
DWIDTH 8 0
BBX 8 16 0 -2
BITMAP
10
28
44
82
82
82
92
92
92
aa
aa
c6
84
84
00
00
ENDCHAR
STARTCHAR U+0175
ENCODING 373
SWIDTH 480 0
DWIDTH 8 0
BBX 8 16 0 -2
BITMAP
00
10
28
24
00
82
82
92
92
aa
aa
44
44
44
00
00
ENDCHAR
STARTCHAR U+0176
ENCODING 374
SWIDTH 480 0
DWIDTH 8 0
BBX 8 16 0 -2
BITMAP
10
38
44
84
84
44
28
28
10
10
10
10
10
10
00
00
ENDCHAR
STARTCHAR U+0177
ENCODING 375
SWIDTH 480 0
DWIDTH 8 0
BBX 8 16 0 -2
BITMAP
00
18
24
24
00
42
42
42
42
44
44
44
10
10
20
40
ENDCHAR
STARTCHAR U+0178
ENCODING 376
SWIDTH 480 0
DWIDTH 8 0
BBX 8 16 0 -2
BITMAP
44
44
00
84
84
84
28
28
10
10
10
10
10
10
00
00
ENDCHAR
STARTCHAR U+0179
ENCODING 377
SWIDTH 480 0
DWIDTH 8 0
BBX 8 16 0 -2
BITMAP
18
10
00
fe
04
04
08
10
10
20
20
40
80
fe
00
00
ENDCHAR
STARTCHAR U+017a
ENCODING 378
SWIDTH 480 0
DWIDTH 8 0
BBX 8 16 0 -2
BITMAP
00
00
10
20
00
fe
04
08
10
20
20
40
40
fe
00
00
ENDCHAR
STARTCHAR U+017b
ENCODING 379
SWIDTH 480 0
DWIDTH 8 0
BBX 8 16 0 -2
BITMAP
10
10
00
fe
04
08
08
10
10
20
20
40
80
fe
00
00
ENDCHAR
STARTCHAR U+017c
ENCODING 380
SWIDTH 480 0
DWIDTH 8 0
BBX 8 16 0 -2
BITMAP
00
00
00
20
00
fe
04
08
08
10
10
20
40
fe
00
00
ENDCHAR
STARTCHAR U+017d
ENCODING 381
SWIDTH 480 0
DWIDTH 8 0
BBX 8 16 0 -2
BITMAP
24
18
00
fe
04
04
08
10
10
20
20
40
80
fe
00
00
ENDCHAR
STARTCHAR U+017e
ENCODING 382
SWIDTH 480 0
DWIDTH 8 0
BBX 8 16 0 -2
BITMAP
00
20
14
08
00
fe
04
08
08
10
10
20
40
fe
00
00
ENDCHAR
STARTCHAR U+017f
ENCODING 383
SWIDTH 480 0
DWIDTH 8 0
BBX 8 16 0 -2
BITMAP
00
00
0c
12
10
10
10
10
10
10
10
10
10
10
00
00
ENDCHAR
STARTCHAR U+0180
ENCODING 384
SWIDTH 480 0
DWIDTH 8 0
BBX 8 16 0 -2
BITMAP
00
00
40
f0
40
5c
60
42
42
42
42
42
64
58
00
00
ENDCHAR
STARTCHAR U+0181
ENCODING 385
SWIDTH 480 0
DWIDTH 8 0
BBX 8 16 0 -2
BITMAP
00
78
a4
24
24
24
38
24
24
24
24
24
24
38
00
00
ENDCHAR
STARTCHAR U+0182
ENCODING 386
SWIDTH 480 0
DWIDTH 8 0
BBX 8 16 0 -2
BITMAP
00
00
f8
40
40
40
60
58
44
42
42
42
44
f8
00
00
ENDCHAR
STARTCHAR U+0183
ENCODING 387
SWIDTH 480 0
DWIDTH 8 0
BBX 8 16 0 -2
BITMAP
00
7c
40
40
40
40
58
64
42
42
42
42
44
78
00
00
ENDCHAR
STARTCHAR U+0184
ENCODING 388
SWIDTH 480 0
DWIDTH 8 0
BBX 8 16 0 -2
BITMAP
00
40
c0
c0
c0
c0
78
44
42
42
42
42
44
78
00
00
ENDCHAR
STARTCHAR U+0185
ENCODING 389
SWIDTH 480 0
DWIDTH 8 0
BBX 8 16 0 -2
BITMAP
00
40
c0
40
40
40
78
44
42
42
42
42
64
58
00
00
ENDCHAR
STARTCHAR U+0186
ENCODING 390
SWIDTH 480 0
DWIDTH 8 0
BBX 8 16 0 -2
BITMAP
00
38
44
82
02
02
02
02
02
02
02
82
44
38
00
00
ENDCHAR
STARTCHAR U+0187
ENCODING 391
SWIDTH 480 0
DWIDTH 8 0
BBX 8 16 0 -2
BITMAP
00
3a
44
84
80
80
80
80
80
80
82
84
44
38
00
00
ENDCHAR
STARTCHAR U+0188
ENCODING 392
SWIDTH 480 0
DWIDTH 8 0
BBX 8 16 0 -2
BITMAP
00
00
00
00
00
3a
44
80
80
80
80
82
44
38
00
00
ENDCHAR
STARTCHAR U+0189
ENCODING 393
SWIDTH 480 0
DWIDTH 8 0
BBX 8 16 0 -2
BITMAP
00
70
48
44
44
42
42
e2
42
42
44
44
48
f0
00
00
ENDCHAR
STARTCHAR U+018a
ENCODING 394
SWIDTH 480 0
DWIDTH 8 0
BBX 8 16 0 -2
BITMAP
00
00
78
a4
a0
22
22
22
22
22
24
24
38
20
00
00
ENDCHAR
STARTCHAR U+018b
ENCODING 395
SWIDTH 480 0
DWIDTH 8 0
BBX 8 16 0 -2
BITMAP
00
00
7e
82
02
02
02
3a
46
82
82
82
46
3a
00
00
ENDCHAR
STARTCHAR U+018c
ENCODING 396
SWIDTH 480 0
DWIDTH 8 0
BBX 8 16 0 -2
BITMAP
00
00
7e
02
02
02
1a
26
42
42
42
42
46
3a
00
00
ENDCHAR
STARTCHAR U+018d
ENCODING 397
SWIDTH 480 0
DWIDTH 8 0
BBX 8 16 0 -2
BITMAP
00
00
00
00
00
38
44
82
82
82
42
44
3c
04
04
38
ENDCHAR
STARTCHAR U+018e
ENCODING 398
SWIDTH 480 0
DWIDTH 8 0
BBX 8 16 0 -2
BITMAP
00
00
fe
02
02
02
02
3e
02
02
02
02
82
fe
00
00
ENDCHAR
STARTCHAR U+018f
ENCODING 399
SWIDTH 480 0
DWIDTH 8 0
BBX 8 16 0 -2
BITMAP
00
38
44
82
02
02
02
02
fe
82
82
82
44
38
00
00
ENDCHAR
STARTCHAR U+0190
ENCODING 400
SWIDTH 480 0
DWIDTH 8 0
BBX 8 16 0 -2
BITMAP
00
38
44
82
80
80
40
38
40
80
80
82
44
38
00
00
ENDCHAR
STARTCHAR U+0191
ENCODING 401
SWIDTH 480 0
DWIDTH 8 0
BBX 8 16 0 -2
BITMAP
00
3e
20
20
20
20
38
20
20
20
20
20
20
a0
a0
40
ENDCHAR
STARTCHAR U+0192
ENCODING 402
SWIDTH 480 0
DWIDTH 8 0
BBX 8 16 0 -2
BITMAP
00
00
0c
12
12
10
10
7c
10
10
10
10
10
60
00
00
ENDCHAR
STARTCHAR U+0193
ENCODING 403
SWIDTH 480 0
DWIDTH 8 0
BBX 8 16 0 -2
BITMAP
00
39
46
82
82
80
80
80
8e
82
82
82
46
3a
00
00
ENDCHAR
STARTCHAR U+0194
ENCODING 404
SWIDTH 480 0
DWIDTH 8 0
BBX 8 16 0 -2
BITMAP
00
00
84
84
84
84
48
48
48
30
30
30
50
50
20
00
ENDCHAR
STARTCHAR U+0195
ENCODING 405
SWIDTH 480 0
DWIDTH 8 0
BBX 8 16 0 -2
BITMAP
00
80
80
80
80
80
e0
92
92
92
92
92
90
8c
00
00
ENDCHAR
STARTCHAR U+0196
ENCODING 406
SWIDTH 480 0
DWIDTH 8 0
BBX 8 16 0 -2
BITMAP
00
30
10
10
10
10
10
10
10
10
10
10
10
0c
00
00
ENDCHAR
STARTCHAR U+0197
ENCODING 407
SWIDTH 480 0
DWIDTH 8 0
BBX 8 16 0 -2
BITMAP
00
00
7c
10
10
10
10
38
10
10
10
10
10
38
00
00
ENDCHAR
STARTCHAR U+0198
ENCODING 408
SWIDTH 480 0
DWIDTH 8 0
BBX 8 16 0 -2
BITMAP
00
80
80
86
8a
90
a0
c0
a0
90
88
84
82
82
00
00
ENDCHAR
STARTCHAR U+0199
ENCODING 409
SWIDTH 480 0
DWIDTH 8 0
BBX 8 16 0 -2
BITMAP
00
30
48
40
40
42
44
48
50
68
44
44
42
42
00
00
ENDCHAR
STARTCHAR U+019a
ENCODING 410
SWIDTH 480 0
DWIDTH 8 0
BBX 8 16 0 -2
BITMAP
00
00
30
10
10
10
10
38
10
10
10
10
10
38
00
00
ENDCHAR
STARTCHAR U+019b
ENCODING 411
SWIDTH 480 0
DWIDTH 8 0
BBX 8 16 0 -2
BITMAP
00
80
44
28
28
50
10
28
28
08
24
24
42
42
00
00
ENDCHAR
STARTCHAR U+019c
ENCODING 412
SWIDTH 480 0
DWIDTH 8 0
BBX 8 16 0 -2
BITMAP
00
92
92
92
92
92
92
92
92
92
92
92
52
4e
00
00
ENDCHAR
STARTCHAR U+019d
ENCODING 413
SWIDTH 480 0
DWIDTH 8 0
BBX 8 16 0 -2
BITMAP
00
22
22
22
32
32
2a
2a
26
26
22
22
22
a0
a0
40
ENDCHAR
STARTCHAR U+019e
ENCODING 414
SWIDTH 480 0
DWIDTH 8 0
BBX 8 16 0 -2
BITMAP
00
00
00
00
00
5c
62
42
42
42
42
42
42
42
02
02
ENDCHAR
STARTCHAR U+019f
ENCODING 415
SWIDTH 480 0
DWIDTH 8 0
BBX 8 16 0 -2
BITMAP
00
38
44
82
82
82
82
fe
82
82
82
82
44
38
00
00
ENDCHAR
STARTCHAR U+01a0
ENCODING 416
SWIDTH 480 0
DWIDTH 8 0
BBX 8 16 0 -2
BITMAP
00
39
45
82
82
82
82
82
82
82
82
82
44
38
00
00
ENDCHAR
STARTCHAR U+01a1
ENCODING 417
SWIDTH 480 0
DWIDTH 8 0
BBX 8 16 0 -2
BITMAP
00
00
00
00
02
3a
44
84
84
84
84
84
44
38
00
00
ENDCHAR
STARTCHAR U+01a2
ENCODING 418
SWIDTH 480 0
DWIDTH 8 0
BBX 8 16 0 -2
BITMAP
00
00
6c
92
92
92
92
92
92
92
92
92
92
62
00
00
ENDCHAR
STARTCHAR U+01a3
ENCODING 419
SWIDTH 480 0
DWIDTH 8 0
BBX 8 16 0 -2
BITMAP
00
00
00
00
00
38
54
8a
8a
8a
8a
52
32
02
02
02
ENDCHAR
STARTCHAR U+01a4
ENCODING 420
SWIDTH 480 0
DWIDTH 8 0
BBX 8 16 0 -2
BITMAP
00
78
84
22
a2
a2
24
38
20
20
20
20
20
20
00
00
ENDCHAR
STARTCHAR U+01a5
ENCODING 421
SWIDTH 480 0
DWIDTH 8 0
BBX 8 16 0 -2
BITMAP
00
00
60
80
80
b8
c4
82
82
82
82
c4
b8
80
80
80
ENDCHAR
STARTCHAR U+01a6
ENCODING 422
SWIDTH 480 0
DWIDTH 8 0
BBX 8 16 0 -2
BITMAP
00
80
80
80
fc
82
82
82
84
98
e8
88
84
84
02
00
ENDCHAR
STARTCHAR U+01a7
ENCODING 423
SWIDTH 480 0
DWIDTH 8 0
BBX 8 16 0 -2
BITMAP
00
38
44
82
82
02
04
38
40
80
80
82
44
38
00
00
ENDCHAR
STARTCHAR U+01a8
ENCODING 424
SWIDTH 480 0
DWIDTH 8 0
BBX 8 16 0 -2
BITMAP
00
00
00
00
00
7c
82
02
3c
58
80
82
82
7c
00
00
ENDCHAR
STARTCHAR U+01a9
ENCODING 425
SWIDTH 480 0
DWIDTH 8 0
BBX 8 16 0 -2
BITMAP
00
00
fe
40
20
10
08
08
10
20
20
40
80
fe
00
00
ENDCHAR
STARTCHAR U+01aa
ENCODING 426
SWIDTH 480 0
DWIDTH 8 0
BBX 8 16 0 -2
BITMAP
00
20
50
50
50
30
10
10
10
10
10
10
14
08
00
00
ENDCHAR
STARTCHAR U+01ab
ENCODING 427
SWIDTH 480 0
DWIDTH 8 0
BBX 8 16 0 -2
BITMAP
00
00
00
10
10
7c
10
10
10
10
10
12
0e
02
12
0c
ENDCHAR
STARTCHAR U+01ac
ENCODING 428
SWIDTH 480 0
DWIDTH 8 0
BBX 8 16 0 -2
BITMAP
00
00
7e
90
90
10
10
10
10
10
10
10
10
10
00
00
ENDCHAR
STARTCHAR U+01ad
ENCODING 429
SWIDTH 480 0
DWIDTH 8 0
BBX 8 16 0 -2
BITMAP
00
00
0c
12
10
7c
10
10
10
10
10
12
10
0c
00
00
ENDCHAR
STARTCHAR U+01ae
ENCODING 430
SWIDTH 480 0
DWIDTH 8 0
BBX 8 16 0 -2
BITMAP
00
00
fc
10
10
10
10
10
10
10
10
10
10
0c
00
00
ENDCHAR
STARTCHAR U+01af
ENCODING 431
SWIDTH 480 0
DWIDTH 8 0
BBX 8 16 0 -2
BITMAP
00
8a
8a
8c
88
88
88
88
88
88
88
88
88
70
00
00
ENDCHAR
STARTCHAR U+01b0
ENCODING 432
SWIDTH 480 0
DWIDTH 8 0
BBX 8 16 0 -2
BITMAP
00
00
00
06
06
8c
88
88
88
88
88
88
98
68
00
00
ENDCHAR
STARTCHAR U+01b1
ENCODING 433
SWIDTH 480 0
DWIDTH 8 0
BBX 8 16 0 -2
BITMAP
00
84
84
44
44
82
82
82
82
82
44
44
38
00
00
00
ENDCHAR
STARTCHAR U+01b2
ENCODING 434
SWIDTH 480 0
DWIDTH 8 0
BBX 8 16 0 -2
BITMAP
00
88
88
84
84
82
82
82
82
82
44
44
28
10
00
00
ENDCHAR
STARTCHAR U+01b3
ENCODING 435
SWIDTH 480 0
DWIDTH 8 0
BBX 8 16 0 -2
BITMAP
00
00
42
a2
a2
14
14
08
08
08
08
08
08
08
00
00
ENDCHAR
STARTCHAR U+01b4
ENCODING 436
SWIDTH 480 0
DWIDTH 8 0
BBX 8 16 0 -2
BITMAP
00
00
00
06
09
88
88
88
88
88
50
50
10
10
20
40
ENDCHAR
STARTCHAR U+01b5
ENCODING 437
SWIDTH 480 0
DWIDTH 8 0
BBX 8 16 0 -2
BITMAP
00
fe
02
04
04
08
10
7c
20
40
40
80
80
fe
00
00
ENDCHAR
STARTCHAR U+01b6
ENCODING 438
SWIDTH 480 0
DWIDTH 8 0
BBX 8 16 0 -2
BITMAP
00
00
00
00
00
fe
04
08
3c
30
40
40
80
fe
00
00
ENDCHAR
STARTCHAR U+01b7
ENCODING 439
SWIDTH 480 0
DWIDTH 8 0
BBX 8 16 0 -2
BITMAP
00
00
00
fc
00
10
08
38
04
02
82
82
44
38
00
00
ENDCHAR
STARTCHAR U+01b8
ENCODING 440
SWIDTH 480 0
DWIDTH 8 0
BBX 8 16 0 -2
BITMAP
00
00
fe
40
20
10
08
30
40
80
80
82
44
38
00
00
ENDCHAR
STARTCHAR U+01b9
ENCODING 441
SWIDTH 480 0
DWIDTH 8 0
BBX 8 16 0 -2
BITMAP
00
00
00
00
00
7e
40
20
10
08
38
40
40
42
3c
00
ENDCHAR
STARTCHAR U+01ba
ENCODING 442
SWIDTH 480 0
DWIDTH 8 0
BBX 8 16 0 -2
BITMAP
00
00
00
00
00
7c
04
08
10
30
08
08
38
42
3c
00
ENDCHAR
STARTCHAR U+01bb
ENCODING 443
SWIDTH 480 0
DWIDTH 8 0
BBX 8 16 0 -2
BITMAP
00
38
44
82
82
82
04
08
7c
20
20
40
80
fe
00
00
ENDCHAR
STARTCHAR U+01bc
ENCODING 444
SWIDTH 480 0
DWIDTH 8 0
BBX 8 16 0 -2
BITMAP
00
00
fe
82
80
98
64
04
02
02
82
82
44
38
00
00
ENDCHAR
STARTCHAR U+01bd
ENCODING 445
SWIDTH 480 0
DWIDTH 8 0
BBX 8 16 0 -2
BITMAP
00
00
00
00
00
78
40
58
64
04
04
44
44
38
00
00
ENDCHAR
STARTCHAR U+01be
ENCODING 446
SWIDTH 480 0
DWIDTH 8 0
BBX 8 16 0 -2
BITMAP
00
10
10
10
10
7c
10
10
10
18
04
44
44
38
00
00
ENDCHAR
STARTCHAR U+01bf
ENCODING 447
SWIDTH 480 0
DWIDTH 8 0
BBX 8 16 0 -2
BITMAP
00
00
00
00
00
40
58
64
44
48
48
50
60
40
40
40
ENDCHAR
STARTCHAR U+01c0
ENCODING 448
SWIDTH 480 0
DWIDTH 8 0
BBX 8 16 0 -2
BITMAP
00
00
10
10
10
10
10
10
10
10
10
10
10
10
00
00
ENDCHAR
STARTCHAR U+01c1
ENCODING 449
SWIDTH 480 0
DWIDTH 8 0
BBX 8 16 0 -2
BITMAP
00
28
28
28
28
28
28
28
28
28
28
28
28
28
00
00
ENDCHAR
STARTCHAR U+01c2
ENCODING 450
SWIDTH 480 0
DWIDTH 8 0
BBX 8 16 0 -2
BITMAP
00
00
10
10
10
7c
10
10
10
7c
10
10
10
10
00
00
ENDCHAR
STARTCHAR U+01c3
ENCODING 451
SWIDTH 480 0
DWIDTH 8 0
BBX 8 16 0 -2
BITMAP
00
00
18
18
18
10
10
10
10
10
10
00
00
00
00
00
ENDCHAR
STARTCHAR U+01c4
ENCODING 452
SWIDTH 480 0
DWIDTH 8 0
BBX 8 16 0 -2
BITMAP
0a
04
00
ce
a2
a2
a2
a4
a4
a4
a8
a8
a8
ce
00
00
ENDCHAR
STARTCHAR U+01c5
ENCODING 453
SWIDTH 480 0
DWIDTH 8 0
BBX 8 16 0 -2
BITMAP
00
00
ca
a4
a0
ae
a2
a2
a4
a4
a8
a8
a8
ce
00
00
ENDCHAR
STARTCHAR U+01c6
ENCODING 454
SWIDTH 480 0
DWIDTH 8 0
BBX 8 16 0 -2
BITMAP
00
12
24
24
20
6e
a1
a2
a2
a4
a8
a8
a8
6e
00
00
ENDCHAR
STARTCHAR U+01c7
ENCODING 455
SWIDTH 480 0
DWIDTH 8 0
BBX 8 16 0 -2
BITMAP
00
82
82
82
82
82
82
82
82
82
82
8a
a4
f8
00
00
ENDCHAR
STARTCHAR U+01c8
ENCODING 456
SWIDTH 480 0
DWIDTH 8 0
BBX 8 16 0 -2
BITMAP
00
00
82
82
80
86
82
82
82
82
82
82
ea
0a
02
0c
ENDCHAR
STARTCHAR U+01c9
ENCODING 457
SWIDTH 480 0
DWIDTH 8 0
BBX 8 16 0 -2
BITMAP
00
00
c0
42
40
46
40
42
42
42
42
42
82
82
02
0c
ENDCHAR
STARTCHAR U+01ca
ENCODING 458
SWIDTH 480 0
DWIDTH 8 0
BBX 8 16 0 -2
BITMAP
00
96
96
92
92
d2
b2
92
92
92
9a
9a
94
90
00
00
ENDCHAR
STARTCHAR U+01cb
ENCODING 459
SWIDTH 480 0
DWIDTH 8 0
BBX 8 16 0 -2
BITMAP
00
90
90
92
90
d2
b2
92
92
92
92
92
92
92
12
0c
ENDCHAR
STARTCHAR U+01cc
ENCODING 460
SWIDTH 480 0
DWIDTH 8 0
BBX 8 16 0 -2
BITMAP
00
00
00
02
00
a6
d2
92
92
92
92
92
92
92
04
00
ENDCHAR
STARTCHAR U+01cd
ENCODING 461
SWIDTH 480 0
DWIDTH 8 0
BBX 8 16 0 -2
BITMAP
38
10
00
10
10
28
28
44
44
7c
82
82
82
82
00
00
ENDCHAR
STARTCHAR U+01ce
ENCODING 462
SWIDTH 480 0
DWIDTH 8 0
BBX 8 16 0 -2
BITMAP
00
20
04
18
00
3c
42
02
3e
42
82
82
86
7a
00
00
ENDCHAR
STARTCHAR U+01cf
ENCODING 463
SWIDTH 480 0
DWIDTH 8 0
BBX 8 16 0 -2
BITMAP
38
10
00
38
10
10
10
10
10
10
10
10
10
38
00
00
ENDCHAR
STARTCHAR U+01d0
ENCODING 464
SWIDTH 480 0
DWIDTH 8 0
BBX 8 16 0 -2
BITMAP
00
44
28
10
00
30
10
10
10
10
10
10
10
10
00
00
ENDCHAR
STARTCHAR U+01d1
ENCODING 465
SWIDTH 480 0
DWIDTH 8 0
BBX 8 16 0 -2
BITMAP
38
10
00
38
44
82
82
82
82
82
82
82
44
38
00
00
ENDCHAR
STARTCHAR U+01d2
ENCODING 466
SWIDTH 480 0
DWIDTH 8 0
BBX 8 16 0 -2
BITMAP
00
24
18
08
00
38
44
82
82
82
82
82
44
38
00
00
ENDCHAR
STARTCHAR U+01d3
ENCODING 467
SWIDTH 480 0
DWIDTH 8 0
BBX 8 16 0 -2
BITMAP
44
38
00
82
82
82
82
82
82
82
82
82
44
38
00
00
ENDCHAR
STARTCHAR U+01d4
ENCODING 468
SWIDTH 480 0
DWIDTH 8 0
BBX 8 16 0 -2
BITMAP
00
20
14
08
00
42
42
42
42
42
42
42
46
3a
00
00
ENDCHAR
STARTCHAR U+01d5
ENCODING 469
SWIDTH 480 0
DWIDTH 8 0
BBX 8 16 0 -2
BITMAP
7c
00
44
44
00
82
82
82
82
82
82
82
44
38
00
00
ENDCHAR
STARTCHAR U+01d6
ENCODING 470
SWIDTH 480 0
DWIDTH 8 0
BBX 8 16 0 -2
BITMAP
00
7e
00
66
00
42
42
42
42
42
42
42
46
3a
00
00
ENDCHAR
STARTCHAR U+01d7
ENCODING 471
SWIDTH 480 0
DWIDTH 8 0
BBX 8 16 0 -2
BITMAP
18
10
20
4a
00
82
82
82
82
82
82
82
44
38
00
00
ENDCHAR
STARTCHAR U+01d8
ENCODING 472
SWIDTH 480 0
DWIDTH 8 0
BBX 8 16 0 -2
BITMAP
18
10
20
64
00
42
42
42
42
42
42
42
46
3a
00
00
ENDCHAR
STARTCHAR U+01d9
ENCODING 473
SWIDTH 480 0
DWIDTH 8 0
BBX 8 16 0 -2
BITMAP
38
10
00
46
00
82
82
82
82
82
82
82
44
38
00
00
ENDCHAR
STARTCHAR U+01da
ENCODING 474
SWIDTH 480 0
DWIDTH 8 0
BBX 8 16 0 -2
BITMAP
34
18
00
64
00
42
42
42
42
42
42
42
46
3a
00
00
ENDCHAR
STARTCHAR U+01db
ENCODING 475
SWIDTH 480 0
DWIDTH 8 0
BBX 8 16 0 -2
BITMAP
30
10
08
82
82
82
82
82
82
82
82
82
44
38
00
00
ENDCHAR
STARTCHAR U+01dc
ENCODING 476
SWIDTH 480 0
DWIDTH 8 0
BBX 8 16 0 -2
BITMAP
30
10
08
44
00
42
42
42
42
42
42
42
46
3a
00
00
ENDCHAR
STARTCHAR U+01dd
ENCODING 477
SWIDTH 480 0
DWIDTH 8 0
BBX 8 16 0 -2
BITMAP
00
00
00
00
00
38
44
02
02
fe
82
82
44
38
00
00
ENDCHAR
STARTCHAR U+01de
ENCODING 478
SWIDTH 480 0
DWIDTH 8 0
BBX 8 16 0 -2
BITMAP
78
00
48
10
10
28
28
44
44
7c
82
82
82
82
00
00
ENDCHAR
STARTCHAR U+01df
ENCODING 479
SWIDTH 480 0
DWIDTH 8 0
BBX 8 16 0 -2
BITMAP
00
7c
00
48
00
38
44
00
3c
42
82
82
86
7a
00
00
ENDCHAR
STARTCHAR U+01e0
ENCODING 480
SWIDTH 480 0
DWIDTH 8 0
BBX 8 16 0 -2
BITMAP
3c
00
18
10
10
28
28
44
44
7c
82
82
82
82
00
00
ENDCHAR
STARTCHAR U+01e1
ENCODING 481
SWIDTH 480 0
DWIDTH 8 0
BBX 8 16 0 -2
BITMAP
00
78
00
10
00
38
40
00
3c
42
82
82
86
7a
00
00
ENDCHAR
STARTCHAR U+01e2
ENCODING 482
SWIDTH 480 0
DWIDTH 8 0
BBX 8 16 0 -2
BITMAP
7c
00
7c
90
90
90
90
fe
90
90
90
90
90
9f
00
00
ENDCHAR
STARTCHAR U+01e3
ENCODING 483
SWIDTH 480 0
DWIDTH 8 0
BBX 8 16 0 -2
BITMAP
00
00
00
fc
00
6c
52
12
3e
50
90
92
92
6c
00
00
ENDCHAR
STARTCHAR U+01e4
ENCODING 484
SWIDTH 480 0
DWIDTH 8 0
BBX 8 16 0 -2
BITMAP
00
38
44
82
80
80
80
8e
82
82
87
82
44
38
00
00
ENDCHAR
STARTCHAR U+01e5
ENCODING 485
SWIDTH 480 0
DWIDTH 8 0
BBX 8 16 0 -2
BITMAP
00
00
00
00
00
3b
44
44
44
38
40
78
44
3f
24
58
ENDCHAR
STARTCHAR U+01e6
ENCODING 486
SWIDTH 480 0
DWIDTH 8 0
BBX 8 16 0 -2
BITMAP
34
18
00
38
44
82
80
80
86
82
82
82
44
38
00
00
ENDCHAR
STARTCHAR U+01e7
ENCODING 487
SWIDTH 480 0
DWIDTH 8 0
BBX 8 16 0 -2
BITMAP
00
24
1c
18
00
3a
44
44
44
38
40
78
84
82
82
7c
ENDCHAR
STARTCHAR U+01e8
ENCODING 488
SWIDTH 480 0
DWIDTH 8 0
BBX 8 16 0 -2
BITMAP
34
18
80
84
84
84
a8
d0
a8
84
84
84
82
82
00
00
ENDCHAR
STARTCHAR U+01e9
ENCODING 489
SWIDTH 480 0
DWIDTH 8 0
BBX 8 16 0 -2
BITMAP
40
24
98
80
80
80
84
88
90
e8
84
84
82
82
00
00
ENDCHAR
STARTCHAR U+01ea
ENCODING 490
SWIDTH 480 0
DWIDTH 8 0
BBX 8 16 0 -2
BITMAP
00
38
44
82
82
82
82
82
82
82
82
44
38
10
10
08
ENDCHAR
STARTCHAR U+01eb
ENCODING 491
SWIDTH 480 0
DWIDTH 8 0
BBX 8 16 0 -2
BITMAP
00
00
00
00
00
38
44
82
82
82
82
44
38
10
10
08
ENDCHAR
STARTCHAR U+01ec
ENCODING 492
SWIDTH 480 0
DWIDTH 8 0
BBX 8 16 0 -2
BITMAP
00
7c
00
38
44
82
82
82
82
82
82
82
44
38
08
08
ENDCHAR
STARTCHAR U+01ed
ENCODING 493
SWIDTH 480 0
DWIDTH 8 0
BBX 8 16 0 -2
BITMAP
00
00
00
7c
00
38
44
82
82
82
42
44
38
10
10
08
ENDCHAR
STARTCHAR U+01ee
ENCODING 494
SWIDTH 480 0
DWIDTH 8 0
BBX 8 16 0 -2
BITMAP
24
18
00
fe
04
08
10
38
04
02
82
82
44
38
00
00
ENDCHAR
STARTCHAR U+01ef
ENCODING 495
SWIDTH 480 0
DWIDTH 8 0
BBX 8 16 0 -2
BITMAP
00
20
14
08
00
7e
04
08
08
18
24
04
10
10
20
40
ENDCHAR
STARTCHAR U+01f0
ENCODING 496
SWIDTH 480 0
DWIDTH 8 0
BBX 8 16 0 -2
BITMAP
00
22
14
18
00
18
08
08
08
08
08
08
08
08
10
60
ENDCHAR
STARTCHAR U+01f1
ENCODING 497
SWIDTH 480 0
DWIDTH 8 0
BBX 8 16 0 -2
BITMAP
00
00
dc
a2
a2
a2
a4
a4
a4
a8
a8
a8
a8
cf
00
00
ENDCHAR
STARTCHAR U+01f2
ENCODING 498
SWIDTH 480 0
DWIDTH 8 0
BBX 8 16 0 -2
BITMAP
00
00
c0
a0
a0
ae
a2
a2
a4
a4
a8
a8
a8
ce
00
00
ENDCHAR
STARTCHAR U+01f3
ENCODING 499
SWIDTH 480 0
DWIDTH 8 0
BBX 8 16 0 -2
BITMAP
00
00
20
20
20
6f
a1
a2
a2
a4
a8
a8
a8
6e
00
00
ENDCHAR
STARTCHAR U+01f4
ENCODING 500
SWIDTH 480 0
DWIDTH 8 0
BBX 8 16 0 -2
BITMAP
18
10
00
38
44
82
80
80
86
82
82
82
46
3a
00
00
ENDCHAR
STARTCHAR U+01f5
ENCODING 501
SWIDTH 480 0
DWIDTH 8 0
BBX 8 16 0 -2
BITMAP
00
18
10
00
00
3b
44
44
44
38
40
78
84
82
82
7c
ENDCHAR
STARTCHAR U+01f6
ENCODING 502
SWIDTH 480 0
DWIDTH 8 0
BBX 8 16 0 -2
BITMAP
00
00
90
90
90
90
90
f2
92
92
92
92
90
90
00
00
ENDCHAR
STARTCHAR U+01f7
ENCODING 503
SWIDTH 480 0
DWIDTH 8 0
BBX 8 16 0 -2
BITMAP
00
b8
c4
82
82
82
84
88
90
a0
c0
80
80
80
00
00
ENDCHAR
STARTCHAR U+01f8
ENCODING 504
SWIDTH 480 0
DWIDTH 8 0
BBX 8 16 0 -2
BITMAP
30
10
88
82
c2
c2
a2
a2
92
8a
8a
86
86
82
00
00
ENDCHAR
STARTCHAR U+01f9
ENCODING 505
SWIDTH 480 0
DWIDTH 8 0
BBX 8 16 0 -2
BITMAP
00
20
10
08
00
b8
c2
82
82
82
82
82
82
82
00
00
ENDCHAR
STARTCHAR U+01fa
ENCODING 506
SWIDTH 480 0
DWIDTH 8 0
BBX 8 16 0 -2
BITMAP
18
10
20
18
24
18
28
44
44
7c
82
82
82
82
00
00
ENDCHAR
STARTCHAR U+01fb
ENCODING 507
SWIDTH 480 0
DWIDTH 8 0
BBX 8 16 0 -2
BITMAP
08
10
18
18
24
24
58
00
3c
44
82
82
86
7a
00
00
ENDCHAR
STARTCHAR U+01fc
ENCODING 508
SWIDTH 480 0
DWIDTH 8 0
BBX 8 16 0 -2
BITMAP
18
10
20
7e
90
90
90
fc
90
90
90
90
90
9f
00
00
ENDCHAR
STARTCHAR U+01fd
ENCODING 509
SWIDTH 480 0
DWIDTH 8 0
BBX 8 16 0 -2
BITMAP
00
08
10
00
00
6c
92
12
3e
50
90
92
92
6c
00
00
ENDCHAR
STARTCHAR U+01fe
ENCODING 510
SWIDTH 480 0
DWIDTH 8 0
BBX 8 16 0 -2
BITMAP
18
10
20
38
44
82
8a
8a
92
92
a2
a2
44
b8
00
00
ENDCHAR
STARTCHAR U+01ff
ENCODING 511
SWIDTH 480 0
DWIDTH 8 0
BBX 8 16 0 -2
BITMAP
00
00
10
20
00
3a
44
8a
8a
92
a2
a2
44
b8
00
00
ENDCHAR
STARTCHAR U+0200
ENCODING 512
SWIDTH 480 0
DWIDTH 8 0
BBX 8 16 0 -2
BITMAP
90
48
24
10
10
28
28
44
44
7c
82
82
82
82
00
00
ENDCHAR
STARTCHAR U+0201
ENCODING 513
SWIDTH 480 0
DWIDTH 8 0
BBX 8 16 0 -2
BITMAP
00
10
48
24
00
3c
42
02
3e
42
82
82
86
7a
00
00
ENDCHAR
STARTCHAR U+0202
ENCODING 514
SWIDTH 480 0
DWIDTH 8 0
BBX 8 16 0 -2
BITMAP
10
38
44
10
10
28
28
44
44
7c
82
82
82
82
00
00
ENDCHAR
STARTCHAR U+0203
ENCODING 515
SWIDTH 480 0
DWIDTH 8 0
BBX 8 16 0 -2
BITMAP
00
00
38
44
00
3c
42
02
3e
42
82
82
86
7a
00
00
ENDCHAR
STARTCHAR U+0204
ENCODING 516
SWIDTH 480 0
DWIDTH 8 0
BBX 8 16 0 -2
BITMAP
88
44
00
fe
80
80
80
fc
80
80
80
80
80
fe
00
00
ENDCHAR
STARTCHAR U+0205
ENCODING 517
SWIDTH 480 0
DWIDTH 8 0
BBX 8 16 0 -2
BITMAP
00
00
48
24
00
38
44
82
82
fe
80
82
44
38
00
00
ENDCHAR
STARTCHAR U+0206
ENCODING 518
SWIDTH 480 0
DWIDTH 8 0
BBX 8 16 0 -2
BITMAP
38
44
00
fe
80
80
80
fc
80
80
80
80
80
fe
00
00
ENDCHAR
STARTCHAR U+0207
ENCODING 519
SWIDTH 480 0
DWIDTH 8 0
BBX 8 16 0 -2
BITMAP
00
00
38
44
00
38
44
82
82
fe
80
82
44
38
00
00
ENDCHAR
STARTCHAR U+0208
ENCODING 520
SWIDTH 480 0
DWIDTH 8 0
BBX 8 16 0 -2
BITMAP
10
48
24
38
10
10
10
10
10
10
10
10
10
38
00
00
ENDCHAR
STARTCHAR U+0209
ENCODING 521
SWIDTH 480 0
DWIDTH 8 0
BBX 8 16 0 -2
BITMAP
00
90
48
24
00
30
10
10
10
10
10
10
10
38
00
00
ENDCHAR
STARTCHAR U+020a
ENCODING 522
SWIDTH 480 0
DWIDTH 8 0
BBX 8 16 0 -2
BITMAP
10
38
44
38
10
10
10
10
10
10
10
10
10
38
00
00
ENDCHAR
STARTCHAR U+020b
ENCODING 523
SWIDTH 480 0
DWIDTH 8 0
BBX 8 16 0 -2
BITMAP
00
00
38
44
00
30
10
10
10
10
10
10
10
38
00
00
ENDCHAR
STARTCHAR U+020c
ENCODING 524
SWIDTH 480 0
DWIDTH 8 0
BBX 8 16 0 -2
BITMAP
50
38
04
38
44
82
82
82
82
82
82
82
44
38
00
00
ENDCHAR
STARTCHAR U+020d
ENCODING 525
SWIDTH 480 0
DWIDTH 8 0
BBX 8 16 0 -2
BITMAP
00
10
48
24
00
38
44
82
82
82
82
82
44
38
00
00
ENDCHAR
STARTCHAR U+020e
ENCODING 526
SWIDTH 480 0
DWIDTH 8 0
BBX 8 16 0 -2
BITMAP
10
38
44
38
44
82
82
82
82
82
82
82
44
38
00
00
ENDCHAR
STARTCHAR U+020f
ENCODING 527
SWIDTH 480 0
DWIDTH 8 0
BBX 8 16 0 -2
BITMAP
00
00
38
44
00
38
44
82
82
82
82
82
44
38
00
00
ENDCHAR
STARTCHAR U+0210
ENCODING 528
SWIDTH 480 0
DWIDTH 8 0
BBX 8 16 0 -2
BITMAP
50
28
04
fc
82
82
82
fc
88
84
84
84
82
82
00
00
ENDCHAR
STARTCHAR U+0211
ENCODING 529
SWIDTH 480 0
DWIDTH 8 0
BBX 8 16 0 -2
BITMAP
00
50
28
04
00
4c
32
22
20
20
20
20
20
20
00
00
ENDCHAR
STARTCHAR U+0212
ENCODING 530
SWIDTH 480 0
DWIDTH 8 0
BBX 8 16 0 -2
BITMAP
10
38
44
f8
84
82
82
fe
84
84
84
84
84
82
00
00
ENDCHAR
STARTCHAR U+0213
ENCODING 531
SWIDTH 480 0
DWIDTH 8 0
BBX 8 16 0 -2
BITMAP
00
38
44
00
00
5c
22
22
20
20
20
20
20
20
00
00
ENDCHAR
STARTCHAR U+0214
ENCODING 532
SWIDTH 480 0
DWIDTH 8 0
BBX 8 16 0 -2
BITMAP
48
24
00
82
82
82
82
82
82
82
82
82
44
38
00
00
ENDCHAR
STARTCHAR U+0215
ENCODING 533
SWIDTH 480 0
DWIDTH 8 0
BBX 8 16 0 -2
BITMAP
00
90
48
24
00
42
42
42
42
42
42
42
46
3a
00
00
ENDCHAR
STARTCHAR U+0216
ENCODING 534
SWIDTH 480 0
DWIDTH 8 0
BBX 8 16 0 -2
BITMAP
00
38
44
00
82
82
82
82
82
82
82
82
44
38
00
00
ENDCHAR
STARTCHAR U+0217
ENCODING 535
SWIDTH 480 0
DWIDTH 8 0
BBX 8 16 0 -2
BITMAP
00
00
38
44
00
42
42
42
42
42
42
42
46
3a
00
00
ENDCHAR
STARTCHAR U+0218
ENCODING 536
SWIDTH 480 0
DWIDTH 8 0
BBX 8 16 0 -2
BITMAP
00
38
44
82
82
80
60
18
04
82
42
42
24
18
28
40
ENDCHAR
STARTCHAR U+0219
ENCODING 537
SWIDTH 480 0
DWIDTH 8 0
BBX 8 16 0 -2
BITMAP
00
00
00
00
00
3c
42
40
7c
02
02
82
58
28
08
10
ENDCHAR
STARTCHAR U+021a
ENCODING 538
SWIDTH 480 0
DWIDTH 8 0
BBX 8 16 0 -2
BITMAP
00
fc
10
10
10
10
10
10
10
10
10
10
08
08
10
20
ENDCHAR
STARTCHAR U+021b
ENCODING 539
SWIDTH 480 0
DWIDTH 8 0
BBX 8 16 0 -2
BITMAP
00
00
00
10
10
7c
10
10
10
10
10
12
00
0c
08
10
ENDCHAR
STARTCHAR U+021c
ENCODING 540
SWIDTH 480 0
DWIDTH 8 0
BBX 8 16 0 -2
BITMAP
00
78
84
04
04
04
08
18
24
04
04
04
04
78
00
00
ENDCHAR
STARTCHAR U+021d
ENCODING 541
SWIDTH 480 0
DWIDTH 8 0
BBX 8 16 0 -2
BITMAP
00
00
00
00
00
7c
82
82
04
08
10
20
02
02
84
78
ENDCHAR
STARTCHAR U+021e
ENCODING 542
SWIDTH 480 0
DWIDTH 8 0
BBX 8 16 0 -2
BITMAP
54
38
80
82
82
82
82
fe
82
82
82
82
82
82
00
00
ENDCHAR
STARTCHAR U+021f
ENCODING 543
SWIDTH 480 0
DWIDTH 8 0
BBX 8 16 0 -2
BITMAP
40
24
98
80
80
80
bc
c2
82
82
82
82
82
82
00
00
ENDCHAR
STARTCHAR U+0222
ENCODING 546
SWIDTH 480 0
DWIDTH 8 0
BBX 8 16 0 -2
BITMAP
00
38
44
82
82
82
44
38
44
82
82
82
44
38
00
00
ENDCHAR
STARTCHAR U+0223
ENCODING 547
SWIDTH 480 0
DWIDTH 8 0
BBX 8 16 0 -2
BITMAP
00
00
28
24
42
42
44
38
44
42
42
42
44
38
00
00
ENDCHAR
STARTCHAR U+0224
ENCODING 548
SWIDTH 480 0
DWIDTH 8 0
BBX 8 16 0 -2
BITMAP
00
fe
02
04
04
08
08
10
10
20
20
40
80
fe
02
0c
ENDCHAR
STARTCHAR U+0225
ENCODING 549
SWIDTH 480 0
DWIDTH 8 0
BBX 8 16 0 -2
BITMAP
00
00
00
00
00
fe
04
08
10
20
20
40
40
fe
02
0c
ENDCHAR
STARTCHAR U+0226
ENCODING 550
SWIDTH 480 0
DWIDTH 8 0
BBX 8 16 0 -2
BITMAP
10
10
00
10
10
28
28
44
44
7c
82
82
82
82
00
00
ENDCHAR
STARTCHAR U+0227
ENCODING 551
SWIDTH 480 0
DWIDTH 8 0
BBX 8 16 0 -2
BITMAP
00
00
10
18
00
3c
42
02
3e
42
82
82
86
7a
00
00
ENDCHAR
STARTCHAR U+0228
ENCODING 552
SWIDTH 480 0
DWIDTH 8 0
BBX 8 16 0 -2
BITMAP
00
fe
80
80
80
80
80
f0
80
80
80
80
fc
02
12
60
ENDCHAR
STARTCHAR U+0229
ENCODING 553
SWIDTH 480 0
DWIDTH 8 0
BBX 8 16 0 -2
BITMAP
00
00
00
00
00
38
44
82
82
fe
80
82
44
38
08
10
ENDCHAR
STARTCHAR U+022a
ENCODING 554
SWIDTH 480 0
DWIDTH 8 0
BBX 8 16 0 -2
BITMAP
7c
00
54
18
24
42
82
82
82
82
82
82
44
38
00
00
ENDCHAR
STARTCHAR U+022b
ENCODING 555
SWIDTH 480 0
DWIDTH 8 0
BBX 8 16 0 -2
BITMAP
00
7c
00
44
00
38
44
82
82
82
82
82
44
38
00
00
ENDCHAR
STARTCHAR U+022c
ENCODING 556
SWIDTH 480 0
DWIDTH 8 0
BBX 8 16 0 -2
BITMAP
7c
34
58
00
38
44
82
82
82
82
82
82
44
38
00
00
ENDCHAR
STARTCHAR U+022d
ENCODING 557
SWIDTH 480 0
DWIDTH 8 0
BBX 8 16 0 -2
BITMAP
7e
00
34
48
00
38
44
82
82
82
82
82
44
38
00
00
ENDCHAR
STARTCHAR U+022e
ENCODING 558
SWIDTH 480 0
DWIDTH 8 0
BBX 8 16 0 -2
BITMAP
10
10
00
38
44
82
82
82
82
82
82
82
44
38
00
00
ENDCHAR
STARTCHAR U+022f
ENCODING 559
SWIDTH 480 0
DWIDTH 8 0
BBX 8 16 0 -2
BITMAP
00
00
00
00
00
38
44
82
82
82
82
82
44
38
00
00
ENDCHAR
STARTCHAR U+0230
ENCODING 560
SWIDTH 480 0
DWIDTH 8 0
BBX 8 16 0 -2
BITMAP
7c
00
18
18
24
42
82
82
82
82
82
82
44
38
00
00
ENDCHAR
STARTCHAR U+0231
ENCODING 561
SWIDTH 480 0
DWIDTH 8 0
BBX 8 16 0 -2
BITMAP
00
78
00
20
00
38
44
82
82
82
82
82
44
38
00
00
ENDCHAR
STARTCHAR U+0232
ENCODING 562
SWIDTH 480 0
DWIDTH 8 0
BBX 8 16 0 -2
BITMAP
7c
00
44
44
44
44
28
28
10
10
10
10
10
10
00
00
ENDCHAR
STARTCHAR U+0233
ENCODING 563
SWIDTH 480 0
DWIDTH 8 0
BBX 8 16 0 -2
BITMAP
00
00
00
7c
00
42
42
42
42
42
42
26
18
10
20
5c
ENDCHAR
STARTCHAR U+0250
ENCODING 592
SWIDTH 480 0
DWIDTH 8 0
BBX 8 16 0 -2
BITMAP
00
00
00
00
00
b8
c4
82
82
f8
80
80
84
78
00
00
ENDCHAR
STARTCHAR U+0251
ENCODING 593
SWIDTH 480 0
DWIDTH 8 0
BBX 8 16 0 -2
BITMAP
00
00
00
00
00
3a
46
82
82
82
82
82
46
3a
00
00
ENDCHAR
STARTCHAR U+0252
ENCODING 594
SWIDTH 480 0
DWIDTH 8 0
BBX 8 16 0 -2
BITMAP
00
00
00
00
00
b8
c4
82
82
82
82
c2
a4
98
00
00
ENDCHAR
STARTCHAR U+0253
ENCODING 595
SWIDTH 480 0
DWIDTH 8 0
BBX 8 16 0 -2
BITMAP
00
78
84
84
80
80
98
e4
82
82
82
82
c4
b8
00
00
ENDCHAR
STARTCHAR U+0254
ENCODING 596
SWIDTH 480 0
DWIDTH 8 0
BBX 8 16 0 -2
BITMAP
00
00
00
00
00
38
44
02
02
02
02
42
44
38
00
00
ENDCHAR
STARTCHAR U+0255
ENCODING 597
SWIDTH 480 0
DWIDTH 8 0
BBX 8 16 0 -2
BITMAP
00
00
00
00
00
38
44
82
80
80
84
4a
5c
30
00
00
ENDCHAR
STARTCHAR U+0256
ENCODING 598
SWIDTH 480 0
DWIDTH 8 0
BBX 8 16 0 -2
BITMAP
00
04
04
04
04
04
3c
44
84
84
84
8c
54
24
03
00
ENDCHAR
STARTCHAR U+0257
ENCODING 599
SWIDTH 480 0
DWIDTH 8 0
BBX 8 16 0 -2
BITMAP
00
02
05
04
04
34
4c
84
84
84
84
84
4c
34
00
00
ENDCHAR
STARTCHAR U+0258
ENCODING 600
SWIDTH 480 0
DWIDTH 8 0
BBX 8 16 0 -2
BITMAP
00
00
00
00
00
38
44
82
82
fe
02
82
44
38
00
00
ENDCHAR
STARTCHAR U+0259
ENCODING 601
SWIDTH 480 0
DWIDTH 8 0
BBX 8 16 0 -2
BITMAP
00
00
00
00
00
38
44
02
02
7e
82
82
44
38
00
00
ENDCHAR
STARTCHAR U+025a
ENCODING 602
SWIDTH 480 0
DWIDTH 8 0
BBX 8 16 0 -2
BITMAP
00
00
00
00
00
38
44
04
06
3d
44
44
44
38
00
00
ENDCHAR
STARTCHAR U+025b
ENCODING 603
SWIDTH 480 0
DWIDTH 8 0
BBX 8 16 0 -2
BITMAP
00
00
00
00
00
38
46
40
30
40
80
82
44
38
00
00
ENDCHAR
STARTCHAR U+025c
ENCODING 604
SWIDTH 480 0
DWIDTH 8 0
BBX 8 16 0 -2
BITMAP
00
00
00
00
00
38
44
04
18
04
02
42
44
38
00
00
ENDCHAR
STARTCHAR U+025d
ENCODING 605
SWIDTH 480 0
DWIDTH 8 0
BBX 8 16 0 -2
BITMAP
00
00
00
00
00
38
46
05
04
18
04
44
44
38
00
00
ENDCHAR
STARTCHAR U+025e
ENCODING 606
SWIDTH 480 0
DWIDTH 8 0
BBX 8 16 0 -2
BITMAP
00
00
00
00
00
38
44
82
82
9c
82
82
44
38
00
00
ENDCHAR
STARTCHAR U+025f
ENCODING 607
SWIDTH 480 0
DWIDTH 8 0
BBX 8 16 0 -2
BITMAP
00
00
00
00
00
08
08
08
08
08
3e
08
08
08
90
60
ENDCHAR
STARTCHAR U+0260
ENCODING 608
SWIDTH 480 0
DWIDTH 8 0
BBX 8 16 0 -2
BITMAP
00
00
00
00
03
34
4c
84
84
84
4c
34
04
04
24
58
ENDCHAR
STARTCHAR U+0261
ENCODING 609
SWIDTH 480 0
DWIDTH 8 0
BBX 8 16 0 -2
BITMAP
00
00
00
00
00
38
44
82
82
82
82
46
1a
02
22
3c
ENDCHAR
STARTCHAR U+0262
ENCODING 610
SWIDTH 480 0
DWIDTH 8 0
BBX 8 16 0 -2
BITMAP
00
00
00
00
00
38
46
82
80
86
82
82
44
38
00
00
ENDCHAR
STARTCHAR U+0263
ENCODING 611
SWIDTH 480 0
DWIDTH 8 0
BBX 8 16 0 -2
BITMAP
00
00
00
00
00
42
42
42
24
28
28
10
28
28
10
00
ENDCHAR
STARTCHAR U+0264
ENCODING 612
SWIDTH 480 0
DWIDTH 8 0
BBX 8 16 0 -2
BITMAP
00
00
00
00
00
00
22
55
14
08
08
14
08
00
00
00
ENDCHAR
STARTCHAR U+0265
ENCODING 613
SWIDTH 480 0
DWIDTH 8 0
BBX 8 16 0 -2
BITMAP
00
00
00
00
00
82
82
82
82
82
82
46
3a
02
02
02
ENDCHAR
STARTCHAR U+0266
ENCODING 614
SWIDTH 480 0
DWIDTH 8 0
BBX 8 16 0 -2
BITMAP
00
78
84
80
80
80
bc
c2
82
82
82
82
82
82
00
00
ENDCHAR
STARTCHAR U+0267
ENCODING 615
SWIDTH 480 0
DWIDTH 8 0
BBX 8 16 0 -2
BITMAP
00
78
84
80
80
b8
c4
82
82
82
82
82
82
82
12
0c
ENDCHAR
STARTCHAR U+0268
ENCODING 616
SWIDTH 480 0
DWIDTH 8 0
BBX 8 16 0 -2
BITMAP
00
10
10
00
00
30
10
10
10
10
10
10
10
38
00
00
ENDCHAR
STARTCHAR U+0269
ENCODING 617
SWIDTH 480 0
DWIDTH 8 0
BBX 8 16 0 -2
BITMAP
00
00
00
00
00
30
10
10
10
10
10
10
10
0c
00
00
ENDCHAR
STARTCHAR U+026a
ENCODING 618
SWIDTH 480 0
DWIDTH 8 0
BBX 8 16 0 -2
BITMAP
00
00
00
00
00
78
10
10
10
10
10
10
10
38
00
00
ENDCHAR
STARTCHAR U+026b
ENCODING 619
SWIDTH 480 0
DWIDTH 8 0
BBX 8 16 0 -2
BITMAP
00
00
30
10
10
10
34
58
10
10
10
10
10
38
00
00
ENDCHAR
STARTCHAR U+026c
ENCODING 620
SWIDTH 480 0
DWIDTH 8 0
BBX 8 16 0 -2
BITMAP
00
00
30
10
10
10
30
50
30
10
10
10
10
38
00
00
ENDCHAR
STARTCHAR U+026d
ENCODING 621
SWIDTH 480 0
DWIDTH 8 0
BBX 8 16 0 -2
BITMAP
00
30
10
10
10
10
10
10
10
10
10
10
10
10
12
0c
ENDCHAR
STARTCHAR U+026e
ENCODING 622
SWIDTH 480 0
DWIDTH 8 0
BBX 8 16 0 -2
BITMAP
00
00
c0
40
40
5e
42
42
44
48
5c
42
02
02
3c
00
ENDCHAR
STARTCHAR U+026f
ENCODING 623
SWIDTH 480 0
DWIDTH 8 0
BBX 8 16 0 -2
BITMAP
00
00
00
00
00
82
92
92
92
92
92
92
b2
4e
00
00
ENDCHAR
STARTCHAR U+0270
ENCODING 624
SWIDTH 480 0
DWIDTH 8 0
BBX 8 16 0 -2
BITMAP
00
00
00
00
00
92
92
92
92
92
92
92
b2
4e
02
02
ENDCHAR
STARTCHAR U+0271
ENCODING 625
SWIDTH 480 0
DWIDTH 8 0
BBX 8 16 0 -2
BITMAP
00
00
00
00
00
ec
90
92
92
92
92
92
02
02
0c
00
ENDCHAR
STARTCHAR U+0272
ENCODING 626
SWIDTH 480 0
DWIDTH 8 0
BBX 8 16 0 -2
BITMAP
00
00
00
00
00
2c
32
22
22
22
a2
a2
22
a2
a0
40
ENDCHAR
STARTCHAR U+0273
ENCODING 627
SWIDTH 480 0
DWIDTH 8 0
BBX 8 16 0 -2
BITMAP
00
00
00
00
00
b8
c4
84
84
84
84
84
84
85
02
00
ENDCHAR
STARTCHAR U+0274
ENCODING 628
SWIDTH 480 0
DWIDTH 8 0
BBX 8 16 0 -2
BITMAP
00
00
00
00
00
82
c2
a2
92
8a
86
82
82
82
00
00
ENDCHAR
STARTCHAR U+0275
ENCODING 629
SWIDTH 480 0
DWIDTH 8 0
BBX 8 16 0 -2
BITMAP
00
00
00
00
00
38
44
82
82
fe
82
82
44
38
00
00
ENDCHAR
STARTCHAR U+0276
ENCODING 630
SWIDTH 480 0
DWIDTH 8 0
BBX 8 16 0 -2
BITMAP
00
00
00
00
00
7c
90
90
9c
90
90
90
90
7e
00
00
ENDCHAR
STARTCHAR U+0277
ENCODING 631
SWIDTH 480 0
DWIDTH 8 0
BBX 8 16 0 -2
BITMAP
00
00
00
00
00
38
44
82
82
92
92
92
a4
58
00
00
ENDCHAR
STARTCHAR U+0278
ENCODING 632
SWIDTH 480 0
DWIDTH 8 0
BBX 8 16 0 -2
BITMAP
00
00
00
10
10
38
54
92
92
92
92
54
38
10
10
10
ENDCHAR
STARTCHAR U+0279
ENCODING 633
SWIDTH 480 0
DWIDTH 8 0
BBX 8 16 0 -2
BITMAP
00
00
00
00
00
02
02
02
02
02
02
42
46
3a
00
00
ENDCHAR
STARTCHAR U+027a
ENCODING 634
SWIDTH 480 0
DWIDTH 8 0
BBX 8 16 0 -2
BITMAP
00
02
02
02
02
02
02
02
02
02
02
42
46
3a
00
00
ENDCHAR
STARTCHAR U+027b
ENCODING 635
SWIDTH 480 0
DWIDTH 8 0
BBX 8 16 0 -2
BITMAP
00
00
00
00
00
00
08
08
08
08
88
88
78
08
0b
00
ENDCHAR
STARTCHAR U+027c
ENCODING 636
SWIDTH 480 0
DWIDTH 8 0
BBX 8 16 0 -2
BITMAP
00
00
00
00
00
5c
62
42
40
40
40
40
40
40
40
40
ENDCHAR
STARTCHAR U+027d
ENCODING 637
SWIDTH 480 0
DWIDTH 8 0
BBX 8 16 0 -2
BITMAP
00
00
00
00
00
4c
32
22
20
20
20
20
20
20
04
18
ENDCHAR
STARTCHAR U+027e
ENCODING 638
SWIDTH 480 0
DWIDTH 8 0
BBX 8 16 0 -2
BITMAP
00
00
00
00
00
00
1c
22
22
20
20
20
20
20
00
00
ENDCHAR
STARTCHAR U+027f
ENCODING 639
SWIDTH 480 0
DWIDTH 8 0
BBX 8 16 0 -2
BITMAP
00
00
00
00
00
00
00
3c
42
02
02
02
02
02
00
00
ENDCHAR
STARTCHAR U+0280
ENCODING 640
SWIDTH 480 0
DWIDTH 8 0
BBX 8 16 0 -2
BITMAP
00
00
00
00
00
fc
82
82
82
fc
82
82
82
82
00
00
ENDCHAR
STARTCHAR U+0281
ENCODING 641
SWIDTH 480 0
DWIDTH 8 0
BBX 8 16 0 -2
BITMAP
00
00
00
00
00
82
82
82
84
fc
82
82
82
fc
00
00
ENDCHAR
STARTCHAR U+0282
ENCODING 642
SWIDTH 480 0
DWIDTH 8 0
BBX 8 16 0 -2
BITMAP
00
00
00
00
00
3c
42
40
7c
02
02
42
40
3c
20
40
ENDCHAR
STARTCHAR U+0283
ENCODING 643
SWIDTH 480 0
DWIDTH 8 0
BBX 8 16 0 -2
BITMAP
00
08
14
10
10
10
10
10
10
10
10
10
30
30
30
40
ENDCHAR
STARTCHAR U+0284
ENCODING 644
SWIDTH 480 0
DWIDTH 8 0
BBX 8 16 0 -2
BITMAP
00
04
0a
08
08
08
08
08
08
08
3e
08
08
08
90
60
ENDCHAR
STARTCHAR U+0285
ENCODING 645
SWIDTH 480 0
DWIDTH 8 0
BBX 8 16 0 -2
BITMAP
00
00
00
00
60
90
10
10
10
10
10
10
10
0c
00
00
ENDCHAR
STARTCHAR U+0286
ENCODING 646
SWIDTH 480 0
DWIDTH 8 0
BBX 8 16 0 -2
BITMAP
00
08
14
12
10
10
10
10
10
10
10
30
50
50
20
00
ENDCHAR
STARTCHAR U+0287
ENCODING 647
SWIDTH 480 0
DWIDTH 8 0
BBX 8 16 0 -2
BITMAP
00
00
00
00
00
30
48
08
08
08
08
08
3e
08
08
08
ENDCHAR
STARTCHAR U+0288
ENCODING 648
SWIDTH 480 0
DWIDTH 8 0
BBX 8 16 0 -2
BITMAP
00
00
00
10
10
7c
10
10
10
10
10
10
10
10
12
0c
ENDCHAR
STARTCHAR U+0289
ENCODING 649
SWIDTH 480 0
DWIDTH 8 0
BBX 8 16 0 -2
BITMAP
00
00
00
00
00
00
40
44
44
fe
44
44
44
3a
00
00
ENDCHAR
STARTCHAR U+028a
ENCODING 650
SWIDTH 480 0
DWIDTH 8 0
BBX 8 16 0 -2
BITMAP
00
00
00
00
00
ce
44
44
82
82
82
82
44
38
00
00
ENDCHAR
STARTCHAR U+028b
ENCODING 651
SWIDTH 480 0
DWIDTH 8 0
BBX 8 16 0 -2
BITMAP
00
00
00
00
00
84
84
82
82
82
82
84
44
38
00
00
ENDCHAR
STARTCHAR U+028c
ENCODING 652
SWIDTH 480 0
DWIDTH 8 0
BBX 8 16 0 -2
BITMAP
00
00
00
00
00
10
10
08
28
24
44
44
82
82
00
00
ENDCHAR
STARTCHAR U+028d
ENCODING 653
SWIDTH 480 0
DWIDTH 8 0
BBX 8 16 0 -2
BITMAP
00
00
00
00
00
24
44
8a
8a
92
92
82
82
82
00
00
ENDCHAR
STARTCHAR U+028e
ENCODING 654
SWIDTH 480 0
DWIDTH 8 0
BBX 8 16 0 -2
BITMAP
00
00
04
0a
08
10
10
28
28
28
44
44
82
82
00
00
ENDCHAR
STARTCHAR U+028f
ENCODING 655
SWIDTH 480 0
DWIDTH 8 0
BBX 8 16 0 -2
BITMAP
00
00
00
00
00
82
44
28
28
10
10
10
10
10
00
00
ENDCHAR
STARTCHAR U+0290
ENCODING 656
SWIDTH 480 0
DWIDTH 8 0
BBX 8 16 0 -2
BITMAP
00
00
00
00
00
7e
04
08
10
20
20
40
40
7c
06
00
ENDCHAR
STARTCHAR U+0291
ENCODING 657
SWIDTH 480 0
DWIDTH 8 0
BBX 8 16 0 -2
BITMAP
00
00
00
00
00
7e
04
08
10
00
04
2a
45
fe
08
00
ENDCHAR
STARTCHAR U+0292
ENCODING 658
SWIDTH 480 0
DWIDTH 8 0
BBX 8 16 0 -2
BITMAP
00
00
00
00
00
7e
04
08
10
38
04
04
02
42
3c
00
ENDCHAR
STARTCHAR U+0293
ENCODING 659
SWIDTH 480 0
DWIDTH 8 0
BBX 8 16 0 -2
BITMAP
00
00
00
00
00
7c
04
08
08
10
28
28
5c
44
22
00
ENDCHAR
STARTCHAR U+0294
ENCODING 660
SWIDTH 480 0
DWIDTH 8 0
BBX 8 16 0 -2
BITMAP
00
38
44
44
44
04
18
10
10
10
10
10
10
10
00
00
ENDCHAR
STARTCHAR U+0295
ENCODING 661
SWIDTH 480 0
DWIDTH 8 0
BBX 8 16 0 -2
BITMAP
00
38
44
44
40
40
20
10
10
10
10
10
10
10
00
00
ENDCHAR
STARTCHAR U+0296
ENCODING 662
SWIDTH 480 0
DWIDTH 8 0
BBX 8 16 0 -2
BITMAP
00
10
10
10
10
10
10
18
04
04
04
44
44
38
00
00
ENDCHAR
STARTCHAR U+0297
ENCODING 663
SWIDTH 480 0
DWIDTH 8 0
BBX 8 16 0 -2
BITMAP
00
00
00
18
24
42
40
40
40
40
40
40
42
3c
00
00
ENDCHAR
STARTCHAR U+0298
ENCODING 664
SWIDTH 480 0
DWIDTH 8 0
BBX 8 16 0 -2
BITMAP
00
00
00
00
00
38
44
82
82
92
82
82
44
38
00
00
ENDCHAR
STARTCHAR U+0299
ENCODING 665
SWIDTH 480 0
DWIDTH 8 0
BBX 8 16 0 -2
BITMAP
00
00
00
00
00
78
44
44
44
78
44
44
44
78
00
00
ENDCHAR
STARTCHAR U+029a
ENCODING 666
SWIDTH 480 0
DWIDTH 8 0
BBX 8 16 0 -2
BITMAP
00
00
00
00
00
38
44
82
82
3a
42
42
44
38
00
00
ENDCHAR
STARTCHAR U+029b
ENCODING 667
SWIDTH 480 0
DWIDTH 8 0
BBX 8 16 0 -2
BITMAP
00
00
00
00
01
3a
44
82
80
86
82
82
44
38
00
00
ENDCHAR
STARTCHAR U+029c
ENCODING 668
SWIDTH 480 0
DWIDTH 8 0
BBX 8 16 0 -2
BITMAP
00
00
00
00
00
82
82
82
82
fe
82
82
82
82
00
00
ENDCHAR
STARTCHAR U+029d
ENCODING 669
SWIDTH 480 0
DWIDTH 8 0
BBX 8 16 0 -2
BITMAP
00
00
00
00
00
18
08
08
08
08
08
3c
48
48
48
70
ENDCHAR
STARTCHAR U+029e
ENCODING 670
SWIDTH 480 0
DWIDTH 8 0
BBX 8 16 0 -2
BITMAP
00
00
00
00
00
82
42
22
12
0a
12
22
42
82
02
02
ENDCHAR
STARTCHAR U+029f
ENCODING 671
SWIDTH 480 0
DWIDTH 8 0
BBX 8 16 0 -2
BITMAP
00
00
00
00
00
00
40
40
40
40
40
40
40
7c
00
00
ENDCHAR
STARTCHAR U+02a0
ENCODING 672
SWIDTH 480 0
DWIDTH 8 0
BBX 8 16 0 -2
BITMAP
00
00
00
07
04
04
34
4c
44
44
4c
34
04
04
04
06
ENDCHAR
STARTCHAR U+02a1
ENCODING 673
SWIDTH 480 0
DWIDTH 8 0
BBX 8 16 0 -2
BITMAP
00
38
44
44
44
04
04
18
10
38
10
10
10
10
00
00
ENDCHAR
STARTCHAR U+02a2
ENCODING 674
SWIDTH 480 0
DWIDTH 8 0
BBX 8 16 0 -2
BITMAP
00
38
44
44
44
40
40
30
10
38
10
10
10
10
00
00
ENDCHAR
STARTCHAR U+02a3
ENCODING 675
SWIDTH 480 0
DWIDTH 8 0
BBX 8 16 0 -2
BITMAP
00
10
10
10
10
57
b1
92
92
92
94
94
b8
5f
00
00
ENDCHAR
STARTCHAR U+02a4
ENCODING 676
SWIDTH 480 0
DWIDTH 8 0
BBX 8 16 0 -2
BITMAP
00
10
10
10
10
57
51
92
96
96
b1
b1
51
11
06
00
ENDCHAR
STARTCHAR U+02a5
ENCODING 677
SWIDTH 480 0
DWIDTH 8 0
BBX 8 16 0 -2
BITMAP
00
00
00
20
20
20
5f
a5
a9
b2
b4
b5
5e
08
00
10
ENDCHAR
STARTCHAR U+02a6
ENCODING 678
SWIDTH 480 0
DWIDTH 8 0
BBX 8 16 0 -2
BITMAP
00
00
00
20
20
78
24
32
28
28
24
22
32
0c
00
00
ENDCHAR
STARTCHAR U+02a7
ENCODING 679
SWIDTH 480 0
DWIDTH 8 0
BBX 8 16 0 -2
BITMAP
00
00
06
49
48
f8
48
48
48
48
48
48
28
28
10
60
ENDCHAR
STARTCHAR U+02a8
ENCODING 680
SWIDTH 480 0
DWIDTH 8 0
BBX 8 16 0 -2
BITMAP
00
00
00
40
40
e4
48
50
50
44
4a
49
4d
36
04
00
ENDCHAR
STARTCHAR U+02a9
ENCODING 681
SWIDTH 480 0
DWIDTH 8 0
BBX 8 16 0 -2
BITMAP
00
18
24
44
40
40
40
f4
5a
52
52
52
02
0c
00
00
ENDCHAR
STARTCHAR U+02aa
ENCODING 682
SWIDTH 480 0
DWIDTH 8 0
BBX 8 16 0 -2
BITMAP
00
00
c0
40
40
4c
42
40
7c
42
42
62
64
f8
00
00
ENDCHAR
STARTCHAR U+02ab
ENCODING 683
SWIDTH 480 0
DWIDTH 8 0
BBX 8 16 0 -2
BITMAP
00
00
c0
40
40
7e
42
44
44
48
50
60
60
fe
00
00
ENDCHAR
STARTCHAR U+02ac
ENCODING 684
SWIDTH 480 0
DWIDTH 8 0
BBX 8 16 0 -2
BITMAP
00
00
00
54
54
54
28
28
00
54
54
54
28
28
00
00
ENDCHAR
STARTCHAR U+02ad
ENCODING 685
SWIDTH 480 0
DWIDTH 8 0
BBX 8 16 0 -2
BITMAP
00
00
00
00
00
7e
42
42
00
7e
42
00
00
00
00
00
ENDCHAR
STARTCHAR U+02b0
ENCODING 688
SWIDTH 480 0
DWIDTH 8 0
BBX 8 16 0 -2
BITMAP
00
40
40
40
70
48
48
48
00
00
00
00
00
00
00
00
ENDCHAR
STARTCHAR U+02b1
ENCODING 689
SWIDTH 480 0
DWIDTH 8 0
BBX 8 16 0 -2
BITMAP
00
20
40
60
50
50
48
48
00
00
00
00
00
00
00
00
ENDCHAR
STARTCHAR U+02b2
ENCODING 690
SWIDTH 480 0
DWIDTH 8 0
BBX 8 16 0 -2
BITMAP
00
10
00
10
10
10
10
50
20
00
00
00
00
00
00
00
ENDCHAR
STARTCHAR U+02b3
ENCODING 691
SWIDTH 480 0
DWIDTH 8 0
BBX 8 16 0 -2
BITMAP
00
00
00
70
48
40
40
40
00
00
00
00
00
00
00
00
ENDCHAR
STARTCHAR U+02b4
ENCODING 692
SWIDTH 480 0
DWIDTH 8 0
BBX 8 16 0 -2
BITMAP
00
00
00
08
08
08
58
28
00
00
00
00
00
00
00
00
ENDCHAR
STARTCHAR U+02b5
ENCODING 693
SWIDTH 480 0
DWIDTH 8 0
BBX 8 16 0 -2
BITMAP
00
00
00
08
08
08
58
28
08
04
00
00
00
00
00
00
ENDCHAR
STARTCHAR U+02b6
ENCODING 694
SWIDTH 480 0
DWIDTH 8 0
BBX 8 16 0 -2
BITMAP
00
48
50
40
50
68
50
40
00
00
00
00
00
00
00
00
ENDCHAR
STARTCHAR U+02b7
ENCODING 695
SWIDTH 480 0
DWIDTH 8 0
BBX 8 16 0 -2
BITMAP
00
00
00
54
54
54
48
48
00
00
00
00
00
00
00
00
ENDCHAR
STARTCHAR U+02b8
ENCODING 696
SWIDTH 480 0
DWIDTH 8 0
BBX 8 16 0 -2
BITMAP
00
00
00
48
48
48
30
10
20
00
00
00
00
00
00
00
ENDCHAR
STARTCHAR U+02b9
ENCODING 697
SWIDTH 480 0
DWIDTH 8 0
BBX 8 16 0 -2
BITMAP
00
10
10
10
20
20
00
00
00
00
00
00
00
00
00
00
ENDCHAR
STARTCHAR U+02ba
ENCODING 698
SWIDTH 480 0
DWIDTH 8 0
BBX 8 16 0 -2
BITMAP
6c
24
24
48
00
00
00
00
00
00
00
00
00
00
00
00
ENDCHAR
STARTCHAR U+02bb
ENCODING 699
SWIDTH 480 0
DWIDTH 8 0
BBX 8 16 0 -2
BITMAP
00
08
10
20
30
30
00
00
00
00
00
00
00
00
00
00
ENDCHAR
STARTCHAR U+02bc
ENCODING 700
SWIDTH 480 0
DWIDTH 8 0
BBX 8 16 0 -2
BITMAP
00
00
00
0c
04
08
00
00
00
00
00
00
00
00
00
00
ENDCHAR
STARTCHAR U+02bd
ENCODING 701
SWIDTH 480 0
DWIDTH 8 0
BBX 8 16 0 -2
BITMAP
00
00
00
10
08
00
00
00
00
00
00
00
00
00
00
00
ENDCHAR
STARTCHAR U+02be
ENCODING 702
SWIDTH 480 0
DWIDTH 8 0
BBX 8 16 0 -2
BITMAP
00
20
10
10
20
00
00
00
00
00
00
00
00
00
00
00
ENDCHAR
STARTCHAR U+02bf
ENCODING 703
SWIDTH 480 0
DWIDTH 8 0
BBX 8 16 0 -2
BITMAP
00
00
00
20
20
38
00
00
00
00
00
00
00
00
00
00
ENDCHAR
STARTCHAR U+02c0
ENCODING 704
SWIDTH 480 0
DWIDTH 8 0
BBX 8 16 0 -2
BITMAP
10
20
20
50
00
00
00
00
00
00
00
00
00
00
00
00
ENDCHAR
STARTCHAR U+02c1
ENCODING 705
SWIDTH 480 0
DWIDTH 8 0
BBX 8 16 0 -2
BITMAP
10
00
00
20
30
30
00
00
00
00
00
00
00
00
00
00
ENDCHAR
STARTCHAR U+02c2
ENCODING 706
SWIDTH 480 0
DWIDTH 8 0
BBX 8 16 0 -2
BITMAP
00
08
10
20
10
08
00
00
00
00
00
00
00
00
00
00
ENDCHAR
STARTCHAR U+02c3
ENCODING 707
SWIDTH 480 0
DWIDTH 8 0
BBX 8 16 0 -2
BITMAP
80
40
20
10
20
40
00
00
00
00
00
00
00
00
00
00
ENDCHAR
STARTCHAR U+02c4
ENCODING 708
SWIDTH 480 0
DWIDTH 8 0
BBX 8 16 0 -2
BITMAP
10
28
44
00
00
00
00
00
00
00
00
00
00
00
00
00
ENDCHAR
STARTCHAR U+02c5
ENCODING 709
SWIDTH 480 0
DWIDTH 8 0
BBX 8 16 0 -2
BITMAP
00
84
48
30
00
00
00
00
00
00
00
00
00
00
00
00
ENDCHAR
STARTCHAR U+02c6
ENCODING 710
SWIDTH 480 0
DWIDTH 8 0
BBX 8 16 0 -2
BITMAP
10
28
44
00
00
00
00
00
00
00
00
00
00
00
00
00
ENDCHAR
STARTCHAR U+02c7
ENCODING 711
SWIDTH 480 0
DWIDTH 8 0
BBX 8 16 0 -2
BITMAP
00
28
10
00
00
00
00
00
00
00
00
00
00
00
00
00
ENDCHAR
STARTCHAR U+02c8
ENCODING 712
SWIDTH 480 0
DWIDTH 8 0
BBX 8 16 0 -2
BITMAP
00
10
10
10
00
00
00
00
00
00
00
00
00
00
00
00
ENDCHAR
STARTCHAR U+02c9
ENCODING 713
SWIDTH 480 0
DWIDTH 8 0
BBX 8 16 0 -2
BITMAP
00
7c
00
00
00
00
00
00
00
00
00
00
00
00
00
00
ENDCHAR
STARTCHAR U+02ca
ENCODING 714
SWIDTH 480 0
DWIDTH 8 0
BBX 8 16 0 -2
BITMAP
00
00
08
10
20
00
00
00
00
00
00
00
00
00
00
00
ENDCHAR
STARTCHAR U+02cb
ENCODING 715
SWIDTH 480 0
DWIDTH 8 0
BBX 8 16 0 -2
BITMAP
30
20
20
10
00
00
00
00
00
00
00
00
00
00
00
00
ENDCHAR
STARTCHAR U+02cc
ENCODING 716
SWIDTH 480 0
DWIDTH 8 0
BBX 8 16 0 -2
BITMAP
00
00
00
00
00
00
00
00
00
00
00
10
10
10
00
00
ENDCHAR
STARTCHAR U+02cd
ENCODING 717
SWIDTH 480 0
DWIDTH 8 0
BBX 8 16 0 -2
BITMAP
00
00
00
00
00
00
00
00
00
00
00
00
00
00
7c
00
ENDCHAR
STARTCHAR U+02ce
ENCODING 718
SWIDTH 480 0
DWIDTH 8 0
BBX 8 16 0 -2
BITMAP
00
00
00
00
00
00
00
00
00
00
00
00
20
10
10
08
ENDCHAR
STARTCHAR U+02cf
ENCODING 719
SWIDTH 480 0
DWIDTH 8 0
BBX 8 16 0 -2
BITMAP
00
00
00
00
00
00
00
00
00
00
00
00
08
10
20
40
ENDCHAR
STARTCHAR U+02d0
ENCODING 720
SWIDTH 480 0
DWIDTH 8 0
BBX 8 16 0 -2
BITMAP
00
00
00
00
00
38
10
00
00
00
00
10
10
38
00
00
ENDCHAR
STARTCHAR U+02d1
ENCODING 721
SWIDTH 480 0
DWIDTH 8 0
BBX 8 16 0 -2
BITMAP
00
00
00
00
00
38
10
00
00
00
00
00
00
00
00
00
ENDCHAR
STARTCHAR U+02d2
ENCODING 722
SWIDTH 480 0
DWIDTH 8 0
BBX 8 16 0 -2
BITMAP
00
00
00
00
00
00
00
10
08
08
08
10
00
00
00
00
ENDCHAR
STARTCHAR U+02d3
ENCODING 723
SWIDTH 480 0
DWIDTH 8 0
BBX 8 16 0 -2
BITMAP
00
00
00
00
00
00
00
10
20
20
20
18
00
00
00
00
ENDCHAR
STARTCHAR U+02d4
ENCODING 724
SWIDTH 480 0
DWIDTH 8 0
BBX 8 16 0 -2
BITMAP
00
00
00
00
00
00
08
fc
00
00
00
00
00
00
00
00
ENDCHAR
STARTCHAR U+02d5
ENCODING 725
SWIDTH 480 0
DWIDTH 8 0
BBX 8 16 0 -2
BITMAP
00
00
00
00
00
00
00
00
7c
10
10
00
00
00
00
00
ENDCHAR
STARTCHAR U+02d6
ENCODING 726
SWIDTH 480 0
DWIDTH 8 0
BBX 8 16 0 -2
BITMAP
00
00
00
00
00
10
10
7c
10
10
10
00
00
00
00
00
ENDCHAR
STARTCHAR U+02d7
ENCODING 727
SWIDTH 480 0
DWIDTH 8 0
BBX 8 16 0 -2
BITMAP
00
00
00
00
00
00
00
24
3c
04
00
00
00
00
00
00
ENDCHAR
STARTCHAR U+02d8
ENCODING 728
SWIDTH 480 0
DWIDTH 8 0
BBX 8 16 0 -2
BITMAP
00
84
78
00
00
00
00
00
00
00
00
00
00
00
00
00
ENDCHAR
STARTCHAR U+02d9
ENCODING 729
SWIDTH 480 0
DWIDTH 8 0
BBX 8 16 0 -2
BITMAP
10
10
00
00
00
00
00
00
00
00
00
00
00
00
00
00
ENDCHAR
STARTCHAR U+02da
ENCODING 730
SWIDTH 480 0
DWIDTH 8 0
BBX 8 16 0 -2
BITMAP
00
30
48
10
00
00
00
00
00
00
00
00
00
00
00
00
ENDCHAR
STARTCHAR U+02db
ENCODING 731
SWIDTH 480 0
DWIDTH 8 0
BBX 8 16 0 -2
BITMAP
00
00
00
00
00
00
00
00
00
00
00
00
20
20
10
00
ENDCHAR
STARTCHAR U+02dc
ENCODING 732
SWIDTH 480 0
DWIDTH 8 0
BBX 8 16 0 -2
BITMAP
00
34
48
00
00
00
00
00
00
00
00
00
00
00
00
00
ENDCHAR
STARTCHAR U+02dd
ENCODING 733
SWIDTH 480 0
DWIDTH 8 0
BBX 8 16 0 -2
BITMAP
00
24
48
00
00
00
00
00
00
00
00
00
00
00
00
00
ENDCHAR
STARTCHAR U+02de
ENCODING 734
SWIDTH 480 0
DWIDTH 8 0
BBX 8 16 0 -2
BITMAP
00
00
00
00
00
00
00
72
92
0c
00
00
00
00
00
00
ENDCHAR
STARTCHAR U+02df
ENCODING 735
SWIDTH 480 0
DWIDTH 8 0
BBX 8 16 0 -2
BITMAP
00
28
10
48
00
00
00
00
00
00
00
00
00
00
00
00
ENDCHAR
STARTCHAR U+02e0
ENCODING 736
SWIDTH 480 0
DWIDTH 8 0
BBX 8 16 0 -2
BITMAP
00
00
00
48
48
30
10
00
00
00
00
00
00
00
00
00
ENDCHAR
STARTCHAR U+02e1
ENCODING 737
SWIDTH 480 0
DWIDTH 8 0
BBX 8 16 0 -2
BITMAP
00
60
20
20
20
20
70
00
00
00
00
00
00
00
00
00
ENDCHAR
STARTCHAR U+02e2
ENCODING 738
SWIDTH 480 0
DWIDTH 8 0
BBX 8 16 0 -2
BITMAP
00
00
00
30
40
20
10
60
00
00
00
00
00
00
00
00
ENDCHAR
STARTCHAR U+02e3
ENCODING 739
SWIDTH 480 0
DWIDTH 8 0
BBX 8 16 0 -2
BITMAP
00
00
00
00
30
30
48
48
00
00
00
00
00
00
00
00
ENDCHAR
STARTCHAR U+02e4
ENCODING 740
SWIDTH 480 0
DWIDTH 8 0
BBX 8 16 0 -2
BITMAP
00
38
44
20
20
20
00
00
00
00
00
00
00
00
00
00
ENDCHAR
STARTCHAR U+02e5
ENCODING 741
SWIDTH 480 0
DWIDTH 8 0
BBX 8 16 0 -2
BITMAP
00
78
08
08
08
08
08
08
08
08
08
08
08
08
00
00
ENDCHAR
STARTCHAR U+02e6
ENCODING 742
SWIDTH 480 0
DWIDTH 8 0
BBX 8 16 0 -2
BITMAP
00
08
08
08
08
78
08
08
08
08
08
08
08
08
00
00
ENDCHAR
STARTCHAR U+02e7
ENCODING 743
SWIDTH 480 0
DWIDTH 8 0
BBX 8 16 0 -2
BITMAP
00
08
08
08
08
08
08
08
78
08
08
08
08
08
00
00
ENDCHAR
STARTCHAR U+02e8
ENCODING 744
SWIDTH 480 0
DWIDTH 8 0
BBX 8 16 0 -2
BITMAP
00
08
08
08
08
08
08
08
08
08
78
08
08
08
00
00
ENDCHAR
STARTCHAR U+02e9
ENCODING 745
SWIDTH 480 0
DWIDTH 8 0
BBX 8 16 0 -2
BITMAP
00
08
08
08
08
08
08
08
08
08
08
08
08
78
00
00
ENDCHAR
STARTCHAR U+02ea
ENCODING 746
SWIDTH 480 0
DWIDTH 8 0
BBX 8 16 0 -2
BITMAP
00
00
00
00
00
00
00
00
00
00
00
00
3c
04
04
00
ENDCHAR
STARTCHAR U+02eb
ENCODING 747
SWIDTH 480 0
DWIDTH 8 0
BBX 8 16 0 -2
BITMAP
00
00
00
00
00
00
00
00
20
38
20
20
20
20
00
00
ENDCHAR
STARTCHAR U+02ec
ENCODING 748
SWIDTH 480 0
DWIDTH 8 0
BBX 8 16 0 -2
BITMAP
00
00
00
00
00
00
00
00
00
00
00
00
44
28
10
00
ENDCHAR
STARTCHAR U+02ed
ENCODING 749
SWIDTH 480 0
DWIDTH 8 0
BBX 8 16 0 -2
BITMAP
00
00
00
00
00
3c
00
3c
00
00
00
00
00
00
00
00
ENDCHAR
STARTCHAR U+02ee
ENCODING 750
SWIDTH 480 0
DWIDTH 8 0
BBX 8 16 0 -2
BITMAP
00
00
6c
24
48
00
00
00
00
00
00
00
00
00
00
00
ENDCHAR
STARTCHAR U+0300
ENCODING 768
SWIDTH 480 0
DWIDTH 8 0
BBX 8 16 0 -2
BITMAP
30
00
00
00
00
00
00
00
00
00
00
00
00
00
00
00
ENDCHAR
STARTCHAR U+0301
ENCODING 769
SWIDTH 480 0
DWIDTH 8 0
BBX 8 16 0 -2
BITMAP
10
20
00
00
00
00
00
00
00
00
00
00
00
00
00
00
ENDCHAR
STARTCHAR U+0302
ENCODING 770
SWIDTH 480 0
DWIDTH 8 0
BBX 8 16 0 -2
BITMAP
10
28
44
00
00
00
00
00
00
00
00
00
00
00
00
00
ENDCHAR
STARTCHAR U+0303
ENCODING 771
SWIDTH 480 0
DWIDTH 8 0
BBX 8 16 0 -2
BITMAP
34
58
00
00
00
00
00
00
00
00
00
00
00
00
00
00
ENDCHAR
STARTCHAR U+0304
ENCODING 772
SWIDTH 480 0
DWIDTH 8 0
BBX 8 16 0 -2
BITMAP
00
7c
00
00
00
00
00
00
00
00
00
00
00
00
00
00
ENDCHAR
STARTCHAR U+0305
ENCODING 773
SWIDTH 480 0
DWIDTH 8 0
BBX 8 16 0 -2
BITMAP
00
ff
00
00
00
00
00
00
00
00
00
00
00
00
00
00
ENDCHAR
STARTCHAR U+0306
ENCODING 774
SWIDTH 480 0
DWIDTH 8 0
BBX 8 16 0 -2
BITMAP
44
38
00
00
00
00
00
00
00
00
00
00
00
00
00
00
ENDCHAR
STARTCHAR U+0307
ENCODING 775
SWIDTH 480 0
DWIDTH 8 0
BBX 8 16 0 -2
BITMAP
10
10
00
00
00
00
00
00
00
00
00
00
00
00
00
00
ENDCHAR
STARTCHAR U+0308
ENCODING 776
SWIDTH 480 0
DWIDTH 8 0
BBX 8 16 0 -2
BITMAP
24
24
00
00
00
00
00
00
00
00
00
00
00
00
00
00
ENDCHAR
STARTCHAR U+0309
ENCODING 777
SWIDTH 480 0
DWIDTH 8 0
BBX 8 16 0 -2
BITMAP
30
18
04
08
00
00
00
00
00
00
00
00
00
00
00
00
ENDCHAR
STARTCHAR U+030a
ENCODING 778
SWIDTH 480 0
DWIDTH 8 0
BBX 8 16 0 -2
BITMAP
18
24
18
00
00
00
00
00
00
00
00
00
00
00
00
00
ENDCHAR
STARTCHAR U+030b
ENCODING 779
SWIDTH 480 0
DWIDTH 8 0
BBX 8 16 0 -2
BITMAP
24
48
00
00
00
00
00
00
00
00
00
00
00
00
00
00
ENDCHAR
STARTCHAR U+030c
ENCODING 780
SWIDTH 480 0
DWIDTH 8 0
BBX 8 16 0 -2
BITMAP
34
18
00
00
00
00
00
00
00
00
00
00
00
00
00
00
ENDCHAR
STARTCHAR U+030d
ENCODING 781
SWIDTH 480 0
DWIDTH 8 0
BBX 8 16 0 -2
BITMAP
10
10
10
00
00
00
00
00
00
00
00
00
00
00
00
00
ENDCHAR
STARTCHAR U+030e
ENCODING 782
SWIDTH 480 0
DWIDTH 8 0
BBX 8 16 0 -2
BITMAP
24
24
24
00
00
00
00
00
00
00
00
00
00
00
00
00
ENDCHAR
STARTCHAR U+030f
ENCODING 783
SWIDTH 480 0
DWIDTH 8 0
BBX 8 16 0 -2
BITMAP
90
48
24
00
00
00
00
00
00
00
00
00
00
00
00
00
ENDCHAR
STARTCHAR U+0310
ENCODING 784
SWIDTH 480 0
DWIDTH 8 0
BBX 8 16 0 -2
BITMAP
18
22
1c
00
00
00
00
00
00
00
00
00
00
00
00
00
ENDCHAR
STARTCHAR U+0311
ENCODING 785
SWIDTH 480 0
DWIDTH 8 0
BBX 8 16 0 -2
BITMAP
10
28
44
00
00
00
00
00
00
00
00
00
00
00
00
00
ENDCHAR
STARTCHAR U+0323
ENCODING 803
SWIDTH 480 0
DWIDTH 8 0
BBX 8 16 0 -2
BITMAP
00
00
00
00
00
00
00
00
00
00
00
00
00
00
10
30
ENDCHAR
STARTCHAR U+0324
ENCODING 804
SWIDTH 480 0
DWIDTH 8 0
BBX 8 16 0 -2
BITMAP
00
00
00
00
00
00
00
00
00
00
00
00
00
24
24
00
ENDCHAR
STARTCHAR U+0325
ENCODING 805
SWIDTH 480 0
DWIDTH 8 0
BBX 8 16 0 -2
BITMAP
00
00
00
00
00
00
00
00
00
00
00
00
00
30
08
10
ENDCHAR
STARTCHAR U+0326
ENCODING 806
SWIDTH 480 0
DWIDTH 8 0
BBX 8 16 0 -2
BITMAP
00
00
00
00
00
00
00
00
00
00
00
00
00
10
10
20
ENDCHAR
STARTCHAR U+0327
ENCODING 807
SWIDTH 480 0
DWIDTH 8 0
BBX 8 16 0 -2
BITMAP
00
00
00
00
00
00
00
00
00
00
00
00
00
0c
08
10
ENDCHAR
STARTCHAR U+0328
ENCODING 808
SWIDTH 480 0
DWIDTH 8 0
BBX 8 16 0 -2
BITMAP
00
00
00
00
00
00
00
00
00
00
00
00
00
00
10
00
ENDCHAR
STARTCHAR U+0329
ENCODING 809
SWIDTH 480 0
DWIDTH 8 0
BBX 8 16 0 -2
BITMAP
00
00
00
00
00
00
00
00
00
00
00
00
00
10
10
10
ENDCHAR
STARTCHAR U+032a
ENCODING 810
SWIDTH 480 0
DWIDTH 8 0
BBX 8 16 0 -2
BITMAP
00
00
00
00
00
00
00
00
00
00
00
00
00
7c
44
44
ENDCHAR
STARTCHAR U+032b
ENCODING 811
SWIDTH 480 0
DWIDTH 8 0
BBX 8 16 0 -2
BITMAP
00
00
00
00
00
00
00
00
00
00
00
00
00
2a
2a
48
ENDCHAR
STARTCHAR U+032c
ENCODING 812
SWIDTH 480 0
DWIDTH 8 0
BBX 8 16 0 -2
BITMAP
00
00
00
00
00
00
00
00
00
00
00
00
20
0c
08
10
ENDCHAR
STARTCHAR U+032d
ENCODING 813
SWIDTH 480 0
DWIDTH 8 0
BBX 8 16 0 -2
BITMAP
00
00
00
00
00
00
00
00
00
00
00
00
00
18
24
42
ENDCHAR
STARTCHAR U+032e
ENCODING 814
SWIDTH 480 0
DWIDTH 8 0
BBX 8 16 0 -2
BITMAP
00
00
00
00
00
00
00
00
00
00
00
00
00
44
38
00
ENDCHAR
STARTCHAR U+032f
ENCODING 815
SWIDTH 480 0
DWIDTH 8 0
BBX 8 16 0 -2
BITMAP
00
00
00
00
00
00
00
00
00
00
00
00
00
00
38
44
ENDCHAR
STARTCHAR U+0330
ENCODING 816
SWIDTH 480 0
DWIDTH 8 0
BBX 8 16 0 -2
BITMAP
00
00
00
00
00
00
00
00
00
00
00
00
00
00
22
5c
ENDCHAR
STARTCHAR U+0331
ENCODING 817
SWIDTH 480 0
DWIDTH 8 0
BBX 8 16 0 -2
BITMAP
00
00
00
00
00
00
00
00
00
00
00
00
00
00
fe
00
ENDCHAR
STARTCHAR U+0332
ENCODING 818
SWIDTH 480 0
DWIDTH 8 0
BBX 8 16 0 -2
BITMAP
00
00
00
00
00
00
00
00
00
00
00
00
00
00
ff
00
ENDCHAR
STARTCHAR U+0333
ENCODING 819
SWIDTH 480 0
DWIDTH 8 0
BBX 8 16 0 -2
BITMAP
00
00
00
00
00
00
00
00
00
00
00
00
ff
00
ff
00
ENDCHAR
STARTCHAR U+0338
ENCODING 824
SWIDTH 480 0
DWIDTH 8 0
BBX 8 16 0 -2
BITMAP
00
02
02
04
04
08
08
10
10
20
20
40
40
80
80
00
ENDCHAR
STARTCHAR U+0340
ENCODING 832
SWIDTH 480 0
DWIDTH 8 0
BBX 8 16 0 -2
BITMAP
30
00
00
00
00
00
00
00
00
00
00
00
00
00
00
00
ENDCHAR
STARTCHAR U+0341
ENCODING 833
SWIDTH 480 0
DWIDTH 8 0
BBX 8 16 0 -2
BITMAP
10
00
00
00
00
00
00
00
00
00
00
00
00
00
00
00
ENDCHAR
STARTCHAR U+0360
ENCODING 864
SWIDTH 480 0
DWIDTH 8 0
BBX 8 16 0 -2
BITMAP
39
46
00
00
00
00
00
00
00
00
00
00
00
00
00
00
ENDCHAR
STARTCHAR U+0361
ENCODING 865
SWIDTH 480 0
DWIDTH 8 0
BBX 8 16 0 -2
BITMAP
1e
21
00
00
00
00
00
00
00
00
00
00
00
00
00
00
ENDCHAR
STARTCHAR U+0374
ENCODING 884
SWIDTH 480 0
DWIDTH 8 0
BBX 8 16 0 -2
BITMAP
00
08
10
20
00
00
00
00
00
00
00
00
00
00
00
00
ENDCHAR
STARTCHAR U+0375
ENCODING 885
SWIDTH 480 0
DWIDTH 8 0
BBX 8 16 0 -2
BITMAP
00
00
00
00
00
00
00
00
00
00
00
00
00
08
10
20
ENDCHAR
STARTCHAR U+037a
ENCODING 890
SWIDTH 480 0
DWIDTH 8 0
BBX 8 16 0 -2
BITMAP
00
00
00
00
00
00
00
00
00
00
00
00
00
00
20
30
ENDCHAR
STARTCHAR U+037e
ENCODING 894
SWIDTH 480 0
DWIDTH 8 0
BBX 8 16 0 -2
BITMAP
00
00
00
00
18
18
00
00
00
00
18
08
08
10
00
00
ENDCHAR
STARTCHAR U+0384
ENCODING 900
SWIDTH 480 0
DWIDTH 8 0
BBX 8 16 0 -2
BITMAP
00
08
10
20
00
00
00
00
00
00
00
00
00
00
00
00
ENDCHAR
STARTCHAR U+0385
ENCODING 901
SWIDTH 480 0
DWIDTH 8 0
BBX 8 16 0 -2
BITMAP
00
08
10
42
00
00
00
00
00
00
00
00
00
00
00
00
ENDCHAR
STARTCHAR U+0386
ENCODING 902
SWIDTH 480 0
DWIDTH 8 0
BBX 8 16 0 -2
BITMAP
00
20
4c
92
12
12
12
12
12
12
1e
12
12
12
00
00
ENDCHAR
STARTCHAR U+0387
ENCODING 903
SWIDTH 480 0
DWIDTH 8 0
BBX 8 16 0 -2
BITMAP
00
00
00
00
00
00
18
18
00
00
00
00
00
00
00
00
ENDCHAR
STARTCHAR U+0388
ENCODING 904
SWIDTH 480 0
DWIDTH 8 0
BBX 8 16 0 -2
BITMAP
00
00
3c
50
90
10
10
1c
10
10
10
10
10
1e
00
00
ENDCHAR
STARTCHAR U+0389
ENCODING 905
SWIDTH 480 0
DWIDTH 8 0
BBX 8 16 0 -2
BITMAP
00
00
32
52
92
12
12
1e
12
12
12
12
12
12
00
00
ENDCHAR
STARTCHAR U+038a
ENCODING 906
SWIDTH 480 0
DWIDTH 8 0
BBX 8 16 0 -2
BITMAP
00
3c
48
88
08
08
08
08
08
08
08
08
08
1c
00
00
ENDCHAR
STARTCHAR U+038c
ENCODING 908
SWIDTH 480 0
DWIDTH 8 0
BBX 8 16 0 -2
BITMAP
00
20
4c
92
12
12
12
12
12
12
12
12
10
0c
00
00
ENDCHAR
STARTCHAR U+038e
ENCODING 910
SWIDTH 480 0
DWIDTH 8 0
BBX 8 16 0 -2
BITMAP
00
34
54
94
14
14
08
08
08
08
08
08
08
08
00
00
ENDCHAR
STARTCHAR U+038f
ENCODING 911
SWIDTH 480 0
DWIDTH 8 0
BBX 8 16 0 -2
BITMAP
00
20
4c
92
12
12
12
12
12
14
08
08
18
06
00
00
ENDCHAR
STARTCHAR U+0390
ENCODING 912
SWIDTH 480 0
DWIDTH 8 0
BBX 8 16 0 -2
BITMAP
00
08
10
42
00
10
10
10
10
10
10
12
10
0c
00
00
ENDCHAR
STARTCHAR U+0391
ENCODING 913
SWIDTH 480 0
DWIDTH 8 0
BBX 8 16 0 -2
BITMAP
00
10
10
28
28
28
44
44
44
7c
82
82
82
82
00
00
ENDCHAR
STARTCHAR U+0392
ENCODING 914
SWIDTH 480 0
DWIDTH 8 0
BBX 8 16 0 -2
BITMAP
00
f8
84
82
82
82
84
f8
84
82
82
82
84
f8
00
00
ENDCHAR
STARTCHAR U+0393
ENCODING 915
SWIDTH 480 0
DWIDTH 8 0
BBX 8 16 0 -2
BITMAP
00
fe
80
80
80
80
80
80
80
80
80
80
80
80
00
00
ENDCHAR
STARTCHAR U+0394
ENCODING 916
SWIDTH 480 0
DWIDTH 8 0
BBX 8 16 0 -2
BITMAP
00
10
10
28
28
28
44
44
44
84
84
84
82
fe
00
00
ENDCHAR
STARTCHAR U+0395
ENCODING 917
SWIDTH 480 0
DWIDTH 8 0
BBX 8 16 0 -2
BITMAP
00
fe
80
80
80
80
80
fc
80
80
80
80
80
fe
00
00
ENDCHAR
STARTCHAR U+0396
ENCODING 918
SWIDTH 480 0
DWIDTH 8 0
BBX 8 16 0 -2
BITMAP
00
fe
02
04
04
08
08
10
10
20
20
40
80
fe
00
00
ENDCHAR
STARTCHAR U+0397
ENCODING 919
SWIDTH 480 0
DWIDTH 8 0
BBX 8 16 0 -2
BITMAP
00
82
82
82
82
82
82
fe
82
82
82
82
82
82
00
00
ENDCHAR
STARTCHAR U+0398
ENCODING 920
SWIDTH 480 0
DWIDTH 8 0
BBX 8 16 0 -2
BITMAP
00
38
44
82
82
82
82
fe
82
82
82
82
44
38
00
00
ENDCHAR
STARTCHAR U+0399
ENCODING 921
SWIDTH 480 0
DWIDTH 8 0
BBX 8 16 0 -2
BITMAP
00
38
10
10
10
10
10
10
10
10
10
10
10
38
00
00
ENDCHAR
STARTCHAR U+039a
ENCODING 922
SWIDTH 480 0
DWIDTH 8 0
BBX 8 16 0 -2
BITMAP
00
82
82
84
84
84
a8
d0
a8
84
84
84
82
82
00
00
ENDCHAR
STARTCHAR U+039b
ENCODING 923
SWIDTH 480 0
DWIDTH 8 0
BBX 8 16 0 -2
BITMAP
00
10
10
28
28
28
44
44
44
84
84
84
82
82
00
00
ENDCHAR
STARTCHAR U+039c
ENCODING 924
SWIDTH 480 0
DWIDTH 8 0
BBX 8 16 0 -2
BITMAP
00
82
82
c6
c6
c6
8a
8a
8a
82
82
82
82
82
00
00
ENDCHAR
STARTCHAR U+039d
ENCODING 925
SWIDTH 480 0
DWIDTH 8 0
BBX 8 16 0 -2
BITMAP
00
82
82
c2
c2
a2
92
92
92
8a
8a
86
86
82
00
00
ENDCHAR
STARTCHAR U+039e
ENCODING 926
SWIDTH 480 0
DWIDTH 8 0
BBX 8 16 0 -2
BITMAP
00
00
fe
00
00
00
00
3c
00
00
00
00
00
fe
00
00
ENDCHAR
STARTCHAR U+039f
ENCODING 927
SWIDTH 480 0
DWIDTH 8 0
BBX 8 16 0 -2
BITMAP
00
38
44
82
82
82
82
82
82
82
82
82
44
38
00
00
ENDCHAR
STARTCHAR U+03a0
ENCODING 928
SWIDTH 480 0
DWIDTH 8 0
BBX 8 16 0 -2
BITMAP
00
fc
84
44
44
44
44
44
44
44
44
44
44
44
00
00
ENDCHAR
STARTCHAR U+03a1
ENCODING 929
SWIDTH 480 0
DWIDTH 8 0
BBX 8 16 0 -2
BITMAP
00
f8
84
82
82
82
84
f8
80
80
80
80
80
80
00
00
ENDCHAR
STARTCHAR U+03a3
ENCODING 931
SWIDTH 480 0
DWIDTH 8 0
BBX 8 16 0 -2
BITMAP
00
ff
80
40
20
10
08
08
10
20
40
40
80
ff
00
00
ENDCHAR
STARTCHAR U+03a4
ENCODING 932
SWIDTH 480 0
DWIDTH 8 0
BBX 8 16 0 -2
BITMAP
00
00
fc
10
10
10
10
10
10
10
10
10
10
10
00
00
ENDCHAR
STARTCHAR U+03a5
ENCODING 933
SWIDTH 480 0
DWIDTH 8 0
BBX 8 16 0 -2
BITMAP
00
84
84
44
44
44
28
28
10
10
10
10
10
10
00
00
ENDCHAR
STARTCHAR U+03a6
ENCODING 934
SWIDTH 480 0
DWIDTH 8 0
BBX 8 16 0 -2
BITMAP
00
10
10
7c
92
92
92
92
92
92
54
38
10
10
00
00
ENDCHAR
STARTCHAR U+03a7
ENCODING 935
SWIDTH 480 0
DWIDTH 8 0
BBX 8 16 0 -2
BITMAP
00
82
82
44
44
44
28
28
28
24
44
44
82
82
00
00
ENDCHAR
STARTCHAR U+03a8
ENCODING 936
SWIDTH 480 0
DWIDTH 8 0
BBX 8 16 0 -2
BITMAP
00
92
92
92
92
92
92
92
92
10
10
10
10
10
00
00
ENDCHAR
STARTCHAR U+03a9
ENCODING 937
SWIDTH 480 0
DWIDTH 8 0
BBX 8 16 0 -2
BITMAP
00
38
44
82
82
82
82
82
82
82
44
44
28
ee
00
00
ENDCHAR
STARTCHAR U+03aa
ENCODING 938
SWIDTH 480 0
DWIDTH 8 0
BBX 8 16 0 -2
BITMAP
44
44
00
38
10
10
10
10
10
10
10
10
10
38
00
00
ENDCHAR
STARTCHAR U+03ab
ENCODING 939
SWIDTH 480 0
DWIDTH 8 0
BBX 8 16 0 -2
BITMAP
44
44
00
44
44
44
28
28
10
10
10
10
10
10
00
00
ENDCHAR
STARTCHAR U+03ac
ENCODING 940
SWIDTH 480 0
DWIDTH 8 0
BBX 8 16 0 -2
BITMAP
00
18
10
00
00
3a
46
82
82
82
82
82
86
7a
00
00
ENDCHAR
STARTCHAR U+03ad
ENCODING 941
SWIDTH 480 0
DWIDTH 8 0
BBX 8 16 0 -2
BITMAP
00
08
10
00
00
38
46
00
3c
40
80
80
84
78
00
00
ENDCHAR
STARTCHAR U+03ae
ENCODING 942
SWIDTH 480 0
DWIDTH 8 0
BBX 8 16 0 -2
BITMAP
00
04
08
00
00
5c
62
42
42
42
42
42
42
42
02
02
ENDCHAR
STARTCHAR U+03af
ENCODING 943
SWIDTH 480 0
DWIDTH 8 0
BBX 8 16 0 -2
BITMAP
00
08
10
00
00
10
10
10
10
10
10
10
10
0c
00
00
ENDCHAR
STARTCHAR U+03b0
ENCODING 944
SWIDTH 480 0
DWIDTH 8 0
BBX 8 16 0 -2
BITMAP
00
08
10
a2
00
82
82
82
82
82
82
82
44
38
00
00
ENDCHAR
STARTCHAR U+03b1
ENCODING 945
SWIDTH 480 0
DWIDTH 8 0
BBX 8 16 0 -2
BITMAP
00
00
00
00
00
3a
46
82
82
82
82
82
86
7a
00
00
ENDCHAR
STARTCHAR U+03b2
ENCODING 946
SWIDTH 480 0
DWIDTH 8 0
BBX 8 16 0 -2
BITMAP
00
78
84
84
84
84
98
e4
82
82
82
82
a4
98
80
80
ENDCHAR
STARTCHAR U+03b3
ENCODING 947
SWIDTH 480 0
DWIDTH 8 0
BBX 8 16 0 -2
BITMAP
00
00
00
00
00
44
44
44
44
28
28
10
10
10
10
10
ENDCHAR
STARTCHAR U+03b4
ENCODING 948
SWIDTH 480 0
DWIDTH 8 0
BBX 8 16 0 -2
BITMAP
00
38
44
40
20
38
44
82
82
82
82
82
44
38
00
00
ENDCHAR
STARTCHAR U+03b5
ENCODING 949
SWIDTH 480 0
DWIDTH 8 0
BBX 8 16 0 -2
BITMAP
00
00
00
00
00
38
46
40
30
40
80
82
44
38
00
00
ENDCHAR
STARTCHAR U+03b6
ENCODING 950
SWIDTH 480 0
DWIDTH 8 0
BBX 8 16 0 -2
BITMAP
00
fe
00
20
20
20
40
40
40
40
40
40
3c
02
02
0c
ENDCHAR
STARTCHAR U+03b7
ENCODING 951
SWIDTH 480 0
DWIDTH 8 0
BBX 8 16 0 -2
BITMAP
00
00
00
00
00
5c
62
42
42
42
42
42
42
42
02
02
ENDCHAR
STARTCHAR U+03b8
ENCODING 952
SWIDTH 480 0
DWIDTH 8 0
BBX 8 16 0 -2
BITMAP
00
38
44
82
82
82
82
fe
82
82
82
82
44
38
00
00
ENDCHAR
STARTCHAR U+03b9
ENCODING 953
SWIDTH 480 0
DWIDTH 8 0
BBX 8 16 0 -2
BITMAP
00
00
00
00
00
20
20
20
20
20
20
24
18
00
00
00
ENDCHAR
STARTCHAR U+03ba
ENCODING 954
SWIDTH 480 0
DWIDTH 8 0
BBX 8 16 0 -2
BITMAP
00
00
00
00
00
42
44
48
50
60
50
48
44
42
00
00
ENDCHAR
STARTCHAR U+03bb
ENCODING 955
SWIDTH 480 0
DWIDTH 8 0
BBX 8 16 0 -2
BITMAP
00
38
44
02
02
3a
46
82
82
82
82
82
82
82
00
00
ENDCHAR
STARTCHAR U+03bc
ENCODING 956
SWIDTH 480 0
DWIDTH 8 0
BBX 8 16 0 -2
BITMAP
00
00
00
00
00
82
82
82
82
82
c4
c4
ba
82
80
80
ENDCHAR
STARTCHAR U+03bd
ENCODING 957
SWIDTH 480 0
DWIDTH 8 0
BBX 8 16 0 -2
BITMAP
00
00
00
00
00
82
82
82
44
44
28
28
10
10
00
00
ENDCHAR
STARTCHAR U+03be
ENCODING 958
SWIDTH 480 0
DWIDTH 8 0
BBX 8 16 0 -2
BITMAP
00
fe
20
20
20
20
40
3c
40
80
80
80
7c
02
02
0c
ENDCHAR
STARTCHAR U+03bf
ENCODING 959
SWIDTH 480 0
DWIDTH 8 0
BBX 8 16 0 -2
BITMAP
00
00
00
00
00
38
44
82
82
82
82
82
44
38
00
00
ENDCHAR
STARTCHAR U+03c0
ENCODING 960
SWIDTH 480 0
DWIDTH 8 0
BBX 8 16 0 -2
BITMAP
00
00
00
00
00
fe
44
44
44
44
44
44
44
44
00
00
ENDCHAR
STARTCHAR U+03c1
ENCODING 961
SWIDTH 480 0
DWIDTH 8 0
BBX 8 16 0 -2
BITMAP
00
00
00
00
00
38
44
82
82
82
82
c4
b8
80
80
80
ENDCHAR
STARTCHAR U+03c2
ENCODING 962
SWIDTH 480 0
DWIDTH 8 0
BBX 8 16 0 -2
BITMAP
00
00
00
00
00
3c
42
40
40
40
40
40
20
1c
02
1c
ENDCHAR
STARTCHAR U+03c3
ENCODING 963
SWIDTH 480 0
DWIDTH 8 0
BBX 8 16 0 -2
BITMAP
00
00
00
00
00
3a
44
80
80
82
82
82
44
38
00
00
ENDCHAR
STARTCHAR U+03c4
ENCODING 964
SWIDTH 480 0
DWIDTH 8 0
BBX 8 16 0 -2
BITMAP
00
00
00
00
00
7e
10
10
10
10
10
12
0c
00
00
00
ENDCHAR
STARTCHAR U+03c5
ENCODING 965
SWIDTH 480 0
DWIDTH 8 0
BBX 8 16 0 -2
BITMAP
00
00
00
00
00
82
82
82
82
82
82
82
44
38
00
00
ENDCHAR
STARTCHAR U+03c6
ENCODING 966
SWIDTH 480 0
DWIDTH 8 0
BBX 8 16 0 -2
BITMAP
00
00
00
00
00
24
48
92
92
92
92
54
38
10
10
10
ENDCHAR
STARTCHAR U+03c7
ENCODING 967
SWIDTH 480 0
DWIDTH 8 0
BBX 8 16 0 -2
BITMAP
00
00
00
00
00
42
42
24
24
10
28
28
44
44
82
82
ENDCHAR
STARTCHAR U+03c8
ENCODING 968
SWIDTH 480 0
DWIDTH 8 0
BBX 8 16 0 -2
BITMAP
00
00
00
00
00
92
92
92
92
56
56
38
10
10
10
10
ENDCHAR
STARTCHAR U+03c9
ENCODING 969
SWIDTH 480 0
DWIDTH 8 0
BBX 8 16 0 -2
BITMAP
00
00
00
00
00
92
92
92
92
aa
aa
44
10
10
00
00
ENDCHAR
STARTCHAR U+03ca
ENCODING 970
SWIDTH 480 0
DWIDTH 8 0
BBX 8 16 0 -2
BITMAP
00
00
00
42
00
10
10
10
10
10
10
12
10
0c
00
00
ENDCHAR
STARTCHAR U+03cb
ENCODING 971
SWIDTH 480 0
DWIDTH 8 0
BBX 8 16 0 -2
BITMAP
00
80
80
02
00
82
82
82
82
82
82
82
44
38
00
00
ENDCHAR
STARTCHAR U+03cc
ENCODING 972
SWIDTH 480 0
DWIDTH 8 0
BBX 8 16 0 -2
BITMAP
00
18
10
20
00
38
44
82
82
82
82
82
44
38
00
00
ENDCHAR
STARTCHAR U+03cd
ENCODING 973
SWIDTH 480 0
DWIDTH 8 0
BBX 8 16 0 -2
BITMAP
00
18
10
20
00
82
82
82
82
82
82
82
44
38
00
00
ENDCHAR
STARTCHAR U+03ce
ENCODING 974
SWIDTH 480 0
DWIDTH 8 0
BBX 8 16 0 -2
BITMAP
00
18
10
20
00
82
92
92
92
52
52
50
10
10
00
00
ENDCHAR
STARTCHAR U+03d0
ENCODING 976
SWIDTH 480 0
DWIDTH 8 0
BBX 8 16 0 -2
BITMAP
00
38
44
84
84
84
98
a4
c2
82
82
44
28
10
00
00
ENDCHAR
STARTCHAR U+03d1
ENCODING 977
SWIDTH 480 0
DWIDTH 8 0
BBX 8 16 0 -2
BITMAP
00
00
38
44
44
3e
04
04
c4
44
44
44
24
18
00
00
ENDCHAR
STARTCHAR U+03d2
ENCODING 978
SWIDTH 480 0
DWIDTH 8 0
BBX 8 16 0 -2
BITMAP
00
44
a8
4a
08
08
10
10
10
10
10
10
10
10
00
00
ENDCHAR
STARTCHAR U+03d3
ENCODING 979
SWIDTH 480 0
DWIDTH 8 0
BBX 8 16 0 -2
BITMAP
00
00
a4
aa
28
28
10
10
10
10
10
10
10
10
00
00
ENDCHAR
STARTCHAR U+03d4
ENCODING 980
SWIDTH 480 0
DWIDTH 8 0
BBX 8 16 0 -2
BITMAP
44
44
00
00
82
44
08
10
10
10
10
10
10
10
00
00
ENDCHAR
STARTCHAR U+03d5
ENCODING 981
SWIDTH 480 0
DWIDTH 8 0
BBX 8 16 0 -2
BITMAP
00
00
00
10
10
38
54
92
92
92
92
54
38
10
10
10
ENDCHAR
STARTCHAR U+03d6
ENCODING 982
SWIDTH 480 0
DWIDTH 8 0
BBX 8 16 0 -2
BITMAP
00
00
00
00
00
fe
44
54
54
54
54
54
28
28
00
00
ENDCHAR
STARTCHAR U+03d7
ENCODING 983
SWIDTH 480 0
DWIDTH 8 0
BBX 8 16 0 -2
BITMAP
00
20
10
08
00
42
22
24
28
38
28
28
44
82
02
7c
ENDCHAR
STARTCHAR U+03da
ENCODING 986
SWIDTH 480 0
DWIDTH 8 0
BBX 8 16 0 -2
BITMAP
00
38
44
82
80
80
80
80
80
80
40
3c
02
0c
00
00
ENDCHAR
STARTCHAR U+03db
ENCODING 987
SWIDTH 480 0
DWIDTH 8 0
BBX 8 16 0 -2
BITMAP
00
00
00
00
00
3e
40
80
80
80
40
40
3c
02
02
1c
ENDCHAR
STARTCHAR U+03dc
ENCODING 988
SWIDTH 480 0
DWIDTH 8 0
BBX 8 16 0 -2
BITMAP
00
fe
80
80
80
80
80
f0
80
80
80
80
80
80
00
00
ENDCHAR
STARTCHAR U+03dd
ENCODING 989
SWIDTH 480 0
DWIDTH 8 0
BBX 8 16 0 -2
BITMAP
00
00
00
00
00
78
40
40
40
78
40
40
40
40
40
40
ENDCHAR
STARTCHAR U+03de
ENCODING 990
SWIDTH 480 0
DWIDTH 8 0
BBX 8 16 0 -2
BITMAP
00
80
80
40
40
44
4c
54
64
c4
84
04
02
00
00
00
ENDCHAR
STARTCHAR U+03df
ENCODING 991
SWIDTH 480 0
DWIDTH 8 0
BBX 8 16 0 -2
BITMAP
00
10
10
20
20
20
40
40
80
fe
04
04
08
08
10
10
ENDCHAR
STARTCHAR U+03e0
ENCODING 992
SWIDTH 480 0
DWIDTH 8 0
BBX 8 16 0 -2
BITMAP
00
10
10
28
28
28
48
48
48
48
4a
4a
92
92
00
00
ENDCHAR
STARTCHAR U+03e1
ENCODING 993
SWIDTH 480 0
DWIDTH 8 0
BBX 8 16 0 -2
BITMAP
00
00
c0
20
10
08
08
0c
14
0a
12
22
02
02
02
02
ENDCHAR
STARTCHAR U+03e2
ENCODING 994
SWIDTH 480 0
DWIDTH 8 0
BBX 8 16 0 -2
BITMAP
00
00
92
92
92
92
92
92
92
b2
4a
4a
04
38
00
00
ENDCHAR
STARTCHAR U+03e3
ENCODING 995
SWIDTH 480 0
DWIDTH 8 0
BBX 8 16 0 -2
BITMAP
00
00
00
00
00
92
92
92
92
b2
b2
4a
04
78
00
00
ENDCHAR
STARTCHAR U+03e4
ENCODING 996
SWIDTH 480 0
DWIDTH 8 0
BBX 8 16 0 -2
BITMAP
00
02
32
42
42
42
42
42
42
3e
02
02
02
02
00
00
ENDCHAR
STARTCHAR U+03e5
ENCODING 997
SWIDTH 480 0
DWIDTH 8 0
BBX 8 16 0 -2
BITMAP
00
00
28
48
48
48
48
48
38
08
08
08
08
08
00
00
ENDCHAR
STARTCHAR U+03e6
ENCODING 998
SWIDTH 480 0
DWIDTH 8 0
BBX 8 16 0 -2
BITMAP
00
00
c0
40
40
40
40
7c
42
42
42
42
42
e4
18
00
ENDCHAR
STARTCHAR U+03e7
ENCODING 999
SWIDTH 480 0
DWIDTH 8 0
BBX 8 16 0 -2
BITMAP
00
00
00
00
10
10
30
5e
32
02
02
82
44
38
00
00
ENDCHAR
STARTCHAR U+03e8
ENCODING 1000
SWIDTH 480 0
DWIDTH 8 0
BBX 8 16 0 -2
BITMAP
00
38
44
82
82
82
04
18
30
42
82
82
44
38
00
00
ENDCHAR
STARTCHAR U+03e9
ENCODING 1001
SWIDTH 480 0
DWIDTH 8 0
BBX 8 16 0 -2
BITMAP
00
00
00
00
3c
42
82
44
28
10
20
40
40
3e
00
00
ENDCHAR
STARTCHAR U+03ea
ENCODING 1002
SWIDTH 480 0
DWIDTH 8 0
BBX 8 16 0 -2
BITMAP
00
00
6c
10
10
10
28
28
28
44
44
82
82
fe
00
00
ENDCHAR
STARTCHAR U+03eb
ENCODING 1003
SWIDTH 480 0
DWIDTH 8 0
BBX 8 16 0 -2
BITMAP
00
00
00
00
00
6e
10
10
28
10
28
28
44
7c
00
00
ENDCHAR
STARTCHAR U+03ec
ENCODING 1004
SWIDTH 480 0
DWIDTH 8 0
BBX 8 16 0 -2
BITMAP
00
38
44
80
98
e4
82
82
82
82
82
82
44
38
00
00
ENDCHAR
STARTCHAR U+03ed
ENCODING 1005
SWIDTH 480 0
DWIDTH 8 0
BBX 8 16 0 -2
BITMAP
00
00
00
00
00
38
40
80
9c
82
82
82
44
38
00
00
ENDCHAR
STARTCHAR U+03ee
ENCODING 1006
SWIDTH 480 0
DWIDTH 8 0
BBX 8 16 0 -2
BITMAP
00
00
38
10
7c
54
10
10
10
10
10
10
10
10
00
00
ENDCHAR
STARTCHAR U+03ef
ENCODING 1007
SWIDTH 480 0
DWIDTH 8 0
BBX 8 16 0 -2
BITMAP
00
00
00
00
10
10
10
7c
50
10
10
10
10
10
00
00
ENDCHAR
STARTCHAR U+03f0
ENCODING 1008
SWIDTH 480 0
DWIDTH 8 0
BBX 8 16 0 -2
BITMAP
00
00
00
00
00
42
24
28
28
30
28
28
44
82
00
00
ENDCHAR
STARTCHAR U+03f1
ENCODING 1009
SWIDTH 480 0
DWIDTH 8 0
BBX 8 16 0 -2
BITMAP
00
00
00
00
00
38
44
82
82
82
82
c4
b8
80
5c
1e
ENDCHAR
STARTCHAR U+03f2
ENCODING 1010
SWIDTH 480 0
DWIDTH 8 0
BBX 8 16 0 -2
BITMAP
00
00
00
00
00
38
44
82
80
80
80
82
44
38
00
00
ENDCHAR
STARTCHAR U+03f3
ENCODING 1011
SWIDTH 480 0
DWIDTH 8 0
BBX 8 16 0 -2
BITMAP
00
08
08
00
00
18
08
08
08
08
08
08
08
08
08
60
ENDCHAR
STARTCHAR U+03f4
ENCODING 1012
SWIDTH 480 0
DWIDTH 8 0
BBX 8 16 0 -2
BITMAP
00
38
44
82
82
82
82
fe
82
82
82
82
44
38
00
00
ENDCHAR
STARTCHAR U+03f5
ENCODING 1013
SWIDTH 480 0
DWIDTH 8 0
BBX 8 16 0 -2
BITMAP
00
00
00
00
00
3c
40
40
78
40
40
40
20
1c
00
00
ENDCHAR
STARTCHAR U+0400
ENCODING 1024
SWIDTH 480 0
DWIDTH 8 0
BBX 8 16 0 -2
BITMAP
30
10
08
fe
80
80
80
fc
80
80
80
80
80
fe
00
00
ENDCHAR
STARTCHAR U+0401
ENCODING 1025
SWIDTH 480 0
DWIDTH 8 0
BBX 8 16 0 -2
BITMAP
44
44
00
fe
80
80
80
fc
80
80
80
80
80
fe
00
00
ENDCHAR
STARTCHAR U+0402
ENCODING 1026
SWIDTH 480 0
DWIDTH 8 0
BBX 8 16 0 -2
BITMAP
00
00
fc
10
10
10
1c
12
12
12
12
12
12
12
00
0c
ENDCHAR
STARTCHAR U+0403
ENCODING 1027
SWIDTH 480 0
DWIDTH 8 0
BBX 8 16 0 -2
BITMAP
18
10
20
fe
80
80
80
80
80
80
80
80
80
80
00
00
ENDCHAR
STARTCHAR U+0404
ENCODING 1028
SWIDTH 480 0
DWIDTH 8 0
BBX 8 16 0 -2
BITMAP
00
38
44
42
80
80
80
f8
80
80
80
42
44
38
00
00
ENDCHAR
STARTCHAR U+0405
ENCODING 1029
SWIDTH 480 0
DWIDTH 8 0
BBX 8 16 0 -2
BITMAP
00
38
44
82
82
80
60
18
04
02
82
82
44
38
00
00
ENDCHAR
STARTCHAR U+0406
ENCODING 1030
SWIDTH 480 0
DWIDTH 8 0
BBX 8 16 0 -2
BITMAP
00
38
10
10
10
10
10
10
10
10
10
10
10
38
00
00
ENDCHAR
STARTCHAR U+0407
ENCODING 1031
SWIDTH 480 0
DWIDTH 8 0
BBX 8 16 0 -2
BITMAP
44
44
00
38
10
10
10
10
10
10
10
10
10
38
00
00
ENDCHAR
STARTCHAR U+0408
ENCODING 1032
SWIDTH 480 0
DWIDTH 8 0
BBX 8 16 0 -2
BITMAP
00
1c
08
08
08
08
08
08
08
08
08
08
88
70
00
00
ENDCHAR
STARTCHAR U+0409
ENCODING 1033
SWIDTH 480 0
DWIDTH 8 0
BBX 8 16 0 -2
BITMAP
00
70
90
90
90
90
50
9c
92
92
92
92
90
9c
00
00
ENDCHAR
STARTCHAR U+040a
ENCODING 1034
SWIDTH 480 0
DWIDTH 8 0
BBX 8 16 0 -2
BITMAP
00
90
90
90
90
90
90
fc
92
92
92
92
90
9c
00
00
ENDCHAR
STARTCHAR U+040b
ENCODING 1035
SWIDTH 480 0
DWIDTH 8 0
BBX 8 16 0 -2
BITMAP
00
00
fc
20
20
20
38
24
22
22
22
22
22
22
00
00
ENDCHAR
STARTCHAR U+040c
ENCODING 1036
SWIDTH 480 0
DWIDTH 8 0
BBX 8 16 0 -2
BITMAP
18
10
20
84
88
90
a0
c0
a0
90
88
84
82
82
00
00
ENDCHAR
STARTCHAR U+040d
ENCODING 1037
SWIDTH 480 0
DWIDTH 8 0
BBX 8 16 0 -2
BITMAP
10
10
88
82
82
82
86
8a
92
a2
c2
c2
82
82
00
00
ENDCHAR
STARTCHAR U+040e
ENCODING 1038
SWIDTH 480 0
DWIDTH 8 0
BBX 8 16 0 -2
BITMAP
34
38
00
82
82
82
82
82
82
14
08
08
48
30
00
00
ENDCHAR
STARTCHAR U+040f
ENCODING 1039
SWIDTH 480 0
DWIDTH 8 0
BBX 8 16 0 -2
BITMAP
00
82
82
82
82
82
82
82
82
82
82
82
86
fe
30
10
ENDCHAR
STARTCHAR U+0410
ENCODING 1040
SWIDTH 480 0
DWIDTH 8 0
BBX 8 16 0 -2
BITMAP
00
10
10
28
28
28
44
44
44
7c
82
82
82
82
00
00
ENDCHAR
STARTCHAR U+0411
ENCODING 1041
SWIDTH 480 0
DWIDTH 8 0
BBX 8 16 0 -2
BITMAP
00
fc
80
80
80
80
80
f8
84
82
82
82
84
f8
00
00
ENDCHAR
STARTCHAR U+0412
ENCODING 1042
SWIDTH 480 0
DWIDTH 8 0
BBX 8 16 0 -2
BITMAP
00
f8
84
82
82
82
84
f8
84
82
82
82
84
f8
00
00
ENDCHAR
STARTCHAR U+0413
ENCODING 1043
SWIDTH 480 0
DWIDTH 8 0
BBX 8 16 0 -2
BITMAP
00
fe
80
80
80
80
80
80
80
80
80
80
80
80
00
00
ENDCHAR
STARTCHAR U+0414
ENCODING 1044
SWIDTH 480 0
DWIDTH 8 0
BBX 8 16 0 -2
BITMAP
00
1c
24
24
24
24
44
44
44
44
44
44
fe
82
00
00
ENDCHAR
STARTCHAR U+0415
ENCODING 1045
SWIDTH 480 0
DWIDTH 8 0
BBX 8 16 0 -2
BITMAP
00
fe
80
80
80
80
80
fc
80
80
80
80
80
fe
00
00
ENDCHAR
STARTCHAR U+0416
ENCODING 1046
SWIDTH 480 0
DWIDTH 8 0
BBX 8 16 0 -2
BITMAP
00
92
92
54
54
54
38
54
54
52
92
92
92
92
00
00
ENDCHAR
STARTCHAR U+0417
ENCODING 1047
SWIDTH 480 0
DWIDTH 8 0
BBX 8 16 0 -2
BITMAP
00
38
44
82
02
02
04
18
04
02
82
82
44
38
00
00
ENDCHAR
STARTCHAR U+0418
ENCODING 1048
SWIDTH 480 0
DWIDTH 8 0
BBX 8 16 0 -2
BITMAP
00
82
82
82
86
86
8a
92
a2
a2
c2
c2
82
82
00
00
ENDCHAR
STARTCHAR U+0419
ENCODING 1049
SWIDTH 480 0
DWIDTH 8 0
BBX 8 16 0 -2
BITMAP
54
38
80
82
82
82
8a
92
a2
c2
82
82
82
82
00
00
ENDCHAR
STARTCHAR U+041a
ENCODING 1050
SWIDTH 480 0
DWIDTH 8 0
BBX 8 16 0 -2
BITMAP
00
82
82
84
84
88
a8
d0
a8
84
82
82
82
82
00
00
ENDCHAR
STARTCHAR U+041b
ENCODING 1051
SWIDTH 480 0
DWIDTH 8 0
BBX 8 16 0 -2
BITMAP
00
00
3e
22
22
22
22
22
22
22
22
22
42
82
00
00
ENDCHAR
STARTCHAR U+041c
ENCODING 1052
SWIDTH 480 0
DWIDTH 8 0
BBX 8 16 0 -2
BITMAP
00
82
82
c6
c6
c6
8a
8a
8a
82
82
82
82
82
00
00
ENDCHAR
STARTCHAR U+041d
ENCODING 1053
SWIDTH 480 0
DWIDTH 8 0
BBX 8 16 0 -2
BITMAP
00
82
82
82
82
82
82
fe
82
82
82
82
82
82
00
00
ENDCHAR
STARTCHAR U+041e
ENCODING 1054
SWIDTH 480 0
DWIDTH 8 0
BBX 8 16 0 -2
BITMAP
00
38
44
82
82
82
82
82
82
82
82
82
44
38
00
00
ENDCHAR
STARTCHAR U+041f
ENCODING 1055
SWIDTH 480 0
DWIDTH 8 0
BBX 8 16 0 -2
BITMAP
00
fe
82
82
82
82
82
82
82
82
82
82
82
82
00
00
ENDCHAR
STARTCHAR U+0420
ENCODING 1056
SWIDTH 480 0
DWIDTH 8 0
BBX 8 16 0 -2
BITMAP
00
f8
84
82
82
82
84
f8
80
80
80
80
80
80
00
00
ENDCHAR
STARTCHAR U+0421
ENCODING 1057
SWIDTH 480 0
DWIDTH 8 0
BBX 8 16 0 -2
BITMAP
00
38
44
82
80
80
80
80
80
80
80
82
44
38
00
00
ENDCHAR
STARTCHAR U+0422
ENCODING 1058
SWIDTH 480 0
DWIDTH 8 0
BBX 8 16 0 -2
BITMAP
00
00
fc
10
10
10
10
10
10
10
10
10
10
10
00
00
ENDCHAR
STARTCHAR U+0423
ENCODING 1059
SWIDTH 480 0
DWIDTH 8 0
BBX 8 16 0 -2
BITMAP
00
82
82
82
82
82
92
52
32
04
04
84
48
30
00
00
ENDCHAR
STARTCHAR U+0424
ENCODING 1060
SWIDTH 480 0
DWIDTH 8 0
BBX 8 16 0 -2
BITMAP
00
10
10
7c
92
92
92
92
92
94
58
30
10
10
00
00
ENDCHAR
STARTCHAR U+0425
ENCODING 1061
SWIDTH 480 0
DWIDTH 8 0
BBX 8 16 0 -2
BITMAP
00
80
80
44
44
44
28
28
28
24
44
44
82
82
00
00
ENDCHAR
STARTCHAR U+0426
ENCODING 1062
SWIDTH 480 0
DWIDTH 8 0
BBX 8 16 0 -2
BITMAP
00
84
84
84
84
84
84
84
84
84
84
84
fe
02
02
02
ENDCHAR
STARTCHAR U+0427
ENCODING 1063
SWIDTH 480 0
DWIDTH 8 0
BBX 8 16 0 -2
BITMAP
00
82
82
82
82
82
82
42
3e
02
02
02
02
02
00
00
ENDCHAR
STARTCHAR U+0428
ENCODING 1064
SWIDTH 480 0
DWIDTH 8 0
BBX 8 16 0 -2
BITMAP
00
92
92
92
92
92
92
92
92
92
92
92
92
fe
00
00
ENDCHAR
STARTCHAR U+0429
ENCODING 1065
SWIDTH 480 0
DWIDTH 8 0
BBX 8 16 0 -2
BITMAP
00
92
92
92
92
92
92
92
92
92
92
92
fe
02
02
02
ENDCHAR
STARTCHAR U+042a
ENCODING 1066
SWIDTH 480 0
DWIDTH 8 0
BBX 8 16 0 -2
BITMAP
00
e0
20
20
20
20
20
3c
22
22
22
22
24
38
00
00
ENDCHAR
STARTCHAR U+042b
ENCODING 1067
SWIDTH 480 0
DWIDTH 8 0
BBX 8 16 0 -2
BITMAP
00
82
82
82
82
82
e2
92
92
8a
8a
8a
8a
f2
00
00
ENDCHAR
STARTCHAR U+042c
ENCODING 1068
SWIDTH 480 0
DWIDTH 8 0
BBX 8 16 0 -2
BITMAP
00
00
80
80
80
80
80
f8
84
84
84
84
84
f8
00
00
ENDCHAR
STARTCHAR U+042d
ENCODING 1069
SWIDTH 480 0
DWIDTH 8 0
BBX 8 16 0 -2
BITMAP
00
30
48
84
04
02
02
3e
02
02
04
84
48
30
00
00
ENDCHAR
STARTCHAR U+042e
ENCODING 1070
SWIDTH 480 0
DWIDTH 8 0
BBX 8 16 0 -2
BITMAP
00
0c
90
92
92
92
92
f2
92
92
92
92
90
8c
00
00
ENDCHAR
STARTCHAR U+042f
ENCODING 1071
SWIDTH 480 0
DWIDTH 8 0
BBX 8 16 0 -2
BITMAP
00
3e
42
82
82
82
82
42
3e
22
42
42
82
82
00
00
ENDCHAR
STARTCHAR U+0430
ENCODING 1072
SWIDTH 480 0
DWIDTH 8 0
BBX 8 16 0 -2
BITMAP
00
00
00
00
00
38
42
02
3e
46
82
82
86
7a
00
00
ENDCHAR
STARTCHAR U+0431
ENCODING 1073
SWIDTH 480 0
DWIDTH 8 0
BBX 8 16 0 -2
BITMAP
00
00
00
00
00
38
c4
82
82
82
82
82
44
38
00
00
ENDCHAR
STARTCHAR U+0432
ENCODING 1074
SWIDTH 480 0
DWIDTH 8 0
BBX 8 16 0 -2
BITMAP
00
00
00
00
00
f8
84
84
e4
84
82
82
84
f8
00
00
ENDCHAR
STARTCHAR U+0433
ENCODING 1075
SWIDTH 480 0
DWIDTH 8 0
BBX 8 16 0 -2
BITMAP
00
00
00
00
00
7c
40
40
40
40
40
40
40
40
00
00
ENDCHAR
STARTCHAR U+0434
ENCODING 1076
SWIDTH 480 0
DWIDTH 8 0
BBX 8 16 0 -2
BITMAP
00
00
00
00
00
00
1c
24
24
24
44
44
fc
82
02
00
ENDCHAR
STARTCHAR U+0435
ENCODING 1077
SWIDTH 480 0
DWIDTH 8 0
BBX 8 16 0 -2
BITMAP
00
00
00
00
00
38
44
82
82
fe
80
82
44
38
00
00
ENDCHAR
STARTCHAR U+0436
ENCODING 1078
SWIDTH 480 0
DWIDTH 8 0
BBX 8 16 0 -2
BITMAP
00
00
00
00
00
92
92
92
54
38
54
92
92
92
00
00
ENDCHAR
STARTCHAR U+0437
ENCODING 1079
SWIDTH 480 0
DWIDTH 8 0
BBX 8 16 0 -2
BITMAP
00
00
00
00
00
38
42
02
0e
04
02
42
44
38
00
00
ENDCHAR
STARTCHAR U+0438
ENCODING 1080
SWIDTH 480 0
DWIDTH 8 0
BBX 8 16 0 -2
BITMAP
00
00
00
00
00
82
82
86
8a
92
a2
c2
82
82
00
00
ENDCHAR
STARTCHAR U+0439
ENCODING 1081
SWIDTH 480 0
DWIDTH 8 0
BBX 8 16 0 -2
BITMAP
00
00
44
38
00
82
86
8a
92
a2
c2
c2
82
82
00
00
ENDCHAR
STARTCHAR U+043a
ENCODING 1082
SWIDTH 480 0
DWIDTH 8 0
BBX 8 16 0 -2
BITMAP
00
00
00
00
00
82
84
88
90
e8
84
84
82
82
00
00
ENDCHAR
STARTCHAR U+043b
ENCODING 1083
SWIDTH 480 0
DWIDTH 8 0
BBX 8 16 0 -2
BITMAP
00
00
00
00
00
1e
12
22
22
22
22
22
42
82
00
00
ENDCHAR
STARTCHAR U+043c
ENCODING 1084
SWIDTH 480 0
DWIDTH 8 0
BBX 8 16 0 -2
BITMAP
00
00
00
00
00
82
82
c6
aa
92
92
82
82
82
00
00
ENDCHAR
STARTCHAR U+043d
ENCODING 1085
SWIDTH 480 0
DWIDTH 8 0
BBX 8 16 0 -2
BITMAP
00
00
00
00
00
82
82
82
82
fe
82
82
82
82
00
00
ENDCHAR
STARTCHAR U+043e
ENCODING 1086
SWIDTH 480 0
DWIDTH 8 0
BBX 8 16 0 -2
BITMAP
00
00
00
00
00
38
44
82
82
82
82
82
44
38
00
00
ENDCHAR
STARTCHAR U+043f
ENCODING 1087
SWIDTH 480 0
DWIDTH 8 0
BBX 8 16 0 -2
BITMAP
00
00
00
00
00
fe
82
82
82
82
82
82
82
82
00
00
ENDCHAR
STARTCHAR U+0440
ENCODING 1088
SWIDTH 480 0
DWIDTH 8 0
BBX 8 16 0 -2
BITMAP
00
00
00
00
00
b8
c4
82
82
82
82
c4
b8
80
80
80
ENDCHAR
STARTCHAR U+0441
ENCODING 1089
SWIDTH 480 0
DWIDTH 8 0
BBX 8 16 0 -2
BITMAP
00
00
00
00
00
38
44
82
80
80
80
82
44
38
00
00
ENDCHAR
STARTCHAR U+0442
ENCODING 1090
SWIDTH 480 0
DWIDTH 8 0
BBX 8 16 0 -2
BITMAP
00
00
00
00
00
7c
10
10
10
10
10
10
10
10
00
00
ENDCHAR
STARTCHAR U+0443
ENCODING 1091
SWIDTH 480 0
DWIDTH 8 0
BBX 8 16 0 -2
BITMAP
00
00
00
00
00
42
42
42
42
42
42
26
1a
02
20
5c
ENDCHAR
STARTCHAR U+0444
ENCODING 1092
SWIDTH 480 0
DWIDTH 8 0
BBX 8 16 0 -2
BITMAP
00
00
00
10
10
10
7c
92
92
92
92
92
78
10
10
10
ENDCHAR
STARTCHAR U+0445
ENCODING 1093
SWIDTH 480 0
DWIDTH 8 0
BBX 8 16 0 -2
BITMAP
00
00
00
00
00
82
82
44
28
10
08
24
42
82
00
00
ENDCHAR
STARTCHAR U+0446
ENCODING 1094
SWIDTH 480 0
DWIDTH 8 0
BBX 8 16 0 -2
BITMAP
00
00
00
00
00
84
84
84
84
84
84
84
84
fe
02
02
ENDCHAR
STARTCHAR U+0447
ENCODING 1095
SWIDTH 480 0
DWIDTH 8 0
BBX 8 16 0 -2
BITMAP
00
00
00
00
00
82
82
82
82
7e
02
02
02
02
00
00
ENDCHAR
STARTCHAR U+0448
ENCODING 1096
SWIDTH 480 0
DWIDTH 8 0
BBX 8 16 0 -2
BITMAP
00
00
00
00
00
92
92
92
92
92
92
92
92
fe
00
00
ENDCHAR
STARTCHAR U+0449
ENCODING 1097
SWIDTH 480 0
DWIDTH 8 0
BBX 8 16 0 -2
BITMAP
00
00
00
00
00
92
92
92
92
92
92
92
fe
02
02
02
ENDCHAR
STARTCHAR U+044a
ENCODING 1098
SWIDTH 480 0
DWIDTH 8 0
BBX 8 16 0 -2
BITMAP
00
00
00
00
00
e0
20
20
3c
22
22
22
3c
20
00
00
ENDCHAR
STARTCHAR U+044b
ENCODING 1099
SWIDTH 480 0
DWIDTH 8 0
BBX 8 16 0 -2
BITMAP
00
00
00
00
00
82
82
82
f2
8a
8a
8a
8a
f2
00
00
ENDCHAR
STARTCHAR U+044c
ENCODING 1100
SWIDTH 480 0
DWIDTH 8 0
BBX 8 16 0 -2
BITMAP
00
00
00
00
00
40
40
40
78
44
44
44
44
78
00
00
ENDCHAR
STARTCHAR U+044d
ENCODING 1101
SWIDTH 480 0
DWIDTH 8 0
BBX 8 16 0 -2
BITMAP
00
00
00
00
00
38
44
02
02
1e
02
02
44
38
00
00
ENDCHAR
STARTCHAR U+044e
ENCODING 1102
SWIDTH 480 0
DWIDTH 8 0
BBX 8 16 0 -2
BITMAP
00
00
00
00
00
8c
90
92
92
f2
92
92
90
8c
00
00
ENDCHAR
STARTCHAR U+044f
ENCODING 1103
SWIDTH 480 0
DWIDTH 8 0
BBX 8 16 0 -2
BITMAP
00
00
00
00
00
3e
42
42
42
3e
12
22
42
82
00
00
ENDCHAR
STARTCHAR U+0450
ENCODING 1104
SWIDTH 480 0
DWIDTH 8 0
BBX 8 16 0 -2
BITMAP
00
30
10
08
00
38
44
82
82
fe
80
82
44
38
00
00
ENDCHAR
STARTCHAR U+0451
ENCODING 1105
SWIDTH 480 0
DWIDTH 8 0
BBX 8 16 0 -2
BITMAP
00
00
44
44
00
38
44
82
82
fe
80
82
44
38
00
00
ENDCHAR
STARTCHAR U+0452
ENCODING 1106
SWIDTH 480 0
DWIDTH 8 0
BBX 8 16 0 -2
BITMAP
00
00
20
7c
20
2c
30
20
20
22
22
22
02
02
04
0c
ENDCHAR
STARTCHAR U+0453
ENCODING 1107
SWIDTH 480 0
DWIDTH 8 0
BBX 8 16 0 -2
BITMAP
00
18
10
20
00
7c
40
40
40
80
80
80
80
80
00
00
ENDCHAR
STARTCHAR U+0454
ENCODING 1108
SWIDTH 480 0
DWIDTH 8 0
BBX 8 16 0 -2
BITMAP
00
00
00
00
00
3c
42
40
78
40
40
40
42
3c
00
00
ENDCHAR
STARTCHAR U+0455
ENCODING 1109
SWIDTH 480 0
DWIDTH 8 0
BBX 8 16 0 -2
BITMAP
00
00
00
00
00
3c
42
40
7c
00
02
02
42
3c
00
00
ENDCHAR
STARTCHAR U+0456
ENCODING 1110
SWIDTH 480 0
DWIDTH 8 0
BBX 8 16 0 -2
BITMAP
00
00
00
00
00
30
10
10
10
10
10
10
10
38
00
00
ENDCHAR
STARTCHAR U+0457
ENCODING 1111
SWIDTH 480 0
DWIDTH 8 0
BBX 8 16 0 -2
BITMAP
00
44
44
48
00
30
10
10
10
10
10
10
10
10
00
00
ENDCHAR
STARTCHAR U+0458
ENCODING 1112
SWIDTH 480 0
DWIDTH 8 0
BBX 8 16 0 -2
BITMAP
00
00
00
02
00
06
02
02
02
02
02
02
02
82
82
7c
ENDCHAR
STARTCHAR U+0459
ENCODING 1113
SWIDTH 480 0
DWIDTH 8 0
BBX 8 16 0 -2
BITMAP
00
00
00
00
00
70
50
50
5c
52
52
52
52
9c
00
00
ENDCHAR
STARTCHAR U+045a
ENCODING 1114
SWIDTH 480 0
DWIDTH 8 0
BBX 8 16 0 -2
BITMAP
00
00
00
00
00
90
90
90
90
fc
92
92
90
9c
00
00
ENDCHAR
STARTCHAR U+045b
ENCODING 1115
SWIDTH 480 0
DWIDTH 8 0
BBX 8 16 0 -2
BITMAP
00
40
40
e0
40
58
44
40
60
42
42
42
42
42
00
00
ENDCHAR
STARTCHAR U+045c
ENCODING 1116
SWIDTH 480 0
DWIDTH 8 0
BBX 8 16 0 -2
BITMAP
00
08
10
00
00
42
44
48
50
68
44
44
42
42
00
00
ENDCHAR
STARTCHAR U+045d
ENCODING 1117
SWIDTH 480 0
DWIDTH 8 0
BBX 8 16 0 -2
BITMAP
00
00
20
10
00
82
86
8a
92
a2
c2
82
82
82
00
00
ENDCHAR
STARTCHAR U+045e
ENCODING 1118
SWIDTH 480 0
DWIDTH 8 0
BBX 8 16 0 -2
BITMAP
00
00
44
38
00
42
42
42
42
42
42
24
10
10
20
40
ENDCHAR
STARTCHAR U+045f
ENCODING 1119
SWIDTH 480 0
DWIDTH 8 0
BBX 8 16 0 -2
BITMAP
00
00
00
00
00
82
82
82
82
82
82
82
fe
10
10
10
ENDCHAR
STARTCHAR U+0460
ENCODING 1120
SWIDTH 480 0
DWIDTH 8 0
BBX 8 16 0 -2
BITMAP
00
28
44
82
82
82
92
92
92
92
92
92
54
28
00
00
ENDCHAR
STARTCHAR U+0461
ENCODING 1121
SWIDTH 480 0
DWIDTH 8 0
BBX 8 16 0 -2
BITMAP
00
00
00
00
00
44
00
92
92
aa
aa
44
08
08
00
00
ENDCHAR
STARTCHAR U+0462
ENCODING 1122
SWIDTH 480 0
DWIDTH 8 0
BBX 8 16 0 -2
BITMAP
00
00
40
40
f0
40
40
78
44
42
42
42
44
78
00
00
ENDCHAR
STARTCHAR U+0463
ENCODING 1123
SWIDTH 480 0
DWIDTH 8 0
BBX 8 16 0 -2
BITMAP
00
00
00
40
40
f8
44
40
60
44
42
42
44
78
00
00
ENDCHAR
STARTCHAR U+0464
ENCODING 1124
SWIDTH 480 0
DWIDTH 8 0
BBX 8 16 0 -2
BITMAP
00
0c
92
90
90
90
90
fe
90
90
90
90
92
8c
00
00
ENDCHAR
STARTCHAR U+0465
ENCODING 1125
SWIDTH 480 0
DWIDTH 8 0
BBX 8 16 0 -2
BITMAP
00
00
00
00
00
8c
90
90
fc
90
90
90
92
8c
00
00
ENDCHAR
STARTCHAR U+0466
ENCODING 1126
SWIDTH 480 0
DWIDTH 8 0
BBX 8 16 0 -2
BITMAP
00
10
10
28
28
28
48
48
48
68
96
96
b6
b6
00
00
ENDCHAR
STARTCHAR U+0467
ENCODING 1127
SWIDTH 480 0
DWIDTH 8 0
BBX 8 16 0 -2
BITMAP
00
00
00
00
00
10
08
08
24
24
4a
4a
92
92
00
00
ENDCHAR
STARTCHAR U+0468
ENCODING 1128
SWIDTH 480 0
DWIDTH 8 0
BBX 8 16 0 -2
BITMAP
00
00
00
c8
c8
c8
c8
e8
c8
d4
d4
d4
d4
d4
00
00
ENDCHAR
STARTCHAR U+0469
ENCODING 1129
SWIDTH 480 0
DWIDTH 8 0
BBX 8 16 0 -2
BITMAP
00
00
00
00
00
90
88
88
88
f4
aa
aa
92
92
00
00
ENDCHAR
STARTCHAR U+046a
ENCODING 1130
SWIDTH 480 0
DWIDTH 8 0
BBX 8 16 0 -2
BITMAP
00
00
7c
44
44
44
38
38
38
54
54
54
54
54
00
00
ENDCHAR
STARTCHAR U+046b
ENCODING 1131
SWIDTH 480 0
DWIDTH 8 0
BBX 8 16 0 -2
BITMAP
00
00
00
00
00
38
24
28
28
34
5c
92
92
92
00
00
ENDCHAR
STARTCHAR U+046c
ENCODING 1132
SWIDTH 480 0
DWIDTH 8 0
BBX 8 16 0 -2
BITMAP
00
00
be
a2
a2
b4
f0
a8
dc
aa
aa
aa
aa
aa
00
00
ENDCHAR
STARTCHAR U+046d
ENCODING 1133
SWIDTH 480 0
DWIDTH 8 0
BBX 8 16 0 -2
BITMAP
00
00
00
00
00
5e
54
54
48
7c
4c
56
56
56
00
00
ENDCHAR
STARTCHAR U+046e
ENCODING 1134
SWIDTH 480 0
DWIDTH 8 0
BBX 8 16 0 -2
BITMAP
34
18
00
38
44
82
02
04
1c
02
02
02
44
38
00
00
ENDCHAR
STARTCHAR U+046f
ENCODING 1135
SWIDTH 480 0
DWIDTH 8 0
BBX 8 16 0 -2
BITMAP
00
24
18
00
00
3c
40
02
1c
02
02
02
40
20
1c
00
ENDCHAR
STARTCHAR U+0470
ENCODING 1136
SWIDTH 480 0
DWIDTH 8 0
BBX 8 16 0 -2
BITMAP
00
92
92
92
92
92
92
92
92
78
10
10
10
10
00
00
ENDCHAR
STARTCHAR U+0471
ENCODING 1137
SWIDTH 480 0
DWIDTH 8 0
BBX 8 16 0 -2
BITMAP
00
00
00
00
00
92
92
92
92
56
56
38
10
10
10
10
ENDCHAR
STARTCHAR U+0472
ENCODING 1138
SWIDTH 480 0
DWIDTH 8 0
BBX 8 16 0 -2
BITMAP
00
38
44
82
82
82
82
fe
82
82
82
82
44
38
00
00
ENDCHAR
STARTCHAR U+0473
ENCODING 1139
SWIDTH 480 0
DWIDTH 8 0
BBX 8 16 0 -2
BITMAP
00
00
00
00
00
38
44
82
82
fe
82
82
44
38
00
00
ENDCHAR
STARTCHAR U+0474
ENCODING 1140
SWIDTH 480 0
DWIDTH 8 0
BBX 8 16 0 -2
BITMAP
00
82
82
84
84
84
48
48
48
30
30
30
20
20
00
00
ENDCHAR
STARTCHAR U+0475
ENCODING 1141
SWIDTH 480 0
DWIDTH 8 0
BBX 8 16 0 -2
BITMAP
00
00
00
00
00
82
84
48
48
28
28
10
10
10
00
00
ENDCHAR
STARTCHAR U+0476
ENCODING 1142
SWIDTH 480 0
DWIDTH 8 0
BBX 8 16 0 -2
BITMAP
90
48
24
00
82
84
48
48
48
28
28
28
10
10
00
00
ENDCHAR
STARTCHAR U+0477
ENCODING 1143
SWIDTH 480 0
DWIDTH 8 0
BBX 8 16 0 -2
BITMAP
00
90
48
24
00
82
82
44
44
28
28
10
10
10
00
00
ENDCHAR
STARTCHAR U+0478
ENCODING 1144
SWIDTH 480 0
DWIDTH 8 0
BBX 8 16 0 -2
BITMAP
00
00
40
a0
a0
a0
a8
aa
aa
aa
aa
a6
42
42
04
0c
ENDCHAR
STARTCHAR U+0479
ENCODING 1145
SWIDTH 480 0
DWIDTH 8 0
BBX 8 16 0 -2
BITMAP
00
00
00
00
00
00
40
aa
aa
aa
aa
46
42
42
04
0c
ENDCHAR
STARTCHAR U+047a
ENCODING 1146
SWIDTH 480 0
DWIDTH 8 0
BBX 8 16 0 -2
BITMAP
00
10
38
54
92
82
82
82
82
82
82
54
38
10
00
00
ENDCHAR
STARTCHAR U+047b
ENCODING 1147
SWIDTH 480 0
DWIDTH 8 0
BBX 8 16 0 -2
BITMAP
00
00
00
00
10
38
54
92
82
82
96
5c
38
00
00
00
ENDCHAR
STARTCHAR U+047c
ENCODING 1148
SWIDTH 480 0
DWIDTH 8 0
BBX 8 16 0 -2
BITMAP
04
7c
40
28
44
92
82
92
92
92
92
92
50
50
00
00
ENDCHAR
STARTCHAR U+047d
ENCODING 1149
SWIDTH 480 0
DWIDTH 8 0
BBX 8 16 0 -2
BITMAP
04
7c
40
00
00
2c
00
92
92
92
92
00
00
00
00
00
ENDCHAR
STARTCHAR U+047e
ENCODING 1150
SWIDTH 480 0
DWIDTH 8 0
BBX 8 16 0 -2
BITMAP
7c
10
00
24
44
82
92
92
92
92
92
92
48
48
00
00
ENDCHAR
STARTCHAR U+047f
ENCODING 1151
SWIDTH 480 0
DWIDTH 8 0
BBX 8 16 0 -2
BITMAP
00
00
7c
10
00
86
00
92
92
aa
aa
44
08
08
00
00
ENDCHAR
STARTCHAR U+0480
ENCODING 1152
SWIDTH 480 0
DWIDTH 8 0
BBX 8 16 0 -2
BITMAP
00
38
44
82
82
80
80
80
80
80
80
80
40
3c
04
1e
ENDCHAR
STARTCHAR U+0481
ENCODING 1153
SWIDTH 480 0
DWIDTH 8 0
BBX 8 16 0 -2
BITMAP
00
00
00
00
00
38
44
82
80
80
40
40
3c
04
04
00
ENDCHAR
STARTCHAR U+0482
ENCODING 1154
SWIDTH 480 0
DWIDTH 8 0
BBX 8 16 0 -2
BITMAP
00
00
00
00
14
08
14
08
54
20
40
00
00
00
00
00
ENDCHAR
STARTCHAR U+0483
ENCODING 1155
SWIDTH 480 0
DWIDTH 8 0
BBX 8 16 0 -2
BITMAP
06
7e
40
00
00
00
00
00
00
00
00
00
00
00
00
00
ENDCHAR
STARTCHAR U+0484
ENCODING 1156
SWIDTH 480 0
DWIDTH 8 0
BBX 8 16 0 -2
BITMAP
38
46
00
00
00
00
00
00
00
00
00
00
00
00
00
00
ENDCHAR
STARTCHAR U+0485
ENCODING 1157
SWIDTH 480 0
DWIDTH 8 0
BBX 8 16 0 -2
BITMAP
38
66
60
00
00
00
00
00
00
00
00
00
00
00
00
00
ENDCHAR
STARTCHAR U+0486
ENCODING 1158
SWIDTH 480 0
DWIDTH 8 0
BBX 8 16 0 -2
BITMAP
3c
46
00
00
00
00
00
00
00
00
00
00
00
00
00
00
ENDCHAR
STARTCHAR U+0488
ENCODING 1160
SWIDTH 480 0
DWIDTH 8 0
BBX 8 16 0 -2
BITMAP
00
44
aa
00
00
00
00
00
00
00
00
00
40
a4
12
08
ENDCHAR
STARTCHAR U+0489
ENCODING 1161
SWIDTH 480 0
DWIDTH 8 0
BBX 8 16 0 -2
BITMAP
20
42
64
86
00
00
00
00
00
00
00
00
04
8a
0c
10
ENDCHAR
STARTCHAR U+048c
ENCODING 1164
SWIDTH 480 0
DWIDTH 8 0
BBX 8 16 0 -2
BITMAP
00
00
00
40
f0
40
40
78
44
42
42
42
44
78
00
00
ENDCHAR
STARTCHAR U+048d
ENCODING 1165
SWIDTH 480 0
DWIDTH 8 0
BBX 8 16 0 -2
BITMAP
00
00
00
00
00
00
00
40
f8
44
42
42
44
78
00
00
ENDCHAR
STARTCHAR U+048e
ENCODING 1166
SWIDTH 480 0
DWIDTH 8 0
BBX 8 16 0 -2
BITMAP
00
f8
84
82
82
82
84
f8
84
80
80
80
80
80
00
00
ENDCHAR
STARTCHAR U+048f
ENCODING 1167
SWIDTH 480 0
DWIDTH 8 0
BBX 8 16 0 -2
BITMAP
00
00
00
00
00
b8
c4
82
82
8a
ba
d8
84
80
80
80
ENDCHAR
STARTCHAR U+0490
ENCODING 1168
SWIDTH 480 0
DWIDTH 8 0
BBX 8 16 0 -2
BITMAP
00
fe
82
80
80
80
80
80
80
80
80
80
80
80
00
00
ENDCHAR
STARTCHAR U+0491
ENCODING 1169
SWIDTH 480 0
DWIDTH 8 0
BBX 8 16 0 -2
BITMAP
00
00
00
00
04
04
f8
80
80
80
80
80
80
80
00
00
ENDCHAR
STARTCHAR U+0492
ENCODING 1170
SWIDTH 480 0
DWIDTH 8 0
BBX 8 16 0 -2
BITMAP
00
7c
40
40
40
40
70
40
40
40
40
40
40
40
00
00
ENDCHAR
STARTCHAR U+0493
ENCODING 1171
SWIDTH 480 0
DWIDTH 8 0
BBX 8 16 0 -2
BITMAP
00
00
00
00
00
3e
40
40
40
78
40
40
40
40
00
00
ENDCHAR
STARTCHAR U+0494
ENCODING 1172
SWIDTH 480 0
DWIDTH 8 0
BBX 8 16 0 -2
BITMAP
00
fc
80
80
80
80
80
f8
84
82
82
82
04
38
00
00
ENDCHAR
STARTCHAR U+0495
ENCODING 1173
SWIDTH 480 0
DWIDTH 8 0
BBX 8 16 0 -2
BITMAP
00
00
00
00
00
f8
80
80
f0
88
88
88
08
30
00
00
ENDCHAR
STARTCHAR U+0496
ENCODING 1174
SWIDTH 480 0
DWIDTH 8 0
BBX 8 16 0 -2
BITMAP
00
b4
b4
54
54
54
38
38
38
54
54
54
56
56
02
02
ENDCHAR
STARTCHAR U+0497
ENCODING 1175
SWIDTH 480 0
DWIDTH 8 0
BBX 8 16 0 -2
BITMAP
00
00
00
00
00
92
92
92
54
38
54
96
92
93
01
02
ENDCHAR
STARTCHAR U+0498
ENCODING 1176
SWIDTH 480 0
DWIDTH 8 0
BBX 8 16 0 -2
BITMAP
00
38
44
82
02
02
04
18
04
02
02
42
38
10
20
40
ENDCHAR
STARTCHAR U+0499
ENCODING 1177
SWIDTH 480 0
DWIDTH 8 0
BBX 8 16 0 -2
BITMAP
00
00
00
00
00
38
44
82
0c
02
02
82
78
10
20
60
ENDCHAR
STARTCHAR U+049a
ENCODING 1178
SWIDTH 480 0
DWIDTH 8 0
BBX 8 16 0 -2
BITMAP
00
80
80
84
88
90
a0
c0
a0
88
84
82
82
82
00
00
ENDCHAR
STARTCHAR U+049b
ENCODING 1179
SWIDTH 480 0
DWIDTH 8 0
BBX 8 16 0 -2
BITMAP
00
00
00
00
00
84
88
90
a0
c0
90
88
84
82
02
00
ENDCHAR
STARTCHAR U+049c
ENCODING 1180
SWIDTH 480 0
DWIDTH 8 0
BBX 8 16 0 -2
BITMAP
00
82
82
84
84
88
88
f0
88
84
84
84
82
82
00
00
ENDCHAR
STARTCHAR U+049d
ENCODING 1181
SWIDTH 480 0
DWIDTH 8 0
BBX 8 16 0 -2
BITMAP
00
00
00
00
00
82
84
a8
b0
e8
a4
a4
82
82
00
00
ENDCHAR
STARTCHAR U+049e
ENCODING 1182
SWIDTH 480 0
DWIDTH 8 0
BBX 8 16 0 -2
BITMAP
00
40
40
e4
48
50
60
50
48
44
44
44
42
42
00
00
ENDCHAR
STARTCHAR U+049f
ENCODING 1183
SWIDTH 480 0
DWIDTH 8 0
BBX 8 16 0 -2
BITMAP
00
00
40
40
40
f2
44
48
50
68
44
44
42
42
00
00
ENDCHAR
STARTCHAR U+04a0
ENCODING 1184
SWIDTH 480 0
DWIDTH 8 0
BBX 8 16 0 -2
BITMAP
00
00
e2
24
24
28
28
30
28
24
24
24
22
22
00
00
ENDCHAR
STARTCHAR U+04a1
ENCODING 1185
SWIDTH 480 0
DWIDTH 8 0
BBX 8 16 0 -2
BITMAP
00
00
00
00
00
62
24
28
30
28
24
24
22
22
00
00
ENDCHAR
STARTCHAR U+04a2
ENCODING 1186
SWIDTH 480 0
DWIDTH 8 0
BBX 8 16 0 -2
BITMAP
00
00
84
84
84
84
84
fc
84
84
84
84
84
86
02
02
ENDCHAR
STARTCHAR U+04a3
ENCODING 1187
SWIDTH 480 0
DWIDTH 8 0
BBX 8 16 0 -2
BITMAP
00
00
00
00
00
84
84
84
84
fc
84
84
84
86
02
02
ENDCHAR
STARTCHAR U+04a4
ENCODING 1188
SWIDTH 480 0
DWIDTH 8 0
BBX 8 16 0 -2
BITMAP
00
00
9e
90
90
90
90
f0
90
90
90
90
90
90
00
00
ENDCHAR
STARTCHAR U+04a5
ENCODING 1189
SWIDTH 480 0
DWIDTH 8 0
BBX 8 16 0 -2
BITMAP
00
00
00
00
00
9e
90
90
90
f0
90
90
90
90
00
00
ENDCHAR
STARTCHAR U+04a6
ENCODING 1190
SWIDTH 480 0
DWIDTH 8 0
BBX 8 16 0 -2
BITMAP
00
00
f0
90
90
90
90
9c
92
92
92
92
92
92
00
0c
ENDCHAR
STARTCHAR U+04a7
ENCODING 1191
SWIDTH 480 0
DWIDTH 8 0
BBX 8 16 0 -2
BITMAP
00
00
00
00
00
f0
90
90
90
9c
92
92
92
92
00
0c
ENDCHAR
STARTCHAR U+04a8
ENCODING 1192
SWIDTH 480 0
DWIDTH 8 0
BBX 8 16 0 -2
BITMAP
00
00
3c
42
80
80
8c
92
92
92
52
3c
10
0e
00
00
ENDCHAR
STARTCHAR U+04a9
ENCODING 1193
SWIDTH 480 0
DWIDTH 8 0
BBX 8 16 0 -2
BITMAP
00
00
00
00
00
38
44
80
8c
92
92
5c
3c
10
0e
00
ENDCHAR
STARTCHAR U+04aa
ENCODING 1194
SWIDTH 480 0
DWIDTH 8 0
BBX 8 16 0 -2
BITMAP
00
18
24
42
80
80
80
80
80
80
40
46
38
08
08
1e
ENDCHAR
STARTCHAR U+04ab
ENCODING 1195
SWIDTH 480 0
DWIDTH 8 0
BBX 8 16 0 -2
BITMAP
00
00
00
00
00
38
46
80
80
80
80
42
3c
18
18
1e
ENDCHAR
STARTCHAR U+04ac
ENCODING 1196
SWIDTH 480 0
DWIDTH 8 0
BBX 8 16 0 -2
BITMAP
00
00
fe
10
10
10
10
10
10
10
10
10
18
08
08
08
ENDCHAR
STARTCHAR U+04ad
ENCODING 1197
SWIDTH 480 0
DWIDTH 8 0
BBX 8 16 0 -2
BITMAP
00
00
00
00
00
7c
10
10
10
10
10
10
18
08
08
08
ENDCHAR
STARTCHAR U+04ae
ENCODING 1198
SWIDTH 480 0
DWIDTH 8 0
BBX 8 16 0 -2
BITMAP
00
84
84
44
44
44
28
28
10
10
10
10
10
10
00
00
ENDCHAR
STARTCHAR U+04af
ENCODING 1199
SWIDTH 480 0
DWIDTH 8 0
BBX 8 16 0 -2
BITMAP
00
00
00
00
00
44
44
44
28
28
10
10
10
10
10
10
ENDCHAR
STARTCHAR U+04b0
ENCODING 1200
SWIDTH 480 0
DWIDTH 8 0
BBX 8 16 0 -2
BITMAP
00
84
84
44
44
44
28
28
10
10
10
10
10
10
00
00
ENDCHAR
STARTCHAR U+04b1
ENCODING 1201
SWIDTH 480 0
DWIDTH 8 0
BBX 8 16 0 -2
BITMAP
00
00
00
00
00
44
44
44
28
28
10
10
10
10
10
10
ENDCHAR
STARTCHAR U+04b2
ENCODING 1202
SWIDTH 480 0
DWIDTH 8 0
BBX 8 16 0 -2
BITMAP
00
00
84
84
48
48
10
28
28
28
44
44
84
86
02
00
ENDCHAR
STARTCHAR U+04b3
ENCODING 1203
SWIDTH 480 0
DWIDTH 8 0
BBX 8 16 0 -2
BITMAP
00
00
00
00
00
84
84
48
30
30
48
48
84
86
02
00
ENDCHAR
STARTCHAR U+04b4
ENCODING 1204
SWIDTH 480 0
DWIDTH 8 0
BBX 8 16 0 -2
BITMAP
00
e2
42
42
42
42
42
42
42
42
42
42
7e
02
02
02
ENDCHAR
STARTCHAR U+04b5
ENCODING 1205
SWIDTH 480 0
DWIDTH 8 0
BBX 8 16 0 -2
BITMAP
00
00
00
00
00
f2
42
42
42
42
42
42
7e
02
02
02
ENDCHAR
STARTCHAR U+04b6
ENCODING 1206
SWIDTH 480 0
DWIDTH 8 0
BBX 8 16 0 -2
BITMAP
00
84
84
84
84
84
8c
74
04
04
04
04
04
06
02
02
ENDCHAR
STARTCHAR U+04b7
ENCODING 1207
SWIDTH 480 0
DWIDTH 8 0
BBX 8 16 0 -2
BITMAP
00
00
00
00
00
84
84
84
84
7c
04
04
04
06
02
02
ENDCHAR
STARTCHAR U+04b8
ENCODING 1208
SWIDTH 480 0
DWIDTH 8 0
BBX 8 16 0 -2
BITMAP
00
82
82
82
92
92
92
7e
12
12
12
02
02
02
00
00
ENDCHAR
STARTCHAR U+04b9
ENCODING 1209
SWIDTH 480 0
DWIDTH 8 0
BBX 8 16 0 -2
BITMAP
00
00
00
00
00
82
82
82
92
7e
12
02
02
02
00
00
ENDCHAR
STARTCHAR U+04ba
ENCODING 1210
SWIDTH 480 0
DWIDTH 8 0
BBX 8 16 0 -2
BITMAP
00
00
80
80
80
b8
c4
82
82
82
82
82
82
82
00
00
ENDCHAR
STARTCHAR U+04bb
ENCODING 1211
SWIDTH 480 0
DWIDTH 8 0
BBX 8 16 0 -2
BITMAP
00
40
40
40
40
40
40
58
64
42
42
42
42
42
00
00
ENDCHAR
STARTCHAR U+04bc
ENCODING 1212
SWIDTH 480 0
DWIDTH 8 0
BBX 8 16 0 -2
BITMAP
00
00
00
00
3c
a2
a2
7e
20
20
20
22
1c
00
00
00
ENDCHAR
STARTCHAR U+04bd
ENCODING 1213
SWIDTH 480 0
DWIDTH 8 0
BBX 8 16 0 -2
BITMAP
00
00
00
00
00
38
44
82
a2
7e
20
22
24
18
00
00
ENDCHAR
STARTCHAR U+04be
ENCODING 1214
SWIDTH 480 0
DWIDTH 8 0
BBX 8 16 0 -2
BITMAP
00
00
00
1c
22
a2
a2
7e
20
20
22
1c
10
18
00
00
ENDCHAR
STARTCHAR U+04bf
ENCODING 1215
SWIDTH 480 0
DWIDTH 8 0
BBX 8 16 0 -2
BITMAP
00
00
00
00
00
38
44
82
a2
7e
20
22
24
18
10
0e
ENDCHAR
STARTCHAR U+04c0
ENCODING 1216
SWIDTH 480 0
DWIDTH 8 0
BBX 8 16 0 -2
BITMAP
00
00
38
10
10
10
10
10
10
10
10
10
10
38
00
00
ENDCHAR
STARTCHAR U+04c1
ENCODING 1217
SWIDTH 480 0
DWIDTH 8 0
BBX 8 16 0 -2
BITMAP
44
38
00
92
92
92
54
38
54
54
92
92
92
92
00
00
ENDCHAR
STARTCHAR U+04c2
ENCODING 1218
SWIDTH 480 0
DWIDTH 8 0
BBX 8 16 0 -2
BITMAP
00
00
44
38
00
92
92
92
54
38
54
92
92
92
00
00
ENDCHAR
STARTCHAR U+04c3
ENCODING 1219
SWIDTH 480 0
DWIDTH 8 0
BBX 8 16 0 -2
BITMAP
00
82
82
84
84
88
a8
d0
a8
84
82
82
82
82
04
18
ENDCHAR
STARTCHAR U+04c4
ENCODING 1220
SWIDTH 480 0
DWIDTH 8 0
BBX 8 16 0 -2
BITMAP
00
00
00
00
00
82
84
88
90
e8
84
84
82
82
04
78
ENDCHAR
STARTCHAR U+04c7
ENCODING 1223
SWIDTH 480 0
DWIDTH 8 0
BBX 8 16 0 -2
BITMAP
00
82
82
82
82
82
82
fe
82
82
82
82
82
02
3c
00
ENDCHAR
STARTCHAR U+04c8
ENCODING 1224
SWIDTH 480 0
DWIDTH 8 0
BBX 8 16 0 -2
BITMAP
00
00
00
00
00
82
82
82
82
fe
82
82
82
02
3c
00
ENDCHAR
STARTCHAR U+04cb
ENCODING 1227
SWIDTH 480 0
DWIDTH 8 0
BBX 8 16 0 -2
BITMAP
00
82
82
82
82
82
82
42
3e
02
02
02
06
04
04
04
ENDCHAR
STARTCHAR U+04cc
ENCODING 1228
SWIDTH 480 0
DWIDTH 8 0
BBX 8 16 0 -2
BITMAP
00
00
00
00
00
82
82
82
82
7e
06
06
0e
08
08
08
ENDCHAR
STARTCHAR U+04d0
ENCODING 1232
SWIDTH 480 0
DWIDTH 8 0
BBX 8 16 0 -2
BITMAP
44
38
00
00
10
10
28
44
44
7c
82
82
82
82
00
00
ENDCHAR
STARTCHAR U+04d1
ENCODING 1233
SWIDTH 480 0
DWIDTH 8 0
BBX 8 16 0 -2
BITMAP
00
00
44
38
00
3c
40
00
3c
42
82
82
86
7a
00
00
ENDCHAR
STARTCHAR U+04d2
ENCODING 1234
SWIDTH 480 0
DWIDTH 8 0
BBX 8 16 0 -2
BITMAP
44
44
00
10
10
28
28
44
44
7c
82
82
82
82
00
00
ENDCHAR
STARTCHAR U+04d3
ENCODING 1235
SWIDTH 480 0
DWIDTH 8 0
BBX 8 16 0 -2
BITMAP
00
00
24
24
00
3c
42
02
3e
42
82
82
86
7a
00
00
ENDCHAR
STARTCHAR U+04d4
ENCODING 1236
SWIDTH 480 0
DWIDTH 8 0
BBX 8 16 0 -2
BITMAP
00
6e
90
90
90
90
90
fe
90
90
90
90
90
9f
00
00
ENDCHAR
STARTCHAR U+04d5
ENCODING 1237
SWIDTH 480 0
DWIDTH 8 0
BBX 8 16 0 -2
BITMAP
00
00
00
00
00
6c
92
12
3e
50
90
92
92
6c
00
00
ENDCHAR
STARTCHAR U+04d6
ENCODING 1238
SWIDTH 480 0
DWIDTH 8 0
BBX 8 16 0 -2
BITMAP
84
78
00
fe
80
80
80
fc
80
80
80
80
80
fe
00
00
ENDCHAR
STARTCHAR U+04d7
ENCODING 1239
SWIDTH 480 0
DWIDTH 8 0
BBX 8 16 0 -2
BITMAP
00
00
82
3c
00
38
44
82
82
fe
80
82
44
38
00
00
ENDCHAR
STARTCHAR U+04d8
ENCODING 1240
SWIDTH 480 0
DWIDTH 8 0
BBX 8 16 0 -2
BITMAP
00
38
44
82
02
02
82
fe
82
82
82
82
44
38
00
00
ENDCHAR
STARTCHAR U+04d9
ENCODING 1241
SWIDTH 480 0
DWIDTH 8 0
BBX 8 16 0 -2
BITMAP
00
00
00
00
00
38
44
02
02
fe
82
82
44
38
00
00
ENDCHAR
STARTCHAR U+04da
ENCODING 1242
SWIDTH 480 0
DWIDTH 8 0
BBX 8 16 0 -2
BITMAP
44
44
00
38
44
82
02
02
fe
82
82
82
44
38
00
00
ENDCHAR
STARTCHAR U+04db
ENCODING 1243
SWIDTH 480 0
DWIDTH 8 0
BBX 8 16 0 -2
BITMAP
00
00
24
24
00
38
44
82
02
fe
82
82
84
78
00
00
ENDCHAR
STARTCHAR U+04dc
ENCODING 1244
SWIDTH 480 0
DWIDTH 8 0
BBX 8 16 0 -2
BITMAP
24
24
00
92
92
92
54
38
54
50
92
92
92
92
00
00
ENDCHAR
STARTCHAR U+04dd
ENCODING 1245
SWIDTH 480 0
DWIDTH 8 0
BBX 8 16 0 -2
BITMAP
00
00
24
24
00
92
52
52
34
38
54
92
92
92
00
00
ENDCHAR
STARTCHAR U+04de
ENCODING 1246
SWIDTH 480 0
DWIDTH 8 0
BBX 8 16 0 -2
BITMAP
44
44
00
38
44
82
04
08
10
02
02
42
44
38
00
00
ENDCHAR
STARTCHAR U+04df
ENCODING 1247
SWIDTH 480 0
DWIDTH 8 0
BBX 8 16 0 -2
BITMAP
00
24
24
04
00
3c
40
80
1c
02
02
02
44
38
00
00
ENDCHAR
STARTCHAR U+04e0
ENCODING 1248
SWIDTH 480 0
DWIDTH 8 0
BBX 8 16 0 -2
BITMAP
00
00
00
fc
04
08
18
34
04
02
02
82
44
38
00
00
ENDCHAR
STARTCHAR U+04e1
ENCODING 1249
SWIDTH 480 0
DWIDTH 8 0
BBX 8 16 0 -2
BITMAP
00
00
00
00
00
7e
04
08
08
08
18
04
02
42
3c
00
ENDCHAR
STARTCHAR U+04e2
ENCODING 1250
SWIDTH 480 0
DWIDTH 8 0
BBX 8 16 0 -2
BITMAP
00
7c
00
82
82
82
86
8a
92
a2
c2
c2
82
82
00
00
ENDCHAR
STARTCHAR U+04e3
ENCODING 1251
SWIDTH 480 0
DWIDTH 8 0
BBX 8 16 0 -2
BITMAP
00
00
00
fe
00
82
82
86
8a
92
a2
c2
82
82
00
00
ENDCHAR
STARTCHAR U+04e4
ENCODING 1252
SWIDTH 480 0
DWIDTH 8 0
BBX 8 16 0 -2
BITMAP
44
44
00
82
82
82
86
8a
92
a2
c2
82
82
82
00
00
ENDCHAR
STARTCHAR U+04e5
ENCODING 1253
SWIDTH 480 0
DWIDTH 8 0
BBX 8 16 0 -2
BITMAP
00
00
24
24
00
82
82
86
8a
92
a2
c2
82
82
00
00
ENDCHAR
STARTCHAR U+04e6
ENCODING 1254
SWIDTH 480 0
DWIDTH 8 0
BBX 8 16 0 -2
BITMAP
44
44
00
38
44
82
82
82
82
82
82
82
44
38
00
00
ENDCHAR
STARTCHAR U+04e7
ENCODING 1255
SWIDTH 480 0
DWIDTH 8 0
BBX 8 16 0 -2
BITMAP
00
00
44
44
00
38
44
82
82
82
82
82
44
38
00
00
ENDCHAR
STARTCHAR U+04e8
ENCODING 1256
SWIDTH 480 0
DWIDTH 8 0
BBX 8 16 0 -2
BITMAP
00
38
44
82
82
82
82
fa
86
82
82
82
44
38
00
00
ENDCHAR
STARTCHAR U+04e9
ENCODING 1257
SWIDTH 480 0
DWIDTH 8 0
BBX 8 16 0 -2
BITMAP
00
00
00
00
00
38
44
82
82
fe
82
82
44
38
00
00
ENDCHAR
STARTCHAR U+04ea
ENCODING 1258
SWIDTH 480 0
DWIDTH 8 0
BBX 8 16 0 -2
BITMAP
44
44
00
38
44
82
82
fe
82
82
82
82
44
38
00
00
ENDCHAR
STARTCHAR U+04eb
ENCODING 1259
SWIDTH 480 0
DWIDTH 8 0
BBX 8 16 0 -2
BITMAP
00
00
24
24
00
38
44
82
82
fe
82
82
84
78
00
00
ENDCHAR
STARTCHAR U+04ec
ENCODING 1260
SWIDTH 480 0
DWIDTH 8 0
BBX 8 16 0 -2
BITMAP
44
44
00
78
84
02
06
3e
06
04
04
04
88
70
00
00
ENDCHAR
STARTCHAR U+04ed
ENCODING 1261
SWIDTH 480 0
DWIDTH 8 0
BBX 8 16 0 -2
BITMAP
00
00
00
08
00
38
44
82
02
1e
02
02
44
38
00
00
ENDCHAR
STARTCHAR U+04ee
ENCODING 1262
SWIDTH 480 0
DWIDTH 8 0
BBX 8 16 0 -2
BITMAP
00
7e
00
82
82
82
82
46
3a
02
02
82
44
38
00
00
ENDCHAR
STARTCHAR U+04ef
ENCODING 1263
SWIDTH 480 0
DWIDTH 8 0
BBX 8 16 0 -2
BITMAP
00
00
00
fe
00
82
82
82
82
82
44
44
38
00
00
40
ENDCHAR
STARTCHAR U+04f0
ENCODING 1264
SWIDTH 480 0
DWIDTH 8 0
BBX 8 16 0 -2
BITMAP
44
44
00
82
82
82
82
46
3a
02
02
82
44
38
00
00
ENDCHAR
STARTCHAR U+04f1
ENCODING 1265
SWIDTH 480 0
DWIDTH 8 0
BBX 8 16 0 -2
BITMAP
00
24
24
04
00
42
42
42
42
46
46
46
10
10
20
40
ENDCHAR
STARTCHAR U+04f2
ENCODING 1266
SWIDTH 480 0
DWIDTH 8 0
BBX 8 16 0 -2
BITMAP
34
58
00
82
82
82
82
46
3a
02
02
82
44
38
00
00
ENDCHAR
STARTCHAR U+04f3
ENCODING 1267
SWIDTH 480 0
DWIDTH 8 0
BBX 8 16 0 -2
BITMAP
00
00
12
24
00
42
42
42
42
42
46
46
10
10
20
40
ENDCHAR
STARTCHAR U+04f4
ENCODING 1268
SWIDTH 480 0
DWIDTH 8 0
BBX 8 16 0 -2
BITMAP
44
44
00
82
82
82
82
86
7a
02
02
02
02
02
00
00
ENDCHAR
STARTCHAR U+04f5
ENCODING 1269
SWIDTH 480 0
DWIDTH 8 0
BBX 8 16 0 -2
BITMAP
00
00
24
24
00
42
42
42
42
3e
02
02
02
02
00
00
ENDCHAR
STARTCHAR U+04f8
ENCODING 1272
SWIDTH 480 0
DWIDTH 8 0
BBX 8 16 0 -2
BITMAP
44
44
00
82
82
82
82
e2
92
8a
8a
8a
8a
f2
00
00
ENDCHAR
STARTCHAR U+04f9
ENCODING 1273
SWIDTH 480 0
DWIDTH 8 0
BBX 8 16 0 -2
BITMAP
00
00
24
24
00
82
82
82
82
f2
8a
8a
8a
f2
00
00
ENDCHAR
STARTCHAR U+0531
ENCODING 1329
SWIDTH 480 0
DWIDTH 8 0
BBX 8 16 0 -2
BITMAP
00
00
88
88
88
88
88
88
88
88
9c
8a
8a
72
00
00
ENDCHAR
STARTCHAR U+0532
ENCODING 1330
SWIDTH 480 0
DWIDTH 8 0
BBX 8 16 0 -2
BITMAP
00
78
84
82
82
80
80
f8
84
82
80
80
80
80
00
00
ENDCHAR
STARTCHAR U+0533
ENCODING 1331
SWIDTH 480 0
DWIDTH 8 0
BBX 8 16 0 -2
BITMAP
00
00
70
88
88
88
88
88
7c
0a
08
08
08
08
00
00
ENDCHAR
STARTCHAR U+0534
ENCODING 1332
SWIDTH 480 0
DWIDTH 8 0
BBX 8 16 0 -2
BITMAP
00
70
88
88
88
88
08
0c
0a
08
08
08
08
08
00
00
ENDCHAR
STARTCHAR U+0535
ENCODING 1333
SWIDTH 480 0
DWIDTH 8 0
BBX 8 16 0 -2
BITMAP
00
00
80
80
80
f8
84
82
80
80
82
82
44
38
00
00
ENDCHAR
STARTCHAR U+0536
ENCODING 1334
SWIDTH 480 0
DWIDTH 8 0
BBX 8 16 0 -2
BITMAP
00
38
44
82
82
82
86
78
08
08
90
fc
82
80
00
00
ENDCHAR
STARTCHAR U+0537
ENCODING 1335
SWIDTH 480 0
DWIDTH 8 0
BBX 8 16 0 -2
BITMAP
00
00
80
80
80
80
80
fc
82
80
80
80
80
fc
02
00
ENDCHAR
STARTCHAR U+0538
ENCODING 1336
SWIDTH 480 0
DWIDTH 8 0
BBX 8 16 0 -2
BITMAP
00
38
44
82
82
82
80
80
80
80
80
80
80
fc
02
00
ENDCHAR
STARTCHAR U+0539
ENCODING 1337
SWIDTH 480 0
DWIDTH 8 0
BBX 8 16 0 -2
BITMAP
00
00
78
84
84
84
84
be
a4
a4
a4
a4
a4
98
00
00
ENDCHAR
STARTCHAR U+053a
ENCODING 1338
SWIDTH 480 0
DWIDTH 8 0
BBX 8 16 0 -2
BITMAP
00
04
04
04
04
04
04
7e
84
84
84
84
84
78
00
00
ENDCHAR
STARTCHAR U+053b
ENCODING 1339
SWIDTH 480 0
DWIDTH 8 0
BBX 8 16 0 -2
BITMAP
00
00
80
80
80
80
fc
82
82
80
80
80
80
80
00
00
ENDCHAR
STARTCHAR U+053c
ENCODING 1340
SWIDTH 480 0
DWIDTH 8 0
BBX 8 16 0 -2
BITMAP
00
00
80
80
80
80
80
80
80
80
80
80
fc
02
02
04
ENDCHAR
STARTCHAR U+053d
ENCODING 1341
SWIDTH 480 0
DWIDTH 8 0
BBX 8 16 0 -2
BITMAP
00
00
80
80
80
80
f0
92
92
92
92
92
90
8c
00
00
ENDCHAR
STARTCHAR U+053e
ENCODING 1342
SWIDTH 480 0
DWIDTH 8 0
BBX 8 16 0 -2
BITMAP
00
80
de
38
44
82
82
82
82
82
82
82
44
38
00
00
ENDCHAR
STARTCHAR U+053f
ENCODING 1343
SWIDTH 480 0
DWIDTH 8 0
BBX 8 16 0 -2
BITMAP
00
40
40
40
40
42
42
42
46
3a
02
02
02
02
00
00
ENDCHAR
STARTCHAR U+0540
ENCODING 1344
SWIDTH 480 0
DWIDTH 8 0
BBX 8 16 0 -2
BITMAP
00
08
10
00
10
08
10
20
40
80
e0
18
04
02
00
00
ENDCHAR
STARTCHAR U+0541
ENCODING 1345
SWIDTH 480 0
DWIDTH 8 0
BBX 8 16 0 -2
BITMAP
00
38
44
82
82
82
82
82
02
04
38
48
44
3a
00
00
ENDCHAR
STARTCHAR U+0542
ENCODING 1346
SWIDTH 480 0
DWIDTH 8 0
BBX 8 16 0 -2
BITMAP
00
00
70
88
88
88
08
08
08
08
08
08
04
06
00
00
ENDCHAR
STARTCHAR U+0543
ENCODING 1347
SWIDTH 480 0
DWIDTH 8 0
BBX 8 16 0 -2
BITMAP
00
00
0c
c2
30
10
28
44
44
44
82
82
82
fe
00
00
ENDCHAR
STARTCHAR U+0544
ENCODING 1348
SWIDTH 480 0
DWIDTH 8 0
BBX 8 16 0 -2
BITMAP
00
00
8c
92
92
90
90
90
90
90
90
90
90
60
00
00
ENDCHAR
STARTCHAR U+0545
ENCODING 1349
SWIDTH 480 0
DWIDTH 8 0
BBX 8 16 0 -2
BITMAP
00
38
44
84
04
24
78
84
02
02
82
82
44
38
00
00
ENDCHAR
STARTCHAR U+0546
ENCODING 1350
SWIDTH 480 0
DWIDTH 8 0
BBX 8 16 0 -2
BITMAP
00
00
c0
40
40
40
40
40
40
40
42
42
46
38
00
00
ENDCHAR
STARTCHAR U+0547
ENCODING 1351
SWIDTH 480 0
DWIDTH 8 0
BBX 8 16 0 -2
BITMAP
00
00
00
38
44
82
80
80
82
82
82
82
44
38
00
00
ENDCHAR
STARTCHAR U+0548
ENCODING 1352
SWIDTH 480 0
DWIDTH 8 0
BBX 8 16 0 -2
BITMAP
00
38
44
82
82
82
82
82
82
82
82
82
82
82
00
00
ENDCHAR
STARTCHAR U+0549
ENCODING 1353
SWIDTH 480 0
DWIDTH 8 0
BBX 8 16 0 -2
BITMAP
00
38
44
82
82
82
82
82
02
04
08
f0
18
06
00
00
ENDCHAR
STARTCHAR U+054a
ENCODING 1354
SWIDTH 480 0
DWIDTH 8 0
BBX 8 16 0 -2
BITMAP
00
00
7c
92
92
92
92
12
12
02
02
02
02
02
00
00
ENDCHAR
STARTCHAR U+054b
ENCODING 1355
SWIDTH 480 0
DWIDTH 8 0
BBX 8 16 0 -2
BITMAP
00
78
84
84
84
82
42
22
14
14
08
fc
82
80
00
00
ENDCHAR
STARTCHAR U+054c
ENCODING 1356
SWIDTH 480 0
DWIDTH 8 0
BBX 8 16 0 -2
BITMAP
00
00
70
88
88
88
8c
8a
8a
88
88
88
88
88
00
00
ENDCHAR
STARTCHAR U+054d
ENCODING 1357
SWIDTH 480 0
DWIDTH 8 0
BBX 8 16 0 -2
BITMAP
00
82
82
82
82
82
82
82
82
82
82
82
44
38
00
00
ENDCHAR
STARTCHAR U+054e
ENCODING 1358
SWIDTH 480 0
DWIDTH 8 0
BBX 8 16 0 -2
BITMAP
00
00
00
08
08
88
88
88
88
78
08
08
08
0e
02
00
ENDCHAR
STARTCHAR U+054f
ENCODING 1359
SWIDTH 480 0
DWIDTH 8 0
BBX 8 16 0 -2
BITMAP
00
38
44
82
80
80
60
18
04
02
02
82
44
38
00
00
ENDCHAR
STARTCHAR U+0550
ENCODING 1360
SWIDTH 480 0
DWIDTH 8 0
BBX 8 16 0 -2
BITMAP
00
38
44
82
82
80
80
80
80
80
80
80
80
80
00
00
ENDCHAR
STARTCHAR U+0551
ENCODING 1361
SWIDTH 480 0
DWIDTH 8 0
BBX 8 16 0 -2
BITMAP
00
38
44
84
84
84
78
04
02
02
82
82
44
38
00
00
ENDCHAR
STARTCHAR U+0552
ENCODING 1362
SWIDTH 480 0
DWIDTH 8 0
BBX 8 16 0 -2
BITMAP
00
00
40
40
40
40
78
44
40
40
40
40
40
40
00
00
ENDCHAR
STARTCHAR U+0553
ENCODING 1363
SWIDTH 480 0
DWIDTH 8 0
BBX 8 16 0 -2
BITMAP
00
00
10
38
54
92
92
92
92
92
54
38
10
00
00
00
ENDCHAR
STARTCHAR U+0554
ENCODING 1364
SWIDTH 480 0
DWIDTH 8 0
BBX 8 16 0 -2
BITMAP
00
18
24
22
22
22
22
22
22
bc
60
3c
62
20
00
00
ENDCHAR
STARTCHAR U+0555
ENCODING 1365
SWIDTH 480 0
DWIDTH 8 0
BBX 8 16 0 -2
BITMAP
00
38
44
82
82
82
82
82
82
82
82
82
44
38
00
00
ENDCHAR
STARTCHAR U+0556
ENCODING 1366
SWIDTH 480 0
DWIDTH 8 0
BBX 8 16 0 -2
BITMAP
00
00
60
90
90
90
7c
12
12
12
92
92
90
7c
00
00
ENDCHAR
STARTCHAR U+0559
ENCODING 1369
SWIDTH 480 0
DWIDTH 8 0
BBX 8 16 0 -2
BITMAP
00
08
10
10
00
00
00
00
00
00
00
00
00
00
00
00
ENDCHAR
STARTCHAR U+055a
ENCODING 1370
SWIDTH 480 0
DWIDTH 8 0
BBX 8 16 0 -2
BITMAP
00
30
10
20
00
00
00
00
00
00
00
00
00
00
00
00
ENDCHAR
STARTCHAR U+055b
ENCODING 1371
SWIDTH 480 0
DWIDTH 8 0
BBX 8 16 0 -2
BITMAP
00
00
08
10
20
00
00
00
00
00
00
00
00
00
00
00
ENDCHAR
STARTCHAR U+055c
ENCODING 1372
SWIDTH 480 0
DWIDTH 8 0
BBX 8 16 0 -2
BITMAP
00
24
58
00
00
00
00
00
00
00
00
00
00
00
00
00
ENDCHAR
STARTCHAR U+055d
ENCODING 1373
SWIDTH 480 0
DWIDTH 8 0
BBX 8 16 0 -2
BITMAP
20
20
20
10
00
00
00
00
00
00
00
00
00
00
00
00
ENDCHAR
STARTCHAR U+055e
ENCODING 1374
SWIDTH 480 0
DWIDTH 8 0
BBX 8 16 0 -2
BITMAP
00
00
00
38
44
54
48
00
00
00
00
00
00
00
00
00
ENDCHAR
STARTCHAR U+055f
ENCODING 1375
SWIDTH 480 0
DWIDTH 8 0
BBX 8 16 0 -2
BITMAP
00
00
00
60
44
38
00
00
00
00
00
00
00
00
00
00
ENDCHAR
STARTCHAR U+0561
ENCODING 1377
SWIDTH 480 0
DWIDTH 8 0
BBX 8 16 0 -2
BITMAP
00
00
00
00
00
82
92
92
92
92
92
92
92
6e
00
00
ENDCHAR
STARTCHAR U+0562
ENCODING 1378
SWIDTH 480 0
DWIDTH 8 0
BBX 8 16 0 -2
BITMAP
00
00
00
00
00
38
44
82
82
82
80
80
fe
80
80
80
ENDCHAR
STARTCHAR U+0563
ENCODING 1379
SWIDTH 480 0
DWIDTH 8 0
BBX 8 16 0 -2
BITMAP
00
00
00
00
00
28
58
88
88
88
88
48
3e
08
08
08
ENDCHAR
STARTCHAR U+0564
ENCODING 1380
SWIDTH 480 0
DWIDTH 8 0
BBX 8 16 0 -2
BITMAP
00
00
00
00
00
b8
c4
84
84
84
84
84
86
84
04
04
ENDCHAR
STARTCHAR U+0565
ENCODING 1381
SWIDTH 480 0
DWIDTH 8 0
BBX 8 16 0 -2
BITMAP
00
00
80
80
80
80
fc
82
82
82
82
82
86
7a
00
00
ENDCHAR
STARTCHAR U+0566
ENCODING 1382
SWIDTH 480 0
DWIDTH 8 0
BBX 8 16 0 -2
BITMAP
00
00
00
00
00
34
4c
84
84
84
84
4c
34
04
04
06
ENDCHAR
STARTCHAR U+0567
ENCODING 1383
SWIDTH 480 0
DWIDTH 8 0
BBX 8 16 0 -2
BITMAP
00
00
40
40
40
78
40
40
40
40
40
40
24
1a
02
04
ENDCHAR
STARTCHAR U+0568
ENCODING 1384
SWIDTH 480 0
DWIDTH 8 0
BBX 8 16 0 -2
BITMAP
00
00
00
00
00
5c
62
42
42
42
42
42
42
42
40
fe
ENDCHAR
STARTCHAR U+0569
ENCODING 1385
SWIDTH 480 0
DWIDTH 8 0
BBX 8 16 0 -2
BITMAP
00
00
00
00
00
b8
c4
84
84
8e
b4
a4
a4
98
80
80
ENDCHAR
STARTCHAR U+056a
ENCODING 1386
SWIDTH 480 0
DWIDTH 8 0
BBX 8 16 0 -2
BITMAP
00
00
08
08
08
7c
88
88
88
88
88
88
88
70
00
00
ENDCHAR
STARTCHAR U+056b
ENCODING 1387
SWIDTH 480 0
DWIDTH 8 0
BBX 8 16 0 -2
BITMAP
00
00
40
40
40
40
5c
62
42
42
42
42
42
42
40
40
ENDCHAR
STARTCHAR U+056c
ENCODING 1388
SWIDTH 480 0
DWIDTH 8 0
BBX 8 16 0 -2
BITMAP
00
00
00
00
00
30
10
10
10
10
10
10
10
10
10
0e
ENDCHAR
STARTCHAR U+056d
ENCODING 1389
SWIDTH 480 0
DWIDTH 8 0
BBX 8 16 0 -2
BITMAP
00
00
80
80
80
80
80
f2
92
92
92
92
92
8e
80
80
ENDCHAR
STARTCHAR U+056e
ENCODING 1390
SWIDTH 480 0
DWIDTH 8 0
BBX 8 16 0 -2
BITMAP
00
00
00
c0
30
08
04
7e
84
84
84
84
88
70
00
00
ENDCHAR
STARTCHAR U+056f
ENCODING 1391
SWIDTH 480 0
DWIDTH 8 0
BBX 8 16 0 -2
BITMAP
00
00
80
80
80
80
80
82
82
82
82
86
4a
32
02
02
ENDCHAR
STARTCHAR U+0570
ENCODING 1392
SWIDTH 480 0
DWIDTH 8 0
BBX 8 16 0 -2
BITMAP
00
00
80
80
80
80
bc
c2
82
82
82
82
82
82
00
00
ENDCHAR
STARTCHAR U+0571
ENCODING 1393
SWIDTH 480 0
DWIDTH 8 0
BBX 8 16 0 -2
BITMAP
00
00
10
20
10
38
44
82
82
82
82
82
86
7a
00
00
ENDCHAR
STARTCHAR U+0572
ENCODING 1394
SWIDTH 480 0
DWIDTH 8 0
BBX 8 16 0 -2
BITMAP
00
00
00
00
00
58
64
44
44
44
44
44
44
44
04
06
ENDCHAR
STARTCHAR U+0573
ENCODING 1395
SWIDTH 480 0
DWIDTH 8 0
BBX 8 16 0 -2
BITMAP
00
18
24
22
20
7c
20
22
22
22
22
22
26
3a
00
00
ENDCHAR
STARTCHAR U+0574
ENCODING 1396
SWIDTH 480 0
DWIDTH 8 0
BBX 8 16 0 -2
BITMAP
00
00
04
0a
08
84
84
84
84
84
84
84
8c
74
00
00
ENDCHAR
STARTCHAR U+0575
ENCODING 1397
SWIDTH 480 0
DWIDTH 8 0
BBX 8 16 0 -2
BITMAP
00
00
00
00
00
18
08
08
08
08
08
08
08
08
10
60
ENDCHAR
STARTCHAR U+0576
ENCODING 1398
SWIDTH 480 0
DWIDTH 8 0
BBX 8 16 0 -2
BITMAP
00
38
44
80
80
42
42
42
42
42
42
42
46
3a
00
00
ENDCHAR
STARTCHAR U+0577
ENCODING 1399
SWIDTH 480 0
DWIDTH 8 0
BBX 8 16 0 -2
BITMAP
00
00
00
00
00
3c
42
42
02
04
08
10
40
40
40
3e
ENDCHAR
STARTCHAR U+0578
ENCODING 1400
SWIDTH 480 0
DWIDTH 8 0
BBX 8 16 0 -2
BITMAP
00
00
00
00
00
5c
62
42
42
42
42
42
42
42
00
00
ENDCHAR
STARTCHAR U+0579
ENCODING 1401
SWIDTH 480 0
DWIDTH 8 0
BBX 8 16 0 -2
BITMAP
00
00
00
00
00
10
20
20
10
08
10
20
40
40
3e
00
ENDCHAR
STARTCHAR U+057a
ENCODING 1402
SWIDTH 480 0
DWIDTH 8 0
BBX 8 16 0 -2
BITMAP
00
00
00
00
00
92
92
92
92
92
92
92
b2
4e
02
02
ENDCHAR
STARTCHAR U+057b
ENCODING 1403
SWIDTH 480 0
DWIDTH 8 0
BBX 8 16 0 -2
BITMAP
00
00
00
00
00
38
44
82
82
82
74
08
30
20
20
1e
ENDCHAR
STARTCHAR U+057c
ENCODING 1404
SWIDTH 480 0
DWIDTH 8 0
BBX 8 16 0 -2
BITMAP
00
00
00
00
00
b8
c4
82
82
84
84
88
88
9e
00
00
ENDCHAR
STARTCHAR U+057d
ENCODING 1405
SWIDTH 480 0
DWIDTH 8 0
BBX 8 16 0 -2
BITMAP
00
00
00
00
00
42
42
42
42
42
42
42
46
3a
00
00
ENDCHAR
STARTCHAR U+057e
ENCODING 1406
SWIDTH 480 0
DWIDTH 8 0
BBX 8 16 0 -2
BITMAP
00
08
08
08
08
08
08
88
88
88
88
78
08
08
08
0e
ENDCHAR
STARTCHAR U+057f
ENCODING 1407
SWIDTH 480 0
DWIDTH 8 0
BBX 8 16 0 -2
BITMAP
00
00
00
00
00
00
14
9a
92
92
92
92
b2
52
10
10
ENDCHAR
STARTCHAR U+0580
ENCODING 1408
SWIDTH 480 0
DWIDTH 8 0
BBX 8 16 0 -2
BITMAP
00
00
00
00
00
bc
c2
82
82
82
82
82
82
82
80
80
ENDCHAR
STARTCHAR U+0581
ENCODING 1409
SWIDTH 480 0
DWIDTH 8 0
BBX 8 16 0 -2
BITMAP
00
00
00
00
00
38
44
82
82
82
42
3e
02
82
84
78
ENDCHAR
STARTCHAR U+0582
ENCODING 1410
SWIDTH 480 0
DWIDTH 8 0
BBX 8 16 0 -2
BITMAP
00
00
00
00
00
30
10
10
10
10
10
10
10
0c
00
00
ENDCHAR
STARTCHAR U+0583
ENCODING 1411
SWIDTH 480 0
DWIDTH 8 0
BBX 8 16 0 -2
BITMAP
00
00
10
10
10
10
1c
92
92
92
92
92
b2
52
10
10
ENDCHAR
STARTCHAR U+0584
ENCODING 1412
SWIDTH 480 0
DWIDTH 8 0
BBX 8 16 0 -2
BITMAP
00
18
24
22
22
20
20
20
3c
20
20
20
20
20
00
00
ENDCHAR
STARTCHAR U+0585
ENCODING 1413
SWIDTH 480 0
DWIDTH 8 0
BBX 8 16 0 -2
BITMAP
00
00
00
00
00
38
44
82
82
82
82
82
44
38
00
00
ENDCHAR
STARTCHAR U+0586
ENCODING 1414
SWIDTH 480 0
DWIDTH 8 0
BBX 8 16 0 -2
BITMAP
00
00
70
90
90
90
7c
12
92
92
92
54
38
10
10
10
ENDCHAR
STARTCHAR U+0587
ENCODING 1415
SWIDTH 480 0
DWIDTH 8 0
BBX 8 16 0 -2
BITMAP
00
00
80
80
80
80
88
88
88
88
88
88
88
76
00
00
ENDCHAR
STARTCHAR U+0589
ENCODING 1417
SWIDTH 480 0
DWIDTH 8 0
BBX 8 16 0 -2
BITMAP
00
00
00
00
00
10
38
10
00
10
38
10
00
00
00
00
ENDCHAR
STARTCHAR U+058a
ENCODING 1418
SWIDTH 480 0
DWIDTH 8 0
BBX 8 16 0 -2
BITMAP
00
00
00
00
00
00
20
24
18
00
00
00
00
00
00
00
ENDCHAR
STARTCHAR U+05be
ENCODING 1470
SWIDTH 480 0
DWIDTH 8 0
BBX 8 16 0 -2
BITMAP
00
3e
7c
00
00
00
00
00
00
00
00
00
00
00
00
00
ENDCHAR
STARTCHAR U+05c0
ENCODING 1472
SWIDTH 480 0
DWIDTH 8 0
BBX 8 16 0 -2
BITMAP
00
00
00
00
00
10
10
10
10
10
10
10
10
10
00
00
ENDCHAR
STARTCHAR U+05c3
ENCODING 1475
SWIDTH 480 0
DWIDTH 8 0
BBX 8 16 0 -2
BITMAP
00
00
00
00
00
00
10
10
00
00
10
10
00
00
00
00
ENDCHAR
STARTCHAR U+05d0
ENCODING 1488
SWIDTH 480 0
DWIDTH 8 0
BBX 8 16 0 -2
BITMAP
00
00
00
00
00
44
66
56
88
28
44
44
62
e2
00
00
ENDCHAR
STARTCHAR U+05d1
ENCODING 1489
SWIDTH 480 0
DWIDTH 8 0
BBX 8 16 0 -2
BITMAP
00
00
00
00
00
f8
04
04
04
04
04
04
fe
00
00
00
ENDCHAR
STARTCHAR U+05d2
ENCODING 1490
SWIDTH 480 0
DWIDTH 8 0
BBX 8 16 0 -2
BITMAP
00
00
00
00
20
20
00
10
10
08
08
08
24
44
00
00
ENDCHAR
STARTCHAR U+05d3
ENCODING 1491
SWIDTH 480 0
DWIDTH 8 0
BBX 8 16 0 -2
BITMAP
00
00
00
00
00
7e
08
08
08
08
08
08
08
08
00
00
ENDCHAR
STARTCHAR U+05d4
ENCODING 1492
SWIDTH 480 0
DWIDTH 8 0
BBX 8 16 0 -2
BITMAP
00
00
00
00
00
7e
02
02
02
42
42
42
42
42
00
00
ENDCHAR
STARTCHAR U+05d5
ENCODING 1493
SWIDTH 480 0
DWIDTH 8 0
BBX 8 16 0 -2
BITMAP
00
00
00
00
00
30
10
10
10
10
10
10
10
10
00
00
ENDCHAR
STARTCHAR U+05d6
ENCODING 1494
SWIDTH 480 0
DWIDTH 8 0
BBX 8 16 0 -2
BITMAP
00
00
00
00
00
7c
10
10
08
08
08
08
08
08
00
00
ENDCHAR
STARTCHAR U+05d7
ENCODING 1495
SWIDTH 480 0
DWIDTH 8 0
BBX 8 16 0 -2
BITMAP
00
00
00
00
00
7e
22
22
22
22
22
22
22
22
00
00
ENDCHAR
STARTCHAR U+05d8
ENCODING 1496
SWIDTH 480 0
DWIDTH 8 0
BBX 8 16 0 -2
BITMAP
00
00
00
00
00
86
aa
aa
82
82
82
82
84
f8
00
00
ENDCHAR
STARTCHAR U+05d9
ENCODING 1497
SWIDTH 480 0
DWIDTH 8 0
BBX 8 16 0 -2
BITMAP
00
00
00
00
20
38
08
08
00
00
00
00
00
00
00
00
ENDCHAR
STARTCHAR U+05da
ENCODING 1498
SWIDTH 480 0
DWIDTH 8 0
BBX 8 16 0 -2
BITMAP
00
00
00
00
00
7c
08
08
08
08
08
08
08
08
08
08
ENDCHAR
STARTCHAR U+05db
ENCODING 1499
SWIDTH 480 0
DWIDTH 8 0
BBX 8 16 0 -2
BITMAP
00
00
00
00
00
7e
7e
02
02
02
02
02
60
fc
00
00
ENDCHAR
STARTCHAR U+05dc
ENCODING 1500
SWIDTH 480 0
DWIDTH 8 0
BBX 8 16 0 -2
BITMAP
00
00
80
40
40
7e
02
02
02
04
04
08
08
10
00
00
ENDCHAR
STARTCHAR U+05dd
ENCODING 1501
SWIDTH 480 0
DWIDTH 8 0
BBX 8 16 0 -2
BITMAP
00
00
00
00
80
fc
7e
82
82
82
82
fe
fe
00
00
00
ENDCHAR
STARTCHAR U+05de
ENCODING 1502
SWIDTH 480 0
DWIDTH 8 0
BBX 8 16 0 -2
BITMAP
00
00
00
00
00
80
80
de
7e
82
82
82
9e
bc
00
00
ENDCHAR
STARTCHAR U+05df
ENCODING 1503
SWIDTH 480 0
DWIDTH 8 0
BBX 8 16 0 -2
BITMAP
00
00
00
00
20
30
08
08
10
10
10
10
10
10
10
10
ENDCHAR
STARTCHAR U+05e0
ENCODING 1504
SWIDTH 480 0
DWIDTH 8 0
BBX 8 16 0 -2
BITMAP
00
00
00
00
00
00
18
08
08
08
08
08
08
38
00
00
ENDCHAR
STARTCHAR U+05e1
ENCODING 1505
SWIDTH 480 0
DWIDTH 8 0
BBX 8 16 0 -2
BITMAP
00
00
00
00
00
7e
22
22
22
22
24
24
28
10
00
00
ENDCHAR
STARTCHAR U+05e2
ENCODING 1506
SWIDTH 480 0
DWIDTH 8 0
BBX 8 16 0 -2
BITMAP
00
00
00
00
00
c6
26
22
22
22
24
24
68
f0
00
00
ENDCHAR
STARTCHAR U+05e3
ENCODING 1507
SWIDTH 480 0
DWIDTH 8 0
BBX 8 16 0 -2
BITMAP
00
00
00
00
00
7c
44
44
44
04
04
04
04
04
04
04
ENDCHAR
STARTCHAR U+05e4
ENCODING 1508
SWIDTH 480 0
DWIDTH 8 0
BBX 8 16 0 -2
BITMAP
00
00
00
00
00
fe
22
22
22
02
04
04
08
f0
00
00
ENDCHAR
STARTCHAR U+05e5
ENCODING 1509
SWIDTH 480 0
DWIDTH 8 0
BBX 8 16 0 -2
BITMAP
00
00
00
00
00
84
82
e2
64
24
28
30
20
20
20
20
ENDCHAR
STARTCHAR U+05e6
ENCODING 1510
SWIDTH 480 0
DWIDTH 8 0
BBX 8 16 0 -2
BITMAP
00
00
00
00
00
46
c6
20
10
08
04
04
fe
fe
00
00
ENDCHAR
STARTCHAR U+05e7
ENCODING 1511
SWIDTH 480 0
DWIDTH 8 0
BBX 8 16 0 -2
BITMAP
00
00
00
00
00
7e
02
42
42
42
44
44
48
50
40
40
ENDCHAR
STARTCHAR U+05e8
ENCODING 1512
SWIDTH 480 0
DWIDTH 8 0
BBX 8 16 0 -2
BITMAP
00
00
00
00
00
7c
02
02
02
02
02
02
02
02
00
00
ENDCHAR
STARTCHAR U+05e9
ENCODING 1513
SWIDTH 480 0
DWIDTH 8 0
BBX 8 16 0 -2
BITMAP
00
00
00
00
00
4a
4a
4a
4a
4a
52
60
44
78
00
00
ENDCHAR
STARTCHAR U+05ea
ENCODING 1514
SWIDTH 480 0
DWIDTH 8 0
BBX 8 16 0 -2
BITMAP
00
00
00
00
00
fe
22
22
22
22
22
22
62
e2
00
00
ENDCHAR
STARTCHAR U+05f0
ENCODING 1520
SWIDTH 480 0
DWIDTH 8 0
BBX 8 16 0 -2
BITMAP
00
00
00
00
00
6c
26
22
22
22
22
22
22
22
00
00
ENDCHAR
STARTCHAR U+05f1
ENCODING 1521
SWIDTH 480 0
DWIDTH 8 0
BBX 8 16 0 -2
BITMAP
00
00
00
00
00
6c
22
22
02
02
02
02
02
02
00
00
ENDCHAR
STARTCHAR U+05f2
ENCODING 1522
SWIDTH 480 0
DWIDTH 8 0
BBX 8 16 0 -2
BITMAP
00
00
00
00
00
6c
24
24
00
00
00
00
00
00
00
00
ENDCHAR
STARTCHAR U+05f3
ENCODING 1523
SWIDTH 480 0
DWIDTH 8 0
BBX 8 16 0 -2
BITMAP
00
00
00
00
08
10
00
00
00
00
00
00
00
00
00
00
ENDCHAR
STARTCHAR U+05f4
ENCODING 1524
SWIDTH 480 0
DWIDTH 8 0
BBX 8 16 0 -2
BITMAP
00
00
00
00
24
48
00
00
00
00
00
00
00
00
00
00
ENDCHAR
STARTCHAR U+0e01
ENCODING 3585
SWIDTH 480 0
DWIDTH 8 0
BBX 8 16 0 -2
BITMAP
00
00
00
00
00
3c
42
62
22
22
22
22
22
22
00
00
ENDCHAR
STARTCHAR U+0e02
ENCODING 3586
SWIDTH 480 0
DWIDTH 8 0
BBX 8 16 0 -2
BITMAP
00
00
00
00
00
62
82
72
12
22
42
42
44
38
00
00
ENDCHAR
STARTCHAR U+0e03
ENCODING 3587
SWIDTH 480 0
DWIDTH 8 0
BBX 8 16 0 -2
BITMAP
00
00
00
00
00
92
ea
ca
ea
32
22
22
24
18
00
00
ENDCHAR
STARTCHAR U+0e04
ENCODING 3588
SWIDTH 480 0
DWIDTH 8 0
BBX 8 16 0 -2
BITMAP
00
00
00
00
00
38
44
82
82
8a
b2
b2
42
42
00
00
ENDCHAR
STARTCHAR U+0e05
ENCODING 3589
SWIDTH 480 0
DWIDTH 8 0
BBX 8 16 0 -2
BITMAP
00
00
00
00
00
6c
8a
8a
b2
92
72
a2
92
92
00
00
ENDCHAR
STARTCHAR U+0e06
ENCODING 3590
SWIDTH 480 0
DWIDTH 8 0
BBX 8 16 0 -2
BITMAP
00
00
00
00
00
a2
a2
e2
22
42
42
a2
44
98
00
00
ENDCHAR
STARTCHAR U+0e07
ENCODING 3591
SWIDTH 480 0
DWIDTH 8 0
BBX 8 16 0 -2
BITMAP
00
00
00
00
00
00
00
0e
02
02
82
42
22
1c
00
00
ENDCHAR
STARTCHAR U+0e08
ENCODING 3592
SWIDTH 480 0
DWIDTH 8 0
BBX 8 16 0 -2
BITMAP
00
00
00
00
00
00
7c
82
12
0a
1a
1a
0c
00
00
00
ENDCHAR
STARTCHAR U+0e09
ENCODING 3593
SWIDTH 480 0
DWIDTH 8 0
BBX 8 16 0 -2
BITMAP
00
00
00
00
00
78
84
04
c4
64
2c
36
2d
16
00
00
ENDCHAR
STARTCHAR U+0e0a
ENCODING 3594
SWIDTH 480 0
DWIDTH 8 0
BBX 8 16 0 -2
BITMAP
00
00
00
00
00
02
08
d8
c4
42
42
42
24
18
00
00
ENDCHAR
STARTCHAR U+0e0b
ENCODING 3595
SWIDTH 480 0
DWIDTH 8 0
BBX 8 16 0 -2
BITMAP
00
00
00
00
00
a2
e2
a4
20
42
42
42
20
1c
00
00
ENDCHAR
STARTCHAR U+0e0c
ENCODING 3596
SWIDTH 480 0
DWIDTH 8 0
BBX 8 16 0 -2
BITMAP
00
00
00
00
00
39
45
85
45
85
ad
b7
b5
6d
00
00
ENDCHAR
STARTCHAR U+0e0d
ENCODING 3597
SWIDTH 480 0
DWIDTH 8 0
BBX 8 16 0 -2
BITMAP
00
00
00
00
00
72
8a
4a
8a
8a
ca
cc
08
0e
00
00
ENDCHAR
STARTCHAR U+0e0e
ENCODING 3598
SWIDTH 480 0
DWIDTH 8 0
BBX 8 16 0 -2
BITMAP
00
00
00
00
00
38
44
62
22
62
62
aa
5a
3a
26
42
ENDCHAR
STARTCHAR U+0e0f
ENCODING 3599
SWIDTH 480 0
DWIDTH 8 0
BBX 8 16 0 -2
BITMAP
00
00
00
00
00
3c
42
62
22
22
22
a2
6a
be
50
40
ENDCHAR
STARTCHAR U+0e10
ENCODING 3600
SWIDTH 480 0
DWIDTH 8 0
BBX 8 16 0 -2
BITMAP
00
00
00
00
00
3e
40
40
3c
32
12
12
34
4a
2a
4a
ENDCHAR
STARTCHAR U+0e11
ENCODING 3601
SWIDTH 480 0
DWIDTH 8 0
BBX 8 16 0 -2
BITMAP
00
00
00
00
00
00
a4
ea
b2
32
22
22
22
22
00
00
ENDCHAR
STARTCHAR U+0e12
ENCODING 3602
SWIDTH 480 0
DWIDTH 8 0
BBX 8 16 0 -2
BITMAP
00
00
00
00
00
02
92
aa
aa
8a
aa
ae
ca
8a
00
00
ENDCHAR
STARTCHAR U+0e13
ENCODING 3603
SWIDTH 480 0
DWIDTH 8 0
BBX 8 16 0 -2
BITMAP
00
00
00
00
00
00
52
8a
4a
8a
aa
af
ab
ab
00
00
ENDCHAR
STARTCHAR U+0e14
ENCODING 3604
SWIDTH 480 0
DWIDTH 8 0
BBX 8 16 0 -2
BITMAP
00
00
00
00
00
38
44
82
82
92
aa
b2
4a
32
00
00
ENDCHAR
STARTCHAR U+0e15
ENCODING 3605
SWIDTH 480 0
DWIDTH 8 0
BBX 8 16 0 -2
BITMAP
00
00
00
00
00
24
50
8a
8a
9a
aa
b2
52
22
00
00
ENDCHAR
STARTCHAR U+0e16
ENCODING 3606
SWIDTH 480 0
DWIDTH 8 0
BBX 8 16 0 -2
BITMAP
00
00
00
00
00
38
44
62
22
22
32
32
12
12
00
00
ENDCHAR
STARTCHAR U+0e17
ENCODING 3607
SWIDTH 480 0
DWIDTH 8 0
BBX 8 16 0 -2
BITMAP
00
00
00
00
00
00
44
aa
6a
32
22
22
22
22
00
00
ENDCHAR
STARTCHAR U+0e18
ENCODING 3608
SWIDTH 480 0
DWIDTH 8 0
BBX 8 16 0 -2
BITMAP
00
00
00
00
00
3e
40
40
7c
22
22
22
20
1c
00
00
ENDCHAR
STARTCHAR U+0e19
ENCODING 3609
SWIDTH 480 0
DWIDTH 8 0
BBX 8 16 0 -2
BITMAP
00
00
00
00
00
44
84
c4
44
44
4c
56
4d
36
00
00
ENDCHAR
STARTCHAR U+0e1a
ENCODING 3610
SWIDTH 480 0
DWIDTH 8 0
BBX 8 16 0 -2
BITMAP
00
00
00
00
00
62
a2
62
22
22
22
22
24
18
00
00
ENDCHAR
STARTCHAR U+0e1b
ENCODING 3611
SWIDTH 480 0
DWIDTH 8 0
BBX 8 16 0 -2
BITMAP
00
00
00
02
02
02
42
a2
62
22
22
22
24
18
00
00
ENDCHAR
STARTCHAR U+0e1c
ENCODING 3612
SWIDTH 480 0
DWIDTH 8 0
BBX 8 16 0 -2
BITMAP
00
00
00
00
00
62
a2
c2
82
8a
8a
a4
a8
54
00
00
ENDCHAR
STARTCHAR U+0e1d
ENCODING 3613
SWIDTH 480 0
DWIDTH 8 0
BBX 8 16 0 -2
BITMAP
00
00
00
00
02
02
82
e2
c2
82
92
92
8a
74
00
00
ENDCHAR
STARTCHAR U+0e1e
ENCODING 3614
SWIDTH 480 0
DWIDTH 8 0
BBX 8 16 0 -2
BITMAP
00
00
00
00
00
42
aa
6a
2a
2a
36
36
28
28
00
00
ENDCHAR
STARTCHAR U+0e1f
ENCODING 3615
SWIDTH 480 0
DWIDTH 8 0
BBX 8 16 0 -2
BITMAP
00
00
00
00
02
02
42
aa
6a
2a
2a
36
24
00
00
00
ENDCHAR
STARTCHAR U+0e20
ENCODING 3616
SWIDTH 480 0
DWIDTH 8 0
BBX 8 16 0 -2
BITMAP
00
00
00
00
00
38
44
62
22
22
62
a2
62
62
00
00
ENDCHAR
STARTCHAR U+0e21
ENCODING 3617
SWIDTH 480 0
DWIDTH 8 0
BBX 8 16 0 -2
BITMAP
00
00
00
00
00
c2
a2
62
22
22
62
f2
b0
4c
00
00
ENDCHAR
STARTCHAR U+0e22
ENCODING 3618
SWIDTH 480 0
DWIDTH 8 0
BBX 8 16 0 -2
BITMAP
00
00
00
00
00
22
42
62
42
32
42
42
44
38
00
00
ENDCHAR
STARTCHAR U+0e23
ENCODING 3619
SWIDTH 480 0
DWIDTH 8 0
BBX 8 16 0 -2
BITMAP
00
00
00
00
00
38
44
40
70
08
04
0c
18
18
00
00
ENDCHAR
STARTCHAR U+0e24
ENCODING 3620
SWIDTH 480 0
DWIDTH 8 0
BBX 8 16 0 -2
BITMAP
00
00
00
00
00
38
44
62
22
22
32
32
02
02
02
02
ENDCHAR
STARTCHAR U+0e25
ENCODING 3621
SWIDTH 480 0
DWIDTH 8 0
BBX 8 16 0 -2
BITMAP
00
00
00
00
00
3c
42
02
3a
46
42
62
32
32
00
00
ENDCHAR
STARTCHAR U+0e26
ENCODING 3622
SWIDTH 480 0
DWIDTH 8 0
BBX 8 16 0 -2
BITMAP
00
00
00
00
00
38
44
62
22
22
62
a2
42
42
02
02
ENDCHAR
STARTCHAR U+0e27
ENCODING 3623
SWIDTH 480 0
DWIDTH 8 0
BBX 8 16 0 -2
BITMAP
00
00
00
00
00
38
44
82
02
02
02
06
06
04
00
00
ENDCHAR
STARTCHAR U+0e28
ENCODING 3624
SWIDTH 480 0
DWIDTH 8 0
BBX 8 16 0 -2
BITMAP
00
00
00
02
02
3c
40
9a
9a
aa
aa
52
42
42
00
00
ENDCHAR
STARTCHAR U+0e29
ENCODING 3625
SWIDTH 480 0
DWIDTH 8 0
BBX 8 16 0 -2
BITMAP
00
00
00
00
00
c2
a2
6a
2a
2a
26
22
24
18
00
00
ENDCHAR
STARTCHAR U+0e2a
ENCODING 3626
SWIDTH 480 0
DWIDTH 8 0
BBX 8 16 0 -2
BITMAP
00
00
00
00
02
3c
42
02
3a
46
42
62
32
32
00
00
ENDCHAR
STARTCHAR U+0e2b
ENCODING 3627
SWIDTH 480 0
DWIDTH 8 0
BBX 8 16 0 -2
BITMAP
00
00
00
00
00
44
a6
66
24
2a
32
22
22
22
00
00
ENDCHAR
STARTCHAR U+0e2c
ENCODING 3628
SWIDTH 480 0
DWIDTH 8 0
BBX 8 16 0 -2
BITMAP
00
00
00
00
02
02
4c
a2
6a
2a
2a
36
24
00
00
00
ENDCHAR
STARTCHAR U+0e2d
ENCODING 3629
SWIDTH 480 0
DWIDTH 8 0
BBX 8 16 0 -2
BITMAP
00
00
00
00
00
38
44
02
22
72
42
42
24
18
00
00
ENDCHAR
STARTCHAR U+0e2e
ENCODING 3630
SWIDTH 480 0
DWIDTH 8 0
BBX 8 16 0 -2
BITMAP
00
00
00
00
00
3a
46
1a
22
52
62
42
24
18
00
00
ENDCHAR
STARTCHAR U+0e2f
ENCODING 3631
SWIDTH 480 0
DWIDTH 8 0
BBX 8 16 0 -2
BITMAP
00
00
00
00
00
c6
e6
0a
12
02
02
02
04
00
00
00
ENDCHAR
STARTCHAR U+0e30
ENCODING 3632
SWIDTH 480 0
DWIDTH 8 0
BBX 8 16 0 -2
BITMAP
00
00
00
00
00
00
00
64
78
00
60
44
78
00
00
00
ENDCHAR
STARTCHAR U+0e31
ENCODING 3633
SWIDTH 480 0
DWIDTH 8 0
BBX 8 16 0 -2
BITMAP
00
01
42
7c
00
00
00
00
00
00
00
00
00
00
00
00
ENDCHAR
STARTCHAR U+0e32
ENCODING 3634
SWIDTH 480 0
DWIDTH 8 0
BBX 8 16 0 -2
BITMAP
00
00
00
00
00
38
44
02
02
02
02
02
02
02
00
00
ENDCHAR
STARTCHAR U+0e33
ENCODING 3635
SWIDTH 480 0
DWIDTH 8 0
BBX 8 16 0 -2
BITMAP
00
00
00
00
c0
c0
3c
42
02
02
02
02
02
02
00
00
ENDCHAR
STARTCHAR U+0e34
ENCODING 3636
SWIDTH 480 0
DWIDTH 8 0
BBX 8 16 0 -2
BITMAP
00
00
00
7e
00
00
00
00
00
00
00
00
00
00
00
00
ENDCHAR
STARTCHAR U+0e35
ENCODING 3637
SWIDTH 480 0
DWIDTH 8 0
BBX 8 16 0 -2
BITMAP
00
00
00
02
7e
00
00
00
00
00
00
00
00
00
00
00
ENDCHAR
STARTCHAR U+0e36
ENCODING 3638
SWIDTH 480 0
DWIDTH 8 0
BBX 8 16 0 -2
BITMAP
00
00
06
7e
00
00
00
00
00
00
00
00
00
00
00
00
ENDCHAR
STARTCHAR U+0e37
ENCODING 3639
SWIDTH 480 0
DWIDTH 8 0
BBX 8 16 0 -2
BITMAP
00
00
00
2a
5e
60
00
00
00
00
00
00
00
00
00
00
ENDCHAR
STARTCHAR U+0e38
ENCODING 3640
SWIDTH 480 0
DWIDTH 8 0
BBX 8 16 0 -2
BITMAP
00
00
00
00
00
00
00
00
00
00
00
00
00
0e
06
02
ENDCHAR
STARTCHAR U+0e39
ENCODING 3641
SWIDTH 480 0
DWIDTH 8 0
BBX 8 16 0 -2
BITMAP
00
00
00
00
00
00
00
00
00
00
00
00
00
1a
1a
0e
ENDCHAR
STARTCHAR U+0e3a
ENCODING 3642
SWIDTH 480 0
DWIDTH 8 0
BBX 8 16 0 -2
BITMAP
00
00
00
00
00
00
00
00
00
00
00
00
00
0c
0c
0c
ENDCHAR
STARTCHAR U+0e3f
ENCODING 3647
SWIDTH 480 0
DWIDTH 8 0
BBX 8 16 0 -2
BITMAP
00
00
00
08
3c
ea
aa
ea
bc
aa
aa
aa
bc
e8
20
00
ENDCHAR
STARTCHAR U+0e40
ENCODING 3648
SWIDTH 480 0
DWIDTH 8 0
BBX 8 16 0 -2
BITMAP
00
00
00
00
00
20
20
20
20
20
20
30
30
30
00
00
ENDCHAR
STARTCHAR U+0e41
ENCODING 3649
SWIDTH 480 0
DWIDTH 8 0
BBX 8 16 0 -2
BITMAP
00
00
00
00
00
44
44
44
44
44
66
66
24
24
00
00
ENDCHAR
STARTCHAR U+0e42
ENCODING 3650
SWIDTH 480 0
DWIDTH 8 0
BBX 8 16 0 -2
BITMAP
00
00
00
3e
40
78
08
08
08
08
0c
0a
06
00
00
00
ENDCHAR
STARTCHAR U+0e43
ENCODING 3651
SWIDTH 480 0
DWIDTH 8 0
BBX 8 16 0 -2
BITMAP
00
00
00
38
64
94
94
64
04
04
04
06
06
04
00
00
ENDCHAR
STARTCHAR U+0e44
ENCODING 3652
SWIDTH 480 0
DWIDTH 8 0
BBX 8 16 0 -2
BITMAP
00
00
00
d8
28
08
08
08
08
08
0c
0e
06
00
00
00
ENDCHAR
STARTCHAR U+0e45
ENCODING 3653
SWIDTH 480 0
DWIDTH 8 0
BBX 8 16 0 -2
BITMAP
00
00
00
00
00
38
44
02
02
02
02
02
02
02
02
00
ENDCHAR
STARTCHAR U+0e46
ENCODING 3654
SWIDTH 480 0
DWIDTH 8 0
BBX 8 16 0 -2
BITMAP
00
00
00
00
00
00
74
8a
c2
02
02
02
02
02
04
08
ENDCHAR
STARTCHAR U+0e47
ENCODING 3655
SWIDTH 480 0
DWIDTH 8 0
BBX 8 16 0 -2
BITMAP
02
3c
54
2c
00
00
00
00
00
00
00
00
00
00
00
00
ENDCHAR
STARTCHAR U+0e48
ENCODING 3656
SWIDTH 480 0
DWIDTH 8 0
BBX 8 16 0 -2
BITMAP
02
02
00
00
00
00
00
00
00
00
00
00
00
00
00
00
ENDCHAR
STARTCHAR U+0e49
ENCODING 3657
SWIDTH 480 0
DWIDTH 8 0
BBX 8 16 0 -2
BITMAP
34
18
00
00
00
00
00
00
00
00
00
00
00
00
00
00
ENDCHAR
STARTCHAR U+0e4a
ENCODING 3658
SWIDTH 480 0
DWIDTH 8 0
BBX 8 16 0 -2
BITMAP
2a
3c
00
00
00
00
00
00
00
00
00
00
00
00
00
00
ENDCHAR
STARTCHAR U+0e4b
ENCODING 3659
SWIDTH 480 0
DWIDTH 8 0
BBX 8 16 0 -2
BITMAP
02
07
02
00
00
00
00
00
00
00
00
00
00
00
00
00
ENDCHAR
STARTCHAR U+0e4c
ENCODING 3660
SWIDTH 480 0
DWIDTH 8 0
BBX 8 16 0 -2
BITMAP
32
2c
20
00
00
00
00
00
00
00
00
00
00
00
00
00
ENDCHAR
STARTCHAR U+0e4d
ENCODING 3661
SWIDTH 480 0
DWIDTH 8 0
BBX 8 16 0 -2
BITMAP
00
0c
0c
00
00
00
00
00
00
00
00
00
00
00
00
00
ENDCHAR
STARTCHAR U+0e4e
ENCODING 3662
SWIDTH 480 0
DWIDTH 8 0
BBX 8 16 0 -2
BITMAP
0e
08
10
18
00
00
00
00
00
00
00
00
00
00
00
00
ENDCHAR
STARTCHAR U+0e4f
ENCODING 3663
SWIDTH 480 0
DWIDTH 8 0
BBX 8 16 0 -2
BITMAP
00
00
00
00
00
00
00
38
46
92
8a
b2
44
38
00
00
ENDCHAR
STARTCHAR U+0e50
ENCODING 3664
SWIDTH 480 0
DWIDTH 8 0
BBX 8 16 0 -2
BITMAP
00
00
00
00
00
00
00
3c
42
82
82
82
44
38
00
00
ENDCHAR
STARTCHAR U+0e51
ENCODING 3665
SWIDTH 480 0
DWIDTH 8 0
BBX 8 16 0 -2
BITMAP
00
00
00
00
00
00
18
24
52
6a
32
04
38
00
00
00
ENDCHAR
STARTCHAR U+0e52
ENCODING 3666
SWIDTH 480 0
DWIDTH 8 0
BBX 8 16 0 -2
BITMAP
00
00
00
00
80
80
80
b8
a6
b2
aa
b2
84
78
00
00
ENDCHAR
STARTCHAR U+0e53
ENCODING 3667
SWIDTH 480 0
DWIDTH 8 0
BBX 8 16 0 -2
BITMAP
00
00
00
00
00
00
00
6c
92
8a
ca
c2
d2
d2
00
00
ENDCHAR
STARTCHAR U+0e54
ENCODING 3668
SWIDTH 480 0
DWIDTH 8 0
BBX 8 16 0 -2
BITMAP
00
00
00
00
00
02
00
3c
40
84
88
8c
48
3e
00
00
ENDCHAR
STARTCHAR U+0e55
ENCODING 3669
SWIDTH 480 0
DWIDTH 8 0
BBX 8 16 0 -2
BITMAP
00
00
00
00
00
12
0a
3c
40
8a
8c
88
4c
3e
00
00
ENDCHAR
STARTCHAR U+0e56
ENCODING 3670
SWIDTH 480 0
DWIDTH 8 0
BBX 8 16 0 -2
BITMAP
00
00
00
00
00
80
40
3c
02
02
02
34
38
00
00
00
ENDCHAR
STARTCHAR U+0e57
ENCODING 3671
SWIDTH 480 0
DWIDTH 8 0
BBX 8 16 0 -2
BITMAP
00
00
00
00
02
02
02
72
92
8a
8a
8a
88
88
04
00
ENDCHAR
STARTCHAR U+0e58
ENCODING 3672
SWIDTH 480 0
DWIDTH 8 0
BBX 8 16 0 -2
BITMAP
00
00
00
00
00
02
12
6c
80
86
8a
a6
d2
4c
00
00
ENDCHAR
STARTCHAR U+0e59
ENCODING 3673
SWIDTH 480 0
DWIDTH 8 0
BBX 8 16 0 -2
BITMAP
00
00
00
00
02
02
04
08
78
88
88
a4
72
32
00
00
ENDCHAR
STARTCHAR U+0e5a
ENCODING 3674
SWIDTH 480 0
DWIDTH 8 0
BBX 8 16 0 -2
BITMAP
00
00
00
00
00
00
c8
f6
16
0a
0a
0a
04
08
00
00
ENDCHAR
STARTCHAR U+0e5b
ENCODING 3675
SWIDTH 480 0
DWIDTH 8 0
BBX 8 16 0 -2
BITMAP
00
00
00
00
00
c0
c0
a8
ae
8a
b0
a0
a0
40
00
00
ENDCHAR
STARTCHAR U+10a0
ENCODING 4256
SWIDTH 480 0
DWIDTH 8 0
BBX 8 16 0 -2
BITMAP
00
00
00
fe
10
20
40
40
40
40
40
42
24
18
00
00
ENDCHAR
STARTCHAR U+10a1
ENCODING 4257
SWIDTH 480 0
DWIDTH 8 0
BBX 8 16 0 -2
BITMAP
00
88
88
88
88
88
88
78
08
08
08
08
08
0f
01
00
ENDCHAR
STARTCHAR U+10a2
ENCODING 4258
SWIDTH 480 0
DWIDTH 8 0
BBX 8 16 0 -2
BITMAP
00
f8
88
88
88
88
08
08
08
08
08
08
08
0e
02
02
ENDCHAR
STARTCHAR U+10a3
ENCODING 4259
SWIDTH 480 0
DWIDTH 8 0
BBX 8 16 0 -2
BITMAP
00
00
fe
30
30
48
44
82
82
82
82
82
44
38
00
00
ENDCHAR
STARTCHAR U+10a4
ENCODING 4260
SWIDTH 480 0
DWIDTH 8 0
BBX 8 16 0 -2
BITMAP
00
00
7e
42
42
02
02
02
02
02
02
02
02
02
00
00
ENDCHAR
STARTCHAR U+10a5
ENCODING 4261
SWIDTH 480 0
DWIDTH 8 0
BBX 8 16 0 -2
BITMAP
00
00
f0
90
90
90
10
1e
12
10
10
10
10
10
00
00
ENDCHAR
STARTCHAR U+10a6
ENCODING 4262
SWIDTH 480 0
DWIDTH 8 0
BBX 8 16 0 -2
BITMAP
00
00
e0
20
20
20
2c
32
22
22
22
22
24
18
00
00
ENDCHAR
STARTCHAR U+10a7
ENCODING 4263
SWIDTH 480 0
DWIDTH 8 0
BBX 8 16 0 -2
BITMAP
00
00
38
48
88
88
8c
8a
8a
88
88
88
48
38
00
00
ENDCHAR
STARTCHAR U+10a8
ENCODING 4264
SWIDTH 480 0
DWIDTH 8 0
BBX 8 16 0 -2
BITMAP
00
00
7e
02
02
02
02
02
02
02
02
02
02
02
00
00
ENDCHAR
STARTCHAR U+10a9
ENCODING 4265
SWIDTH 480 0
DWIDTH 8 0
BBX 8 16 0 -2
BITMAP
00
40
40
40
58
64
42
42
42
46
3a
02
02
02
00
00
ENDCHAR
STARTCHAR U+10aa
ENCODING 4266
SWIDTH 480 0
DWIDTH 8 0
BBX 8 16 0 -2
BITMAP
00
00
00
e0
a0
a0
2c
32
22
22
22
22
24
18
00
00
ENDCHAR
STARTCHAR U+10ab
ENCODING 4267
SWIDTH 480 0
DWIDTH 8 0
BBX 8 16 0 -2
BITMAP
00
00
f8
08
08
08
1f
69
88
88
88
88
88
70
00
00
ENDCHAR
STARTCHAR U+10ac
ENCODING 4268
SWIDTH 480 0
DWIDTH 8 0
BBX 8 16 0 -2
BITMAP
00
00
fe
80
80
80
80
fe
82
82
82
82
82
82
00
00
ENDCHAR
STARTCHAR U+10ad
ENCODING 4269
SWIDTH 480 0
DWIDTH 8 0
BBX 8 16 0 -2
BITMAP
00
60
90
90
90
90
90
90
90
90
92
92
92
6c
00
00
ENDCHAR
STARTCHAR U+10ae
ENCODING 4270
SWIDTH 480 0
DWIDTH 8 0
BBX 8 16 0 -2
BITMAP
00
02
c2
42
42
42
42
42
42
42
44
44
24
18
00
00
ENDCHAR
STARTCHAR U+10af
ENCODING 4271
SWIDTH 480 0
DWIDTH 8 0
BBX 8 16 0 -2
BITMAP
00
02
e2
22
22
22
22
26
1a
02
02
02
02
02
00
00
ENDCHAR
STARTCHAR U+10b0
ENCODING 4272
SWIDTH 480 0
DWIDTH 8 0
BBX 8 16 0 -2
BITMAP
00
10
10
10
10
10
14
14
90
90
90
90
90
60
00
00
ENDCHAR
STARTCHAR U+10b1
ENCODING 4273
SWIDTH 480 0
DWIDTH 8 0
BBX 8 16 0 -2
BITMAP
00
80
80
80
80
80
80
80
82
82
82
82
44
38
00
00
ENDCHAR
STARTCHAR U+10b2
ENCODING 4274
SWIDTH 480 0
DWIDTH 8 0
BBX 8 16 0 -2
BITMAP
00
f8
84
82
82
82
84
f8
80
80
80
80
80
fe
00
00
ENDCHAR
STARTCHAR U+10b3
ENCODING 4275
SWIDTH 480 0
DWIDTH 8 0
BBX 8 16 0 -2
BITMAP
00
60
90
90
90
90
90
90
90
90
90
92
8a
72
00
00
ENDCHAR
STARTCHAR U+10b4
ENCODING 4276
SWIDTH 480 0
DWIDTH 8 0
BBX 8 16 0 -2
BITMAP
00
00
7c
92
92
92
92
7c
10
10
10
10
10
10
00
00
ENDCHAR
STARTCHAR U+10b5
ENCODING 4277
SWIDTH 480 0
DWIDTH 8 0
BBX 8 16 0 -2
BITMAP
00
00
00
10
10
10
90
fe
92
10
10
10
10
10
00
00
ENDCHAR
STARTCHAR U+10b6
ENCODING 4278
SWIDTH 480 0
DWIDTH 8 0
BBX 8 16 0 -2
BITMAP
00
38
44
82
82
82
82
82
82
82
82
82
82
82
00
00
ENDCHAR
STARTCHAR U+10b7
ENCODING 4279
SWIDTH 480 0
DWIDTH 8 0
BBX 8 16 0 -2
BITMAP
00
62
82
82
82
82
82
46
3a
02
02
02
02
02
00
00
ENDCHAR
STARTCHAR U+10b8
ENCODING 4280
SWIDTH 480 0
DWIDTH 8 0
BBX 8 16 0 -2
BITMAP
00
42
82
82
82
82
86
7a
02
82
82
82
44
38
00
00
ENDCHAR
STARTCHAR U+10b9
ENCODING 4281
SWIDTH 480 0
DWIDTH 8 0
BBX 8 16 0 -2
BITMAP
00
00
80
80
80
80
fe
82
82
82
82
82
82
82
00
00
ENDCHAR
STARTCHAR U+10ba
ENCODING 4282
SWIDTH 480 0
DWIDTH 8 0
BBX 8 16 0 -2
BITMAP
00
38
44
42
40
40
40
40
40
40
42
44
38
08
08
08
ENDCHAR
STARTCHAR U+10bb
ENCODING 4283
SWIDTH 480 0
DWIDTH 8 0
BBX 8 16 0 -2
BITMAP
00
08
08
08
08
08
1f
69
89
88
88
88
90
60
00
00
ENDCHAR
STARTCHAR U+10bc
ENCODING 4284
SWIDTH 480 0
DWIDTH 8 0
BBX 8 16 0 -2
BITMAP
00
f8
84
82
82
82
fc
80
fc
88
88
80
80
80
00
00
ENDCHAR
STARTCHAR U+10bd
ENCODING 4285
SWIDTH 480 0
DWIDTH 8 0
BBX 8 16 0 -2
BITMAP
00
38
44
82
82
80
60
18
04
02
82
82
44
38
00
00
ENDCHAR
STARTCHAR U+10be
ENCODING 4286
SWIDTH 480 0
DWIDTH 8 0
BBX 8 16 0 -2
BITMAP
00
82
82
82
82
82
82
fe
82
80
80
80
80
fe
02
00
ENDCHAR
STARTCHAR U+10bf
ENCODING 4287
SWIDTH 480 0
DWIDTH 8 0
BBX 8 16 0 -2
BITMAP
00
00
fe
82
42
24
18
18
24
22
40
40
80
80
00
00
ENDCHAR
STARTCHAR U+10c0
ENCODING 4288
SWIDTH 480 0
DWIDTH 8 0
BBX 8 16 0 -2
BITMAP
00
00
e0
a0
a0
20
20
20
20
20
22
22
02
1c
00
00
ENDCHAR
STARTCHAR U+10c1
ENCODING 4289
SWIDTH 480 0
DWIDTH 8 0
BBX 8 16 0 -2
BITMAP
00
00
40
40
40
40
70
4c
42
40
40
40
40
40
00
00
ENDCHAR
STARTCHAR U+10c2
ENCODING 4290
SWIDTH 480 0
DWIDTH 8 0
BBX 8 16 0 -2
BITMAP
00
00
00
40
40
78
04
02
02
02
82
82
44
38
00
00
ENDCHAR
STARTCHAR U+10c3
ENCODING 4291
SWIDTH 480 0
DWIDTH 8 0
BBX 8 16 0 -2
BITMAP
00
02
02
22
42
82
82
46
3a
02
02
02
02
02
00
00
ENDCHAR
STARTCHAR U+10c4
ENCODING 4292
SWIDTH 480 0
DWIDTH 8 0
BBX 8 16 0 -2
BITMAP
00
82
82
82
82
82
84
78
00
10
10
10
10
10
00
00
ENDCHAR
STARTCHAR U+10c5
ENCODING 4293
SWIDTH 480 0
DWIDTH 8 0
BBX 8 16 0 -2
BITMAP
00
0c
12
12
12
1c
10
1c
72
90
90
90
90
60
00
00
ENDCHAR
STARTCHAR U+10d0
ENCODING 4304
SWIDTH 480 0
DWIDTH 8 0
BBX 8 16 0 -2
BITMAP
00
00
00
00
00
00
20
20
18
04
82
82
44
38
00
00
ENDCHAR
STARTCHAR U+10d1
ENCODING 4305
SWIDTH 480 0
DWIDTH 8 0
BBX 8 16 0 -2
BITMAP
00
00
20
38
08
08
08
3c
42
42
42
42
44
38
00
00
ENDCHAR
STARTCHAR U+10d2
ENCODING 4306
SWIDTH 480 0
DWIDTH 8 0
BBX 8 16 0 -2
BITMAP
00
00
00
00
00
30
48
48
08
3c
42
42
42
42
3c
00
ENDCHAR
STARTCHAR U+10d3
ENCODING 4307
SWIDTH 480 0
DWIDTH 8 0
BBX 8 16 0 -2
BITMAP
00
00
00
00
00
00
00
6c
92
92
92
8c
40
38
44
02
ENDCHAR
STARTCHAR U+10d4
ENCODING 4308
SWIDTH 480 0
DWIDTH 8 0
BBX 8 16 0 -2
BITMAP
00
00
00
00
1c
22
42
42
02
02
02
42
42
3c
00
00
ENDCHAR
STARTCHAR U+10d5
ENCODING 4309
SWIDTH 480 0
DWIDTH 8 0
BBX 8 16 0 -2
BITMAP
00
00
00
00
1c
22
42
42
0c
02
02
42
42
42
3c
00
ENDCHAR
STARTCHAR U+10d6
ENCODING 4310
SWIDTH 480 0
DWIDTH 8 0
BBX 8 16 0 -2
BITMAP
00
00
60
90
90
94
78
10
1c
12
12
12
12
0c
00
00
ENDCHAR
STARTCHAR U+10d7
ENCODING 4311
SWIDTH 480 0
DWIDTH 8 0
BBX 8 16 0 -2
BITMAP
00
00
00
00
00
00
00
6c
92
92
92
92
92
60
00
00
ENDCHAR
STARTCHAR U+10d8
ENCODING 4312
SWIDTH 480 0
DWIDTH 8 0
BBX 8 16 0 -2
BITMAP
00
00
00
00
00
00
00
7c
82
82
82
82
82
64
00
00
ENDCHAR
STARTCHAR U+10d9
ENCODING 4313
SWIDTH 480 0
DWIDTH 8 0
BBX 8 16 0 -2
BITMAP
00
00
00
00
0c
02
02
02
0c
02
22
42
42
3c
00
00
ENDCHAR
STARTCHAR U+10da
ENCODING 4314
SWIDTH 480 0
DWIDTH 8 0
BBX 8 16 0 -2
BITMAP
00
00
00
00
00
00
00
74
8a
8a
8a
84
80
78
04
02
ENDCHAR
STARTCHAR U+10db
ENCODING 4315
SWIDTH 480 0
DWIDTH 8 0
BBX 8 16 0 -2
BITMAP
00
38
44
82
82
02
02
3a
46
82
82
82
44
38
00
00
ENDCHAR
STARTCHAR U+10dc
ENCODING 4316
SWIDTH 480 0
DWIDTH 8 0
BBX 8 16 0 -2
BITMAP
00
38
44
80
80
80
80
f8
84
82
82
82
44
38
00
00
ENDCHAR
STARTCHAR U+10dd
ENCODING 4317
SWIDTH 480 0
DWIDTH 8 0
BBX 8 16 0 -2
BITMAP
00
00
00
00
00
00
00
6c
92
92
92
82
82
60
00
00
ENDCHAR
STARTCHAR U+10de
ENCODING 4318
SWIDTH 480 0
DWIDTH 8 0
BBX 8 16 0 -2
BITMAP
00
10
10
08
04
00
00
0c
02
02
22
42
44
38
00
00
ENDCHAR
STARTCHAR U+10df
ENCODING 4319
SWIDTH 480 0
DWIDTH 8 0
BBX 8 16 0 -2
BITMAP
00
00
00
00
00
0e
12
12
02
12
22
22
22
1c
00
00
ENDCHAR
STARTCHAR U+10e0
ENCODING 4320
SWIDTH 480 0
DWIDTH 8 0
BBX 8 16 0 -2
BITMAP
00
00
00
00
04
38
40
48
74
4a
4a
42
42
40
00
00
ENDCHAR
STARTCHAR U+10e1
ENCODING 4321
SWIDTH 480 0
DWIDTH 8 0
BBX 8 16 0 -2
BITMAP
00
40
40
40
40
48
50
40
50
48
44
44
44
38
00
00
ENDCHAR
STARTCHAR U+10e2
ENCODING 4322
SWIDTH 480 0
DWIDTH 8 0
BBX 8 16 0 -2
BITMAP
00
00
18
24
24
24
3c
26
26
42
42
42
40
40
3c
00
ENDCHAR
STARTCHAR U+10e3
ENCODING 4323
SWIDTH 480 0
DWIDTH 8 0
BBX 8 16 0 -2
BITMAP
00
00
00
00
0c
d2
22
22
02
02
02
42
42
3c
00
00
ENDCHAR
STARTCHAR U+10e4
ENCODING 4324
SWIDTH 480 0
DWIDTH 8 0
BBX 8 16 0 -2
BITMAP
00
00
00
00
00
00
00
6c
92
92
6d
01
21
21
1e
00
ENDCHAR
STARTCHAR U+10e5
ENCODING 4325
SWIDTH 480 0
DWIDTH 8 0
BBX 8 16 0 -2
BITMAP
00
02
02
1e
02
02
02
02
1e
22
02
02
42
42
3c
00
ENDCHAR
STARTCHAR U+10e6
ENCODING 4326
SWIDTH 480 0
DWIDTH 8 0
BBX 8 16 0 -2
BITMAP
00
00
00
00
00
00
00
2c
52
92
92
40
40
38
04
02
ENDCHAR
STARTCHAR U+10e7
ENCODING 4327
SWIDTH 480 0
DWIDTH 8 0
BBX 8 16 0 -2
BITMAP
00
02
02
02
02
02
06
0a
12
02
02
22
22
1c
00
00
ENDCHAR
STARTCHAR U+10e8
ENCODING 4328
SWIDTH 480 0
DWIDTH 8 0
BBX 8 16 0 -2
BITMAP
00
38
44
92
92
92
9a
82
9e
82
82
82
44
38
00
00
ENDCHAR
STARTCHAR U+10e9
ENCODING 4329
SWIDTH 480 0
DWIDTH 8 0
BBX 8 16 0 -2
BITMAP
00
60
90
88
88
88
98
e0
9c
82
82
82
82
82
00
00
ENDCHAR
STARTCHAR U+10ea
ENCODING 4330
SWIDTH 480 0
DWIDTH 8 0
BBX 8 16 0 -2
BITMAP
00
00
00
00
8c
82
82
82
8c
82
82
82
82
7c
00
00
ENDCHAR
STARTCHAR U+10eb
ENCODING 4331
SWIDTH 480 0
DWIDTH 8 0
BBX 8 16 0 -2
BITMAP
00
18
04
02
02
02
02
3a
46
82
82
82
44
38
00
00
ENDCHAR
STARTCHAR U+10ec
ENCODING 4332
SWIDTH 480 0
DWIDTH 8 0
BBX 8 16 0 -2
BITMAP
00
00
28
54
54
54
40
40
40
7c
44
44
28
28
10
10
ENDCHAR
STARTCHAR U+10ed
ENCODING 4333
SWIDTH 480 0
DWIDTH 8 0
BBX 8 16 0 -2
BITMAP
00
00
08
78
08
08
08
6a
9c
9a
68
08
08
08
10
40
ENDCHAR
STARTCHAR U+10ee
ENCODING 4334
SWIDTH 480 0
DWIDTH 8 0
BBX 8 16 0 -2
BITMAP
00
40
40
40
40
48
48
78
44
42
42
42
44
38
00
00
ENDCHAR
STARTCHAR U+10ef
ENCODING 4335
SWIDTH 480 0
DWIDTH 8 0
BBX 8 16 0 -2
BITMAP
00
00
00
00
00
00
00
c2
24
08
18
66
24
a2
a0
40
ENDCHAR
STARTCHAR U+10f0
ENCODING 4336
SWIDTH 480 0
DWIDTH 8 0
BBX 8 16 0 -2
BITMAP
00
20
18
04
18
04
18
00
1c
22
42
42
44
38
00
00
ENDCHAR
STARTCHAR U+10f1
ENCODING 4337
SWIDTH 480 0
DWIDTH 8 0
BBX 8 16 0 -2
BITMAP
00
b8
84
80
80
80
9c
80
9c
82
82
82
44
38
00
00
ENDCHAR
STARTCHAR U+10f2
ENCODING 4338
SWIDTH 480 0
DWIDTH 8 0
BBX 8 16 0 -2
BITMAP
00
00
00
00
00
00
3c
42
42
42
24
24
48
fe
00
00
ENDCHAR
STARTCHAR U+10f3
ENCODING 4339
SWIDTH 480 0
DWIDTH 8 0
BBX 8 16 0 -2
BITMAP
00
00
00
00
00
7e
02
04
08
1c
02
02
42
3c
00
00
ENDCHAR
STARTCHAR U+10f4
ENCODING 4340
SWIDTH 480 0
DWIDTH 8 0
BBX 8 16 0 -2
BITMAP
00
00
20
20
1c
02
02
02
0c
04
02
42
42
42
3c
00
ENDCHAR
STARTCHAR U+10f5
ENCODING 4341
SWIDTH 480 0
DWIDTH 8 0
BBX 8 16 0 -2
BITMAP
00
38
44
44
44
3e
04
1e
24
44
44
44
44
38
00
00
ENDCHAR
STARTCHAR U+10f6
ENCODING 4342
SWIDTH 480 0
DWIDTH 8 0
BBX 8 16 0 -2
BITMAP
00
00
00
00
20
10
10
3c
52
52
52
3c
10
10
10
08
ENDCHAR
STARTCHAR U+10fb
ENCODING 4347
SWIDTH 480 0
DWIDTH 8 0
BBX 8 16 0 -2
BITMAP
00
00
00
00
00
60
60
0c
0c
00
60
60
00
00
00
00
ENDCHAR
STARTCHAR U+16a0
ENCODING 5792
SWIDTH 480 0
DWIDTH 8 0
BBX 8 16 0 -2
BITMAP
00
24
2c
28
30
24
28
30
20
20
20
20
20
20
00
00
ENDCHAR
STARTCHAR U+16a2
ENCODING 5794
SWIDTH 480 0
DWIDTH 8 0
BBX 8 16 0 -2
BITMAP
e0
90
90
88
88
84
84
82
82
82
82
82
82
82
00
00
ENDCHAR
STARTCHAR U+16a3
ENCODING 5795
SWIDTH 480 0
DWIDTH 8 0
BBX 8 16 0 -2
BITMAP
00
10
10
f0
88
84
84
82
92
92
92
92
92
92
00
00
ENDCHAR
STARTCHAR U+16a6
ENCODING 5798
SWIDTH 480 0
DWIDTH 8 0
BBX 8 16 0 -2
BITMAP
00
20
20
20
38
24
24
24
24
38
20
20
20
20
00
00
ENDCHAR
STARTCHAR U+16a9
ENCODING 5801
SWIDTH 480 0
DWIDTH 8 0
BBX 8 16 0 -2
BITMAP
00
00
44
48
70
44
48
50
40
40
40
40
40
40
00
00
ENDCHAR
STARTCHAR U+16aa
ENCODING 5802
SWIDTH 480 0
DWIDTH 8 0
BBX 8 16 0 -2
BITMAP
00
40
44
68
50
40
60
50
48
40
40
40
40
40
00
00
ENDCHAR
STARTCHAR U+16ab
ENCODING 5803
SWIDTH 480 0
DWIDTH 8 0
BBX 8 16 0 -2
BITMAP
00
00
40
40
60
50
48
64
40
40
40
40
40
40
00
00
ENDCHAR
STARTCHAR U+16b1
ENCODING 5809
SWIDTH 480 0
DWIDTH 8 0
BBX 8 16 0 -2
BITMAP
00
60
50
48
44
48
50
60
50
48
44
44
40
40
00
00
ENDCHAR
STARTCHAR U+16b3
ENCODING 5811
SWIDTH 480 0
DWIDTH 8 0
BBX 8 16 0 -2
BITMAP
00
40
40
40
40
70
48
48
44
48
44
44
40
40
00
00
ENDCHAR
STARTCHAR U+16b7
ENCODING 5815
SWIDTH 480 0
DWIDTH 8 0
BBX 8 16 0 -2
BITMAP
00
84
84
48
48
48
30
30
30
28
28
28
44
44
80
00
ENDCHAR
STARTCHAR U+16b8
ENCODING 5816
SWIDTH 480 0
DWIDTH 8 0
BBX 8 16 0 -2
BITMAP
00
44
44
44
28
28
54
54
48
18
24
24
44
44
00
00
ENDCHAR
STARTCHAR U+16b9
ENCODING 5817
SWIDTH 480 0
DWIDTH 8 0
BBX 8 16 0 -2
BITMAP
00
60
50
48
44
44
48
50
60
40
40
40
40
40
00
00
ENDCHAR
STARTCHAR U+16bb
ENCODING 5819
SWIDTH 480 0
DWIDTH 8 0
BBX 8 16 0 -2
BITMAP
00
82
82
82
c2
c2
b2
ca
a6
8a
8a
86
86
82
00
00
ENDCHAR
STARTCHAR U+16be
ENCODING 5822
SWIDTH 480 0
DWIDTH 8 0
BBX 8 16 0 -2
BITMAP
00
10
10
10
10
50
30
18
14
10
10
10
10
10
00
00
ENDCHAR
STARTCHAR U+16c1
ENCODING 5825
SWIDTH 480 0
DWIDTH 8 0
BBX 8 16 0 -2
BITMAP
00
10
10
10
10
10
10
10
10
10
10
10
10
10
00
00
ENDCHAR
STARTCHAR U+16c4
ENCODING 5828
SWIDTH 480 0
DWIDTH 8 0
BBX 8 16 0 -2
BITMAP
00
10
10
10
38
54
92
92
54
38
10
10
10
00
00
00
ENDCHAR
STARTCHAR U+16c7
ENCODING 5831
SWIDTH 480 0
DWIDTH 8 0
BBX 8 16 0 -2
BITMAP
00
00
10
18
14
12
10
10
10
50
30
10
10
10
00
00
ENDCHAR
STARTCHAR U+16c8
ENCODING 5832
SWIDTH 480 0
DWIDTH 8 0
BBX 8 16 0 -2
BITMAP
00
40
44
68
50
40
40
40
40
40
58
64
42
40
00
00
ENDCHAR
STARTCHAR U+16c9
ENCODING 5833
SWIDTH 480 0
DWIDTH 8 0
BBX 8 16 0 -2
BITMAP
00
54
54
38
38
10
10
10
10
10
10
10
10
10
00
00
ENDCHAR
STARTCHAR U+16cb
ENCODING 5835
SWIDTH 480 0
DWIDTH 8 0
BBX 8 16 0 -2
BITMAP
00
40
40
40
40
44
4c
54
64
44
04
04
04
04
00
00
ENDCHAR
STARTCHAR U+16cf
ENCODING 5839
SWIDTH 480 0
DWIDTH 8 0
BBX 8 16 0 -2
BITMAP
00
00
10
38
54
10
10
10
10
10
10
10
10
10
00
00
ENDCHAR
STARTCHAR U+16d2
ENCODING 5842
SWIDTH 480 0
DWIDTH 8 0
BBX 8 16 0 -2
BITMAP
00
00
60
50
48
50
40
40
70
48
48
50
40
60
00
00
ENDCHAR
STARTCHAR U+16d6
ENCODING 5846
SWIDTH 480 0
DWIDTH 8 0
BBX 8 16 0 -2
BITMAP
00
82
82
c6
aa
92
82
82
82
82
82
82
82
82
00
00
ENDCHAR
STARTCHAR U+16d7
ENCODING 5847
SWIDTH 480 0
DWIDTH 8 0
BBX 8 16 0 -2
BITMAP
00
82
c2
c6
aa
b2
aa
c6
c2
82
82
82
82
82
00
00
ENDCHAR
STARTCHAR U+16da
ENCODING 5850
SWIDTH 480 0
DWIDTH 8 0
BBX 8 16 0 -2
BITMAP
00
00
10
18
14
10
10
10
10
10
10
10
10
10
00
00
ENDCHAR
STARTCHAR U+16dd
ENCODING 5853
SWIDTH 480 0
DWIDTH 8 0
BBX 8 16 0 -2
BITMAP
00
82
44
28
28
28
44
44
44
18
28
28
44
82
00
00
ENDCHAR
STARTCHAR U+16de
ENCODING 5854
SWIDTH 480 0
DWIDTH 8 0
BBX 8 16 0 -2
BITMAP
00
82
82
c6
c6
c6
aa
aa
aa
a6
c6
c6
82
82
00
00
ENDCHAR
STARTCHAR U+16df
ENCODING 5855
SWIDTH 480 0
DWIDTH 8 0
BBX 8 16 0 -2
BITMAP
00
10
28
44
42
42
24
18
28
28
44
44
82
82
00
00
ENDCHAR
STARTCHAR U+16e0
ENCODING 5856
SWIDTH 480 0
DWIDTH 8 0
BBX 8 16 0 -2
BITMAP
00
94
58
38
10
10
10
10
10
10
10
10
10
10
00
00
ENDCHAR
STARTCHAR U+16e1
ENCODING 5857
SWIDTH 480 0
DWIDTH 8 0
BBX 8 16 0 -2
BITMAP
00
10
10
94
58
30
10
38
54
90
10
10
10
10
00
00
ENDCHAR
STARTCHAR U+16e2
ENCODING 5858
SWIDTH 480 0
DWIDTH 8 0
BBX 8 16 0 -2
BITMAP
00
10
10
18
10
10
10
10
10
10
10
30
50
90
00
00
ENDCHAR
STARTCHAR U+16e5
ENCODING 5861
SWIDTH 480 0
DWIDTH 8 0
BBX 8 16 0 -2
BITMAP
00
80
c2
a6
ca
92
82
82
82
b2
ca
c6
86
82
00
00
ENDCHAR
STARTCHAR U+16eb
ENCODING 5867
SWIDTH 480 0
DWIDTH 8 0
BBX 8 16 0 -2
BITMAP
00
00
00
00
00
00
10
10
00
00
00
00
00
00
00
00
ENDCHAR
STARTCHAR U+16ec
ENCODING 5868
SWIDTH 480 0
DWIDTH 8 0
BBX 8 16 0 -2
BITMAP
00
00
00
00
00
10
00
00
00
10
10
00
00
00
00
00
ENDCHAR
STARTCHAR U+16ed
ENCODING 5869
SWIDTH 480 0
DWIDTH 8 0
BBX 8 16 0 -2
BITMAP
00
00
00
00
00
10
10
10
7c
10
10
00
00
00
00
00
ENDCHAR
STARTCHAR U+1e00
ENCODING 7680
SWIDTH 480 0
DWIDTH 8 0
BBX 8 16 0 -2
BITMAP
00
10
10
28
28
28
44
44
44
7c
82
82
18
38
04
18
ENDCHAR
STARTCHAR U+1e01
ENCODING 7681
SWIDTH 480 0
DWIDTH 8 0
BBX 8 16 0 -2
BITMAP
00
00
00
00
00
3c
02
02
3e
42
42
42
3a
18
04
18
ENDCHAR
STARTCHAR U+1e02
ENCODING 7682
SWIDTH 480 0
DWIDTH 8 0
BBX 8 16 0 -2
BITMAP
10
10
00
f8
84
82
84
f8
84
82
82
82
84
f8
00
00
ENDCHAR
STARTCHAR U+1e03
ENCODING 7683
SWIDTH 480 0
DWIDTH 8 0
BBX 8 16 0 -2
BITMAP
00
18
80
80
80
b8
c4
82
82
82
82
82
c4
b8
00
00
ENDCHAR
STARTCHAR U+1e04
ENCODING 7684
SWIDTH 480 0
DWIDTH 8 0
BBX 8 16 0 -2
BITMAP
00
00
f8
84
84
84
88
f8
84
82
82
82
84
f8
00
00
ENDCHAR
STARTCHAR U+1e05
ENCODING 7685
SWIDTH 480 0
DWIDTH 8 0
BBX 8 16 0 -2
BITMAP
00
00
80
80
80
80
bc
c2
82
82
82
82
c4
b8
00
18
ENDCHAR
STARTCHAR U+1e06
ENCODING 7686
SWIDTH 480 0
DWIDTH 8 0
BBX 8 16 0 -2
BITMAP
00
f8
84
84
84
84
84
f8
84
82
82
82
84
f8
00
fe
ENDCHAR
STARTCHAR U+1e07
ENCODING 7687
SWIDTH 480 0
DWIDTH 8 0
BBX 8 16 0 -2
BITMAP
00
00
80
80
80
b8
c4
82
82
82
82
c2
a4
98
00
7e
ENDCHAR
STARTCHAR U+1e08
ENCODING 7688
SWIDTH 480 0
DWIDTH 8 0
BBX 8 16 0 -2
BITMAP
18
10
00
38
44
82
80
80
80
80
42
44
38
08
08
00
ENDCHAR
STARTCHAR U+1e09
ENCODING 7689
SWIDTH 480 0
DWIDTH 8 0
BBX 8 16 0 -2
BITMAP
00
18
10
20
00
38
44
82
80
80
40
46
38
10
20
40
ENDCHAR
STARTCHAR U+1e0a
ENCODING 7690
SWIDTH 480 0
DWIDTH 8 0
BBX 8 16 0 -2
BITMAP
10
10
00
f8
84
82
82
82
82
82
84
84
88
f0
00
00
ENDCHAR
STARTCHAR U+1e0b
ENCODING 7691
SWIDTH 480 0
DWIDTH 8 0
BBX 8 16 0 -2
BITMAP
00
18
02
02
02
3a
46
42
42
42
42
42
46
3a
00
00
ENDCHAR
STARTCHAR U+1e0c
ENCODING 7692
SWIDTH 480 0
DWIDTH 8 0
BBX 8 16 0 -2
BITMAP
00
f0
88
84
84
82
82
82
82
82
84
84
f8
00
10
18
ENDCHAR
STARTCHAR U+1e0d
ENCODING 7693
SWIDTH 480 0
DWIDTH 8 0
BBX 8 16 0 -2
BITMAP
00
02
02
02
02
3a
46
82
82
82
82
46
3a
02
00
18
ENDCHAR
STARTCHAR U+1e0e
ENCODING 7694
SWIDTH 480 0
DWIDTH 8 0
BBX 8 16 0 -2
BITMAP
00
00
00
f8
84
82
82
82
82
82
84
84
f8
00
fc
00
ENDCHAR
STARTCHAR U+1e0f
ENCODING 7695
SWIDTH 480 0
DWIDTH 8 0
BBX 8 16 0 -2
BITMAP
00
02
02
02
02
3a
46
82
82
82
82
82
46
3a
00
fe
ENDCHAR
STARTCHAR U+1e10
ENCODING 7696
SWIDTH 480 0
DWIDTH 8 0
BBX 8 16 0 -2
BITMAP
00
f0
88
84
84
82
82
82
82
82
84
84
f8
10
20
40
ENDCHAR
STARTCHAR U+1e11
ENCODING 7697
SWIDTH 480 0
DWIDTH 8 0
BBX 8 16 0 -2
BITMAP
00
02
02
02
02
3a
46
82
82
82
82
86
5a
22
10
20
ENDCHAR
STARTCHAR U+1e12
ENCODING 7698
SWIDTH 480 0
DWIDTH 8 0
BBX 8 16 0 -2
BITMAP
00
f0
88
84
84
82
82
82
82
82
84
84
f8
00
30
44
ENDCHAR
STARTCHAR U+1e13
ENCODING 7699
SWIDTH 480 0
DWIDTH 8 0
BBX 8 16 0 -2
BITMAP
00
02
02
02
02
3a
46
82
82
82
42
46
38
00
38
46
ENDCHAR
STARTCHAR U+1e14
ENCODING 7700
SWIDTH 480 0
DWIDTH 8 0
BBX 8 16 0 -2
BITMAP
10
08
20
3c
00
fe
80
80
f8
80
80
80
80
fe
00
00
ENDCHAR
STARTCHAR U+1e15
ENCODING 7701
SWIDTH 480 0
DWIDTH 8 0
BBX 8 16 0 -2
BITMAP
10
08
00
3c
00
38
44
82
82
fe
80
82
44
38
00
00
ENDCHAR
STARTCHAR U+1e16
ENCODING 7702
SWIDTH 480 0
DWIDTH 8 0
BBX 8 16 0 -2
BITMAP
18
10
20
3e
00
fe
80
fc
80
80
80
80
80
fe
00
00
ENDCHAR
STARTCHAR U+1e17
ENCODING 7703
SWIDTH 480 0
DWIDTH 8 0
BBX 8 16 0 -2
BITMAP
08
10
00
3c
00
38
44
82
82
fe
80
82
44
38
00
00
ENDCHAR
STARTCHAR U+1e18
ENCODING 7704
SWIDTH 480 0
DWIDTH 8 0
BBX 8 16 0 -2
BITMAP
00
fe
80
80
80
80
f0
80
80
80
80
80
fe
00
08
42
ENDCHAR
STARTCHAR U+1e19
ENCODING 7705
SWIDTH 480 0
DWIDTH 8 0
BBX 8 16 0 -2
BITMAP
00
00
00
00
00
38
44
82
82
fe
80
82
3c
00
38
46
ENDCHAR
STARTCHAR U+1e1a
ENCODING 7706
SWIDTH 480 0
DWIDTH 8 0
BBX 8 16 0 -2
BITMAP
00
fe
80
80
80
80
f0
80
80
80
80
80
fe
00
32
4c
ENDCHAR
STARTCHAR U+1e1b
ENCODING 7707
SWIDTH 480 0
DWIDTH 8 0
BBX 8 16 0 -2
BITMAP
00
00
00
00
00
38
44
82
82
fe
80
82
3c
00
32
5c
ENDCHAR
STARTCHAR U+1e1c
ENCODING 7708
SWIDTH 480 0
DWIDTH 8 0
BBX 8 16 0 -2
BITMAP
44
38
00
fe
80
80
80
fc
80
80
80
80
7c
12
20
40
ENDCHAR
STARTCHAR U+1e1d
ENCODING 7709
SWIDTH 480 0
DWIDTH 8 0
BBX 8 16 0 -2
BITMAP
00
00
84
78
00
38
44
82
82
fe
80
82
38
10
20
40
ENDCHAR
STARTCHAR U+1e1e
ENCODING 7710
SWIDTH 480 0
DWIDTH 8 0
BBX 8 16 0 -2
BITMAP
10
10
00
fe
80
80
80
fc
80
80
80
80
80
80
00
00
ENDCHAR
STARTCHAR U+1e1f
ENCODING 7711
SWIDTH 480 0
DWIDTH 8 0
BBX 8 16 0 -2
BITMAP
10
10
00
1c
12
12
10
7c
10
10
10
10
10
10
00
00
ENDCHAR
STARTCHAR U+1e20
ENCODING 7712
SWIDTH 480 0
DWIDTH 8 0
BBX 8 16 0 -2
BITMAP
00
7c
00
38
44
82
80
80
86
82
82
82
46
3a
00
00
ENDCHAR
STARTCHAR U+1e21
ENCODING 7713
SWIDTH 480 0
DWIDTH 8 0
BBX 8 16 0 -2
BITMAP
00
00
00
7c
00
3a
44
44
44
38
40
78
84
82
82
7c
ENDCHAR
STARTCHAR U+1e22
ENCODING 7714
SWIDTH 480 0
DWIDTH 8 0
BBX 8 16 0 -2
BITMAP
10
10
00
82
82
82
82
fe
82
82
82
82
82
82
00
00
ENDCHAR
STARTCHAR U+1e23
ENCODING 7715
SWIDTH 480 0
DWIDTH 8 0
BBX 8 16 0 -2
BITMAP
08
08
80
80
80
80
bc
c2
82
82
82
82
82
82
00
00
ENDCHAR
STARTCHAR U+1e24
ENCODING 7716
SWIDTH 480 0
DWIDTH 8 0
BBX 8 16 0 -2
BITMAP
00
00
82
82
82
82
82
fe
82
82
82
82
82
82
10
30
ENDCHAR
STARTCHAR U+1e25
ENCODING 7717
SWIDTH 480 0
DWIDTH 8 0
BBX 8 16 0 -2
BITMAP
00
00
40
40
40
40
5c
62
42
42
42
42
42
42
00
18
ENDCHAR
STARTCHAR U+1e26
ENCODING 7718
SWIDTH 480 0
DWIDTH 8 0
BBX 8 16 0 -2
BITMAP
44
44
00
82
82
82
82
fe
82
82
82
82
82
82
00
00
ENDCHAR
STARTCHAR U+1e27
ENCODING 7719
SWIDTH 480 0
DWIDTH 8 0
BBX 8 16 0 -2
BITMAP
44
44
00
80
80
80
bc
c2
82
82
82
82
82
82
00
00
ENDCHAR
STARTCHAR U+1e28
ENCODING 7720
SWIDTH 480 0
DWIDTH 8 0
BBX 8 16 0 -2
BITMAP
00
82
82
82
82
82
82
fe
82
82
82
82
82
04
24
40
ENDCHAR
STARTCHAR U+1e29
ENCODING 7721
SWIDTH 480 0
DWIDTH 8 0
BBX 8 16 0 -2
BITMAP
00
00
80
80
80
b8
c4
82
82
82
82
82
84
18
20
40
ENDCHAR
STARTCHAR U+1e2a
ENCODING 7722
SWIDTH 480 0
DWIDTH 8 0
BBX 8 16 0 -2
BITMAP
00
82
82
82
82
82
82
fe
82
82
82
82
00
82
82
7c
ENDCHAR
STARTCHAR U+1e2b
ENCODING 7723
SWIDTH 480 0
DWIDTH 8 0
BBX 8 16 0 -2
BITMAP
00
00
80
80
80
b8
c4
82
82
82
82
82
00
80
22
5c
ENDCHAR
STARTCHAR U+1e2c
ENCODING 7724
SWIDTH 480 0
DWIDTH 8 0
BBX 8 16 0 -2
BITMAP
00
00
7c
10
10
10
10
10
10
10
10
10
3c
02
32
4c
ENDCHAR
STARTCHAR U+1e2d
ENCODING 7725
SWIDTH 480 0
DWIDTH 8 0
BBX 8 16 0 -2
BITMAP
00
00
00
20
00
30
10
10
10
10
10
10
3c
02
32
4c
ENDCHAR
STARTCHAR U+1e2e
ENCODING 7726
SWIDTH 480 0
DWIDTH 8 0
BBX 8 16 0 -2
BITMAP
08
10
00
24
00
3c
10
10
10
10
10
10
10
38
00
00
ENDCHAR
STARTCHAR U+1e2f
ENCODING 7727
SWIDTH 480 0
DWIDTH 8 0
BBX 8 16 0 -2
BITMAP
08
10
00
24
00
30
10
10
10
10
10
10
10
10
00
00
ENDCHAR
STARTCHAR U+1e30
ENCODING 7728
SWIDTH 480 0
DWIDTH 8 0
BBX 8 16 0 -2
BITMAP
18
10
20
84
84
88
a0
c0
a0
84
84
84
82
82
00
00
ENDCHAR
STARTCHAR U+1e31
ENCODING 7729
SWIDTH 480 0
DWIDTH 8 0
BBX 8 16 0 -2
BITMAP
00
08
90
80
80
80
84
88
90
e8
84
84
82
82
00
00
ENDCHAR
STARTCHAR U+1e32
ENCODING 7730
SWIDTH 480 0
DWIDTH 8 0
BBX 8 16 0 -2
BITMAP
00
81
82
84
88
90
a0
c0
a0
84
82
82
81
81
00
30
ENDCHAR
STARTCHAR U+1e33
ENCODING 7731
SWIDTH 480 0
DWIDTH 8 0
BBX 8 16 0 -2
BITMAP
00
40
40
40
40
42
44
48
50
68
44
44
42
42
00
18
ENDCHAR
STARTCHAR U+1e34
ENCODING 7732
SWIDTH 480 0
DWIDTH 8 0
BBX 8 16 0 -2
BITMAP
00
82
82
84
84
88
a8
d0
a8
84
82
82
84
82
00
fe
ENDCHAR
STARTCHAR U+1e35
ENCODING 7733
SWIDTH 480 0
DWIDTH 8 0
BBX 8 16 0 -2
BITMAP
00
00
40
40
40
40
44
48
50
68
44
40
00
3e
00
00
ENDCHAR
STARTCHAR U+1e36
ENCODING 7734
SWIDTH 480 0
DWIDTH 8 0
BBX 8 16 0 -2
BITMAP
00
00
80
80
80
80
80
80
80
80
80
80
fe
00
10
30
ENDCHAR
STARTCHAR U+1e37
ENCODING 7735
SWIDTH 480 0
DWIDTH 8 0
BBX 8 16 0 -2
BITMAP
00
00
30
10
10
10
10
10
10
10
10
10
10
10
00
30
ENDCHAR
STARTCHAR U+1e38
ENCODING 7736
SWIDTH 480 0
DWIDTH 8 0
BBX 8 16 0 -2
BITMAP
00
fc
00
80
80
80
80
80
80
80
80
80
fe
00
18
18
ENDCHAR
STARTCHAR U+1e39
ENCODING 7737
SWIDTH 480 0
DWIDTH 8 0
BBX 8 16 0 -2
BITMAP
00
7c
00
38
10
10
10
10
10
10
10
10
10
10
00
30
ENDCHAR
STARTCHAR U+1e3a
ENCODING 7738
SWIDTH 480 0
DWIDTH 8 0
BBX 8 16 0 -2
BITMAP
00
00
80
80
80
80
80
80
80
80
80
80
80
fe
00
fe
ENDCHAR
STARTCHAR U+1e3b
ENCODING 7739
SWIDTH 480 0
DWIDTH 8 0
BBX 8 16 0 -2
BITMAP
00
00
30
10
10
10
10
10
10
10
10
10
10
38
00
fc
ENDCHAR
STARTCHAR U+1e3c
ENCODING 7740
SWIDTH 480 0
DWIDTH 8 0
BBX 8 16 0 -2
BITMAP
00
00
80
80
80
80
80
80
80
80
80
80
fe
00
0c
22
ENDCHAR
STARTCHAR U+1e3d
ENCODING 7741
SWIDTH 480 0
DWIDTH 8 0
BBX 8 16 0 -2
BITMAP
00
00
30
10
10
10
10
10
10
10
10
10
10
10
28
44
ENDCHAR
ENDFONT
